<svg width="38" height="38" fill="none" xmlns="http://www.w3.org/2000/svg"><path d="M30.88 21.156c1.248-.099 2.256.723 2.343 1.96.099 1.292-.81 2.344-2.058 2.442a2.183 2.183 0 0 1-2.344-2.015c-.098-1.292.767-2.256 2.059-2.398v.011Z" fill="#85DA2F"/><path d="M15.746 31.351c0-1.248.953-2.201 2.103-2.201 1.15 0 2.256 1.051 2.256 2.256 0 1.15-.953 2.157-2.06 2.2-1.39 0-2.299-.864-2.299-2.255Z" fill="#23C1FF"/><path d="M19.141 17.367c-.197.099-.285-.044-.34-.186-1.773-3.307-1.248-7.468 1.873-9.954.81-.668 2.344-.81 3.012-.143.284.241.339.526.383.865.098.723.24 1.435.723 2.015.525.625 1.193.865 1.96.81.668 0 1.336-.098 1.774.669.24.427.142 2.102-.241 2.442-.186.142-.34.044-.482 0-1.106-.427-2.256-.427-3.395-.241-.383.044-.57-.044-.57-.482-.043-.723-.185-1.39-.569-2.015-.722-1.292-2.058-1.336-2.923-.142-.723.952-.91 2.102-1.106 3.252-.187 1.008-.143 2.059-.099 3.11Z" fill="#FFCA11"/><path d="M20.345 18.09c-.098-.142-.043-.285.099-.383 2.727-2.486 6.8-2.968 9.954-.526.81.668 1.336 2.059.909 2.869-.186.34-.427.482-.723.57-.668.284-1.292.569-1.719 1.193-.427.624-.526 1.336-.34 2.103.143.624.384 1.292-.24 1.872-.34.34-1.96.624-2.399.34-.186-.143-.142-.285-.098-.482.142-1.194-.143-2.3-.57-3.351-.142-.383-.098-.57.285-.668.668-.197 1.292-.526 1.774-1.008 1.051-1.007.81-2.3-.57-2.869-1.105-.481-2.255-.383-3.35-.284-1.052.043-2.059.34-3.012.624Z" fill="#85DA2F"/><path d="M19.721 19.338c.142-.142.241-.098.383 0 3.165 1.916 4.786 5.694 3.351 9.385-.383.953-1.631 1.916-2.54 1.675-.384-.098-.57-.284-.767-.525-.427-.57-.909-1.106-1.631-1.336-.767-.241-1.435-.099-2.103.285-.57.339-1.15.766-1.873.339-.427-.241-1.15-1.72-1.007-2.201.098-.186.285-.186.482-.186 1.193-.187 2.157-.767 3.066-1.533.285-.241.526-.241.767.098.383.57.865 1.051 1.489 1.39 1.248.724 2.442.1 2.584-1.335.142-1.194-.285-2.256-.668-3.307a17.966 17.966 0 0 0-1.533-2.727v-.022Z" fill="#23C1FF"/><path d="M18.188 19.623c-.186.953-.624 1.872-1.194 2.683-1.719 2.584-4.216 3.635-7.282 3.35-1.106-.098-2.015-1.007-2.102-1.916a1.151 1.151 0 0 1 .284-.952c.34-.428.625-.81.767-1.337.285-1.05-.099-1.916-.865-2.682-1.051-1.052-.91-2.015.34-2.782.142-.098.339-.186.525-.285.285-.142.526-.142.624.187.427 1.106 1.292 1.916 2.256 2.584.34.285.34.482.044.81a3.566 3.566 0 0 0-.953 2.256c-.098 1.051.526 1.72 1.577 1.72.668 0 1.292-.242 1.873-.526 1.489-.767 2.628-1.873 3.734-3.012.142-.044.186-.142.383-.098h-.01Z" fill="#0069DA"/><path d="M10.337 9.57c.098 0 .34.044.57.099 1.773.34 2.868-.285 3.448-1.96.384-1.106 1.194-1.435 2.256-.865.044 0 .044.043.099.043 1.106.625 1.106.723.427 1.676-.57.766-.865 1.632-1.007 2.54-.099.526-.285.625-.767.428-.766-.285-1.577-.285-2.398 0-.91.284-1.292 1.106-1.008 2.014.384 1.194 1.435 1.72 2.344 2.344.909.624 1.96.953 2.967 1.39.143.044.384.044.34.285-.044.143-.241.143-.427.143-2.158.098-4.216-.241-5.892-1.676-1.577-1.292-2.726-2.869-2.54-5.08.142-.724.668-1.25 1.577-1.392l.01.011Z" fill="#FF4649"/><path d="M6.405 23.018c-1.15.142-2.3-.81-2.398-2.015-.099-1.15.865-2.3 1.96-2.398 1.249-.143 2.398.723 2.486 1.872.044 1.106-.668 2.442-2.059 2.54h.011Z" fill="#0069DA"/><path d="M26.522 5.978c1.193-.098 2.343.865 2.442 2.059.098 1.15-.865 2.256-2.015 2.343-1.249.099-2.344-.81-2.442-2.015-.099-1.193.766-2.3 2.015-2.398v.011Z" fill="#FFCA11"/><path d="M14.016 6.887c.142 1.249-.723 2.3-2.015 2.486-1.106.142-2.256-.766-2.398-1.818-.143-1.39.624-2.398 1.916-2.54 1.194-.143 2.344.766 2.486 1.872h.011Z" fill="#FF4649"/><path d="M30.88 21.156c1.248-.099 2.256.723 2.343 1.96.099 1.292-.81 2.344-2.058 2.442a2.183 2.183 0 0 1-2.344-2.015c-.098-1.292.767-2.256 2.059-2.398v.011ZM15.746 31.351c0-1.248.953-2.201 2.103-2.201 1.15 0 2.256 1.051 2.256 2.256 0 1.15-.953 2.157-2.06 2.2-1.39 0-2.299-.864-2.299-2.255ZM19.141 17.367c-.197.099-.285-.044-.34-.186-1.773-3.307-1.248-7.468 1.873-9.954.81-.668 2.344-.81 3.012-.143.284.241.339.526.383.865.098.723.24 1.435.723 2.015.525.625 1.193.865 1.96.81.668 0 1.336-.098 1.774.669.24.427.142 2.102-.241 2.442-.186.142-.34.044-.482 0-1.106-.427-2.256-.427-3.395-.241-.383.044-.57-.044-.57-.482-.043-.723-.185-1.39-.569-2.015-.722-1.292-2.058-1.336-2.923-.142-.723.952-.91 2.102-1.106 3.252-.187 1.008-.143 2.059-.099 3.11Z" fill="#F8F8F8"/><path d="M20.345 18.09c-.098-.142-.043-.285.099-.383 2.727-2.486 6.8-2.968 9.954-.526.81.668 1.336 2.059.909 2.869-.186.34-.427.482-.723.57-.668.284-1.292.569-1.719 1.193-.427.624-.526 1.336-.34 2.103.143.624.384 1.292-.24 1.872-.34.34-1.96.624-2.399.34-.186-.143-.142-.285-.098-.482.142-1.194-.143-2.3-.57-3.351-.142-.383-.098-.57.285-.668.668-.197 1.292-.526 1.774-1.008 1.051-1.007.81-2.3-.57-2.869-1.105-.481-2.255-.383-3.35-.284-1.052.043-2.059.34-3.012.624Z" fill="#F8F8F8"/><path d="M19.721 19.338c.142-.142.241-.098.383 0 3.165 1.916 4.786 5.694 3.351 9.385-.383.953-1.631 1.916-2.54 1.675-.384-.098-.57-.284-.767-.525-.427-.57-.909-1.106-1.631-1.336-.767-.241-1.435-.099-2.103.285-.57.339-1.15.766-1.873.339-.427-.241-1.15-1.72-1.007-2.201.098-.186.285-.186.482-.186 1.193-.187 2.157-.767 3.066-1.533.285-.241.526-.241.767.098.383.57.865 1.051 1.489 1.39 1.248.724 2.442.1 2.584-1.335.142-1.194-.285-2.256-.668-3.307a17.975 17.975 0 0 0-1.533-2.727v-.022ZM18.188 19.623c-.186.953-.624 1.872-1.194 2.683-1.719 2.584-4.216 3.635-7.282 3.35-1.106-.098-2.015-1.007-2.102-1.916a1.151 1.151 0 0 1 .284-.952c.34-.428.625-.81.767-1.337.285-1.05-.099-1.916-.865-2.682-1.051-1.052-.91-2.015.34-2.782.142-.098.339-.186.525-.285.285-.142.526-.142.624.187.427 1.106 1.292 1.916 2.256 2.584.34.285.34.482.044.81a3.566 3.566 0 0 0-.953 2.256c-.098 1.051.526 1.72 1.577 1.72.668 0 1.292-.242 1.873-.526 1.489-.767 2.628-1.873 3.734-3.012.142-.044.186-.142.383-.098h-.01ZM10.337 9.57c.098 0 .34.044.57.099 1.773.34 2.868-.285 3.448-1.96.384-1.106 1.194-1.435 2.256-.865.044 0 .044.043.099.043 1.106.625 1.106.723.427 1.676-.57.766-.865 1.632-1.007 2.54-.099.526-.285.625-.767.428-.766-.285-1.577-.285-2.398 0-.91.284-1.292 1.106-1.008 2.014.384 1.194 1.435 1.72 2.344 2.344.909.624 1.96.953 2.967 1.39.143.044.384.044.34.285-.044.143-.241.143-.427.143-2.158.098-4.216-.241-5.892-1.676-1.577-1.292-2.726-2.869-2.54-5.08.142-.724.668-1.25 1.577-1.392l.01.011Z" fill="#F8F8F8"/><path d="M6.405 23.018c-1.15.142-2.3-.81-2.398-2.015-.099-1.15.865-2.3 1.96-2.398 1.249-.143 2.398.723 2.486 1.872.044 1.106-.668 2.442-2.059 2.54h.011ZM26.522 5.978c1.193-.098 2.343.865 2.442 2.059.098 1.15-.865 2.256-2.015 2.343-1.249.099-2.344-.81-2.442-2.015-.099-1.193.766-2.3 2.015-2.398v.011ZM14.016 6.887c.142 1.249-.723 2.3-2.015 2.486-1.106.142-2.256-.766-2.398-1.818-.143-1.39.624-2.398 1.916-2.54 1.194-.143 2.344.766 2.486 1.872h.011Z" fill="#F8F8F8"/></svg>