<svg width="25" height="24" fill="none" xmlns="http://www.w3.org/2000/svg"><g clip-path="url(#a)"><mask id="b" style="mask-type:luminance" maskUnits="userSpaceOnUse" x="0" y="0" width="25" height="24"><path d="M.218 0H24.41v24H.218V0Z" fill="#fff"/></mask><g mask="url(#b)" fill="#787878"><path d="M12.323 0a12.147 12.147 0 0 0-8.558 3.506 11.952 11.952 0 0 0-3.551 8.482 11.951 11.951 0 0 0 3.534 8.489A12.146 12.146 0 0 0 12.298 24a12.146 12.146 0 0 0 8.558-3.506 11.952 11.952 0 0 0 3.551-8.482 11.951 11.951 0 0 0-3.534-8.489A12.146 12.146 0 0 0 12.323 0Zm-.024 22a10.122 10.122 0 0 1-7.129-2.929A9.96 9.96 0 0 1 2.218 12 9.96 9.96 0 0 1 5.17 4.929 10.122 10.122 0 0 1 12.3 2c2.673 0 5.237 1.054 7.128 2.929A9.96 9.96 0 0 1 22.379 12a9.96 9.96 0 0 1-2.952 7.071A10.122 10.122 0 0 1 12.299 22Z"/><path d="M15.565 11.416a2.19 2.19 0 0 0 1.097-2.264c-.186-1.408-1.871-1.936-3.202-2.048V5h-1.307v2.08h-.887V5H9.96v2.08H7.323v1.36h.984c.435 0 .645.128.645.48v5.784c0 .48-.242.632-.5.632h-1v1.376H10v2.136h1.315v-2.136h.887v2.136h1.282v-2.136h.282c2.694 0 3.589-1.312 3.589-3.096a2.309 2.309 0 0 0-.515-1.4 2.341 2.341 0 0 0-1.267-.8h-.008Zm-4.29-2.896h.935c.653 0 1.943.112 1.943 1.168A1.313 1.313 0 0 1 13 11.072h-1.726v-2.56.008Zm1.451 6.688v-.016h-1.452v-2.784h1.686c.387 0 1.87.128 1.87 1.168s-.7 1.632-2.104 1.632Z"/></g></g><defs><clipPath id="a"><path fill="#fff" d="M0 0h25v24H0z"/></clipPath></defs></svg>