<svg width="38" height="38" fill="none" xmlns="http://www.w3.org/2000/svg"><path d="M5.47 13.1c.095-.306.192-.703.27-1.108l.011-.074c-.492.619-.238.745-.281 1.167v.014Zm.886-3.741c.098.8-.604 1.125.154.59.422-.928-.154-.253-.14-.59h-.014Zm13.276-7.06c.368-.07.826-.13 1.29-.166l.046-.004c-.52.043-1.04.071-1.547.141l.211.028ZM31.8 17.345l-.098.21a9.879 9.879 0 0 1-.995 3.166l.026-.055a9.102 9.102 0 0 0 1.05-3.276l.004-.045h.013Zm-15.386 3.35a2.925 2.925 0 0 1-.429-.713l-.008-.019c.151.471.356.882.614 1.252l-.01-.015-.168-.506Zm-.872.042-.07.394a7.917 7.917 0 0 0 1.125 1.42c-.337-.66-.59-.929-1.054-1.829l-.001.015Zm13.894-4.024a5.23 5.23 0 0 1-.548 2.139l.013-.03-.491.253c-.394.76.042.492-.239 1.097a14.317 14.317 0 0 1-2.223 1.796l-.054.034c-.282 0 .197-.352.267-.479-.832.563-.676.844-1.927 1.195l-.043-.084a5.62 5.62 0 0 1-7.386-5.336v-.069.004c-.041.238-.098.182-.168.28a4.992 4.992 0 0 1 2.783-4.908l.029-.013a4.657 4.657 0 0 1 2.124-.504c1.2 0 2.295.447 3.128 1.184l-.005-.005a4.695 4.695 0 0 0-3.72-1.83c-.036 0-.073 0-.11.002h.005a4.314 4.314 0 0 0-3.716 2.186l-.011.021c-.844.534-.942 2.067-1.307 2.336a6.63 6.63 0 0 0 3.312 7.07l.033.017c.38.267.113.295.17.492a6.654 6.654 0 0 1-2.145-1.624l-.007-.008a5.46 5.46 0 0 0 1.116 1.273l.01.007c-.774-.254-1.786-1.829-2.081-1.898 1.307 2.333 5.314 4.106 7.396 3.233a8.705 8.705 0 0 1-3.337-.412l.062.018c-.464-.225-1.082-.716-.985-.8.934.403 2.021.637 3.163.637a8.123 8.123 0 0 0 5.149-1.83l-.015.011c.62-.492 1.308-1.322 1.505-1.335-.282.45.056.225-.17.618.62-1.012-.28-.422.648-1.743l.337.463c-.126-.844 1.04-1.857.928-3.18.267-.422.282.422 0 1.363.408-1.04.113-1.195.21-2.052.113.242.223.536.312.838l.013.048a4.033 4.033 0 0 1 .404-2.273l-.01.024c-.127-.07-.394.422-.45-.745 0-.52.14-.281.196-.394a2.268 2.268 0 0 1-.533-1.199l-.001-.011c.112-.182.31.463.478.478a8.559 8.559 0 0 1-.278-1.48l-.003-.039c-.478-.956-.169.14-.563-.422-.478-1.533.422-.35.478-1.04.6.995 1.076 2.15 1.364 3.377l.016.082a13.407 13.407 0 0 0-.72-2.565l.031.091c.225.098-.366-1.745.295-.52-.906-2.673-2.732-4.831-5.092-6.147l-.056-.028c.253.239.59.548.463.59-1.054-.631-.872-.674-1.026-.94-.857-.352-.913.027-1.49 0a18.218 18.218 0 0 0-3.3-1.303l-.134-.033.07.323c-1.082-.351-1.266.14-2.432 0-.071-.056.379-.197.745-.253-1.042.14-.986-.197-2.012.042.218-.148.471-.298.733-.432l.04-.018c-.844.057-2.024.492-1.66.098a20.041 20.041 0 0 0-5.284 2.835l.052-.037-.04-.31c-.633.76-2.755 2.265-2.924 3.25l-.185.041c-.323.563-.534 1.195-.8 1.773-.423.732-.633.282-.563.394a25.515 25.515 0 0 0-1.584 4.172l-.046.19c.083.777.13 1.68.13 2.593 0 .452-.011.902-.035 1.349l.003-.063c-.004.125-.006.272-.006.42 0 7.59 4.861 14.046 11.64 16.422l.122.037a12.711 12.711 0 0 0 3.523.351l-.023.001c-1.392-.393-1.575-.21-2.924-.688-.985-.45-1.195-.985-1.885-1.589l.282.492c-1.365-.478-.801-.59-1.914-.942l.295-.379a2.588 2.588 0 0 1-1.357-1.126l-.007-.012-.478.013c-.576-.704-.885-1.224-.857-1.632l-.156.281c-.183-.295-2.137-2.673-1.126-2.124a2.303 2.303 0 0 1-.697-.762l-.006-.01.197-.24a3.93 3.93 0 0 1-.866-1.66l-.006-.027c.148.223.367.388.625.463l.008.002c-1.238-3.053-1.308-.169-2.251-3.096l.21-.028a6.464 6.464 0 0 1-.348-.674l-.018-.044.085-.844c-.886-1.04-.253-4.36-.126-6.188.38-1.085.797-2.004 1.284-2.88l-.048.094-.295-.056c.563-.998 3.29-4.038 4.556-3.881.605-.773-.125 0-.253-.197 1.35-1.393 1.772-.985 2.673-1.238.985-.563-.843.225-.379-.212 1.688-.422 1.195-.985 3.403-1.195.225.14-.547.197-.73.366a8.932 8.932 0 0 1 2.702-.411c1.344 0 2.62.291 3.768.813l-.057-.023c2.69 1.434 4.58 4.069 4.959 7.17l.004.044.113.028a13.579 13.579 0 0 1-.254 3.9l.015-.09.281-.59.02.016Zm-9.31-13.98-.211.042.197-.013v-.028h.013Zm-.591-.168c.28.056.632.098.59.169.323-.07.394-.141-.604-.17h.014Zm6.216 13.77c.07-1.014-.197-.704-.281-.31.098.056.182.703.281.309Zm-1.098 2.882c.309-.422.54-.922.656-1.465l.005-.026c-.112.39-.27.732-.473 1.041l.01-.015c-1.055.66-.099-.379 0-.787-1.126 1.42-.155.845-.198 1.252Zm-3.01.745c-.563 0 .112.281.845.394.202-.152.381-.304.55-.466l-.003.002a4.085 4.085 0 0 1-.905.098c-.171 0-.34-.01-.506-.03l.019.002Z" fill="#F8F8F8"/></svg>