<svg xmlns="http://www.w3.org/2000/svg" width="225" height="85" fill="none"><path fill-rule="evenodd" clip-rule="evenodd" d="M57.707 85c12.703 0 23-19.028 23-42.5S70.41 0 57.707 0c-12.702 0-23 19.028-23 42.5s10.298 42.5 23 42.5Zm14.505-13.4c3.975-7.345 6.495-17.63 6.495-29.1 0-11.47-2.52-21.755-6.495-29.1C68.193 5.975 62.975 2 57.707 2 52.44 2 47.221 5.975 43.203 13.4c-3.976 7.345-6.496 17.63-6.496 29.1 0 11.47 2.52 21.755 6.496 29.1C47.22 79.025 52.439 83 57.707 83c5.268 0 10.486-3.975 14.505-11.4Z" fill="#F8F8F8"/><path d="M23.707 1.086V85h-2V5.914L1.414 26.207 0 24.793 23.707 1.086Z" fill="#F8F8F8"/><path fill-rule="evenodd" clip-rule="evenodd" d="M135.707 42.5c0 23.472-10.297 42.5-23 42.5-12.702 0-23-19.028-23-42.5s10.298-42.5 23-42.5c12.703 0 23 19.028 23 42.5Zm-2 0c0 11.47-2.52 21.755-6.495 29.1-4.018 7.425-9.237 11.4-14.505 11.4-5.268 0-10.486-3.975-14.504-11.4-3.976-7.345-6.496-17.63-6.496-29.1 0-11.47 2.52-21.755 6.496-29.1C102.22 5.975 107.439 2 112.707 2c5.268 0 10.487 3.975 14.505 11.4 3.975 7.345 6.495 17.63 6.495 29.1ZM180.273 8.228c-3.794-2.19-8.645-1.298-13.249 1.474-4.638 2.792-9.253 7.606-12.803 13.754-3.549 6.148-5.411 12.551-5.51 17.964-.098 5.373 1.554 10.02 5.349 12.211 3.795 2.191 8.645 1.299 13.249-1.473 4.638-2.792 9.253-7.606 12.803-13.754 3.549-6.148 5.411-12.552 5.51-17.965.099-5.373-1.554-10.02-5.349-12.21Zm-24.32 16.228c3.413-5.912 7.806-10.454 12.102-13.041 4.331-2.607 8.342-3.116 11.218-1.455 2.877 1.66 4.442 5.389 4.349 10.443-.091 5.014-1.829 11.09-5.242 17-3.413 5.912-7.806 10.455-12.102 13.041-4.331 2.607-8.342 3.116-11.218 1.455-2.876-1.66-4.442-5.388-4.349-10.442.092-5.014 1.829-11.09 5.242-17.001Z" fill="#F8F8F8"/><path d="m205.198 7.048-40.235 69.688 1.732 1L206.93 8.048l-1.732-1Z" fill="#F8F8F8"/><path fill-rule="evenodd" clip-rule="evenodd" d="M219.299 30.76c-3.795-2.192-8.646-1.299-13.25 1.473-4.638 2.792-9.253 7.606-12.802 13.754-3.55 6.148-5.411 12.552-5.511 17.964-.098 5.373 1.554 10.02 5.349 12.211 3.795 2.191 8.646 1.299 13.25-1.473 4.638-2.792 9.253-7.606 12.802-13.754 3.55-6.148 5.411-12.552 5.51-17.965.099-5.373-1.553-10.02-5.348-12.21Zm-24.32 16.227c3.413-5.912 7.805-10.454 12.102-13.04 4.33-2.608 8.341-3.116 11.218-1.456 2.876 1.661 4.441 5.389 4.349 10.443-.092 5.014-1.83 11.09-5.243 17-3.413 5.912-7.805 10.455-12.102 13.042-4.33 2.607-8.341 3.115-11.218 1.454-2.876-1.66-4.441-5.388-4.349-10.442.092-5.014 1.83-11.09 5.243-17.001Z" fill="#F8F8F8"/></svg>