<svg width="565" height="106" fill="none" xmlns="http://www.w3.org/2000/svg"><path d="M123.181 18.112h6.645c5.033 0 10.042 1.308 15.025 3.923 4.958 2.572 8.759 6.146 11.402 10.723 2.643 4.577 2.932 8.173.869 10.789-2.013 2.615-5.638 3.923-10.872 3.923-4.279 0-8.495-.85-12.648-2.55a33.53 33.53 0 0 1-10.986-7.258l5.323-3.727c3.851 4.141 8.545 6.212 14.082 6.212 2.97 0 4.958-.654 5.965-1.962 1.031-1.351.893-3.16-.416-5.427-1.284-2.223-3.184-3.988-5.701-5.296-2.542-1.351-5.273-2.027-8.192-2.027h-15.403L106.116.85h29.447l4.077 7.062h-21.443l4.984 10.2ZM164.926 3.008c3.548 2.048 6.166 4.533 7.853 7.454 1.686 2.92 1.938 5.405.755 7.454-1.158 2.005-3.498 3.007-7.022 3.007-3.573 0-7.097-1.002-10.57-3.007-3.549-2.05-6.167-4.534-7.853-7.454-1.662-2.877-1.901-5.34-.718-7.389C148.554 1.024 150.907 0 154.43 0c3.524 0 7.022 1.002 10.496 3.008Zm-1.812 12.161c1.611 0 2.668-.436 3.171-1.307.479-.916.327-2.05-.453-3.4-.78-1.352-1.938-2.485-3.473-3.4-1.536-.916-3.109-1.374-4.719-1.374-1.561 0-2.58.458-3.058 1.374-.478.915-.327 2.048.453 3.4.755 1.307 1.9 2.419 3.436 3.334 1.585.916 3.133 1.373 4.643 1.373Zm11.705 26.809-5.285-2.093 15.438-33.543 5.248 2.027-15.401 33.609Zm31.146 5.427c-3.574 0-7.098-1.003-10.571-3.008-3.549-2.049-6.166-4.533-7.853-7.454-1.661-2.877-1.9-5.34-.717-7.389 1.182-2.048 3.535-3.073 7.059-3.073 3.473 0 6.984 1.025 10.533 3.073 3.549 2.05 6.154 4.512 7.815 7.389 1.686 2.92 1.938 5.405.756 7.454-1.158 2.005-3.499 3.008-7.022 3.008Zm-3.398-5.754c1.611 0 2.668-.436 3.171-1.308.478-.915.327-2.049-.453-3.4-.781-1.351-1.938-2.485-3.474-3.4-1.535-.916-3.108-1.373-4.719-1.373-1.56 0-2.579.457-3.058 1.373-.478.915-.327 2.049.454 3.4.755 1.308 1.9 2.42 3.435 3.335 1.586.915 3.134 1.373 4.644 1.373ZM107.258 76.346h6.645c5.033 0 10.042 1.308 15.025 3.923 4.959 2.572 8.759 6.147 11.402 10.724 2.643 4.577 2.933 8.173.869 10.788-2.013 2.616-5.637 3.923-10.872 3.923-4.279 0-8.495-.85-12.647-2.55a33.522 33.522 0 0 1-10.987-7.257l5.323-3.728c3.851 4.142 8.545 6.212 14.082 6.212 2.97 0 4.958-.654 5.965-1.961 1.031-1.352.893-3.16-.416-5.427-1.284-2.224-3.184-3.989-5.701-5.297-2.542-1.351-5.273-2.027-8.192-2.027h-15.403L90.193 59.084h29.447l4.078 7.062h-21.444l4.984 10.2ZM149.003 61.242c3.549 2.049 6.166 4.533 7.853 7.454 1.686 2.92 1.938 5.405.755 7.454-1.157 2.005-3.498 3.008-7.021 3.008-3.574 0-7.098-1.003-10.571-3.008-3.549-2.049-6.167-4.533-7.853-7.454-1.661-2.877-1.901-5.34-.718-7.389 1.183-2.048 3.536-3.073 7.06-3.073 3.523 0 7.022 1.003 10.495 3.008Zm-1.811 12.162c1.61 0 2.667-.436 3.171-1.308.478-.915.327-2.049-.454-3.4-.78-1.351-1.938-2.485-3.473-3.4-1.535-.916-3.108-1.373-4.719-1.373-1.561 0-2.58.457-3.058 1.373-.478.915-.327 2.049.453 3.4.755 1.308 1.901 2.42 3.436 3.335 1.586.915 3.133 1.373 4.644 1.373Zm11.704 26.808-5.285-2.092 15.438-33.543 5.248 2.027-15.401 33.608Zm31.146 5.427c-3.574 0-7.097-1.003-10.571-3.008-3.549-2.048-6.166-4.533-7.853-7.454-1.661-2.877-1.9-5.34-.717-7.388 1.182-2.05 3.536-3.073 7.059-3.073 3.473 0 6.984 1.024 10.533 3.073 3.549 2.049 6.154 4.511 7.815 7.388 1.687 2.92 1.938 5.406.756 7.454-1.158 2.005-3.498 3.008-7.022 3.008Zm-3.398-5.754c1.611 0 2.668-.436 3.171-1.308.478-.915.327-2.048-.453-3.4-.78-1.351-1.938-2.484-3.474-3.4-1.535-.915-3.108-1.373-4.719-1.373-1.56 0-2.579.458-3.057 1.373-.479.916-.328 2.049.453 3.4.755 1.308 1.9 2.42 3.435 3.335 1.586.915 3.134 1.373 4.644 1.373Z" fill="#000" fill-opacity=".29"/><path d="M212.256 76.346h6.645c5.033 0 10.042 1.308 15.025 3.924 4.959 2.571 8.759 6.146 11.402 10.723 2.643 4.577 2.933 8.173.869 10.789-2.013 2.615-5.637 3.923-10.872 3.923-4.279 0-8.495-.85-12.647-2.55a33.525 33.525 0 0 1-10.987-7.258l5.323-3.727c3.851 4.14 8.545 6.212 14.082 6.212 2.97 0 4.958-.654 5.965-1.962 1.032-1.351.893-3.16-.416-5.427-1.284-2.223-3.184-3.989-5.701-5.296-2.542-1.352-5.273-2.027-8.192-2.027h-15.403l-12.158-24.586h29.447l4.078 7.062h-21.443l4.983 10.2ZM254.001 61.242c3.549 2.049 6.166 4.534 7.853 7.454 1.686 2.92 1.938 5.406.755 7.454-1.157 2.005-3.498 3.008-7.021 3.008-3.574 0-7.098-1.003-10.571-3.008-3.549-2.049-6.167-4.533-7.853-7.454-1.661-2.877-1.901-5.34-.718-7.388 1.183-2.05 3.536-3.074 7.06-3.074 3.523 0 7.022 1.003 10.495 3.008Zm-1.811 12.162c1.61 0 2.667-.436 3.171-1.308.478-.915.327-2.048-.454-3.4-.78-1.351-1.938-2.484-3.473-3.4-1.535-.915-3.108-1.373-4.719-1.373-1.561 0-2.58.458-3.058 1.373-.478.916-.327 2.049.453 3.4.755 1.308 1.901 2.42 3.436 3.335 1.586.915 3.133 1.373 4.644 1.373Zm11.704 26.808-5.285-2.092 15.438-33.543 5.248 2.027-15.401 33.608Zm31.146 5.427c-3.574 0-7.097-1.002-10.571-3.007-3.548-2.049-6.166-4.534-7.853-7.455-1.661-2.876-1.9-5.34-.717-7.388 1.182-2.049 3.536-3.073 7.059-3.073 3.473 0 6.984 1.024 10.533 3.073 3.549 2.049 6.154 4.512 7.815 7.388 1.687 2.921 1.939 5.406.756 7.455-1.158 2.005-3.498 3.007-7.022 3.007Zm-3.398-5.754c1.611 0 2.668-.436 3.171-1.307.478-.916.327-2.05-.453-3.4-.78-1.352-1.938-2.485-3.474-3.4-1.535-.916-3.108-1.374-4.719-1.374-1.56 0-2.579.458-3.057 1.374-.479.915-.327 2.048.453 3.4.755 1.307 1.9 2.419 3.435 3.334 1.586.916 3.134 1.373 4.644 1.373Z" fill="#000"/><path d="M317.254 76.346h6.644c5.034 0 10.042 1.308 15.026 3.923 4.958 2.572 8.759 6.147 11.402 10.724 2.643 4.577 2.932 8.173.869 10.788-2.014 2.616-5.638 3.923-10.873 3.923-4.278 0-8.494-.85-12.647-2.55a33.507 33.507 0 0 1-10.986-7.257l5.323-3.728c3.851 4.142 8.545 6.212 14.082 6.212 2.969 0 4.958-.654 5.964-1.961 1.032-1.352.894-3.16-.415-5.427-1.284-2.224-3.184-3.989-5.701-5.297-2.542-1.351-5.273-2.027-8.193-2.027h-15.402l-12.158-24.585h29.447l4.077 7.062H312.27l4.984 10.2ZM358.998 61.242c3.549 2.049 6.167 4.533 7.853 7.454 1.687 2.92 1.939 5.405.756 7.454-1.158 2.005-3.498 3.008-7.022 3.008-3.574 0-7.097-1.003-10.571-3.008-3.548-2.049-6.166-4.533-7.852-7.454-1.662-2.877-1.901-5.34-.718-7.389 1.183-2.048 3.536-3.073 7.059-3.073 3.524 0 7.022 1.003 10.495 3.008Zm-1.811 12.162c1.611 0 2.668-.436 3.171-1.308.478-.915.327-2.049-.453-3.4s-1.938-2.485-3.473-3.4c-1.536-.916-3.109-1.373-4.72-1.373-1.56 0-2.579.457-3.057 1.373-.478.915-.327 2.049.453 3.4.755 1.308 1.9 2.42 3.436 3.335 1.585.915 3.133 1.373 4.643 1.373Zm11.705 26.808-5.285-2.092 15.438-33.543 5.248 2.027-15.401 33.608Zm31.146 5.427c-3.574 0-7.098-1.003-10.571-3.008-3.549-2.048-6.167-4.533-7.853-7.454-1.661-2.877-1.901-5.34-.718-7.388 1.183-2.05 3.536-3.073 7.06-3.073 3.473 0 6.984 1.024 10.533 3.073 3.548 2.049 6.154 4.511 7.815 7.388 1.686 2.92 1.938 5.406.755 7.454-1.157 2.005-3.498 3.008-7.021 3.008Zm-3.398-5.754c1.61 0 2.667-.436 3.171-1.308.478-.915.327-2.048-.454-3.4-.78-1.351-1.938-2.484-3.473-3.4-1.535-.915-3.108-1.373-4.719-1.373-1.56 0-2.58.458-3.058 1.373-.478.916-.327 2.049.453 3.4.756 1.308 1.901 2.42 3.436 3.335 1.586.915 3.134 1.373 4.644 1.373ZM330.817 18.112h6.644c5.034 0 10.042 1.308 15.026 3.923 4.958 2.572 8.759 6.146 11.402 10.723 2.643 4.577 2.932 8.174.869 10.789-2.014 2.616-5.638 3.923-10.873 3.923-4.278 0-8.494-.85-12.647-2.55a33.51 33.51 0 0 1-10.986-7.258l5.323-3.727c3.851 4.141 8.545 6.212 14.082 6.212 2.969 0 4.958-.654 5.964-1.962 1.032-1.35.894-3.16-.415-5.427-1.284-2.223-3.184-3.988-5.701-5.296-2.542-1.351-5.273-2.027-8.193-2.027H325.91L313.752.85h29.447l4.077 7.062h-21.443l4.984 10.2ZM372.561 3.008c3.549 2.049 6.167 4.533 7.853 7.454 1.687 2.92 1.939 5.405.756 7.454-1.158 2.005-3.498 3.008-7.022 3.008-3.574 0-7.097-1.003-10.571-3.008-3.548-2.049-6.166-4.534-7.852-7.454-1.662-2.877-1.901-5.34-.718-7.389C356.19 1.024 358.543 0 362.066 0c3.524 0 7.022 1.003 10.495 3.008ZM370.75 15.17c1.611 0 2.668-.436 3.171-1.308.478-.916.327-2.049-.453-3.4-.78-1.352-1.938-2.485-3.473-3.4-1.536-.916-3.109-1.373-4.72-1.373-1.56 0-2.579.457-3.057 1.373-.479.915-.327 2.048.453 3.4.755 1.308 1.9 2.419 3.436 3.334 1.585.916 3.133 1.373 4.643 1.373Zm11.705 26.808-5.285-2.093 15.438-33.543 5.248 2.027-15.401 33.609Zm31.146 5.427c-3.574 0-7.098-1.003-10.571-3.008-3.549-2.049-6.167-4.533-7.853-7.454-1.661-2.877-1.901-5.34-.718-7.389 1.183-2.048 3.536-3.073 7.06-3.073 3.473 0 6.984 1.025 10.533 3.073 3.548 2.05 6.154 4.512 7.815 7.39 1.686 2.92 1.938 5.404.755 7.453-1.157 2.005-3.498 3.008-7.021 3.008Zm-3.398-5.754c1.61 0 2.667-.436 3.171-1.308.478-.915.327-2.049-.454-3.4-.78-1.351-1.938-2.485-3.473-3.4s-3.108-1.373-4.719-1.373c-1.56 0-2.58.458-3.058 1.373-.478.915-.327 2.049.453 3.4.755 1.308 1.901 2.42 3.436 3.335 1.586.915 3.134 1.373 4.644 1.373Z" fill="#000" fill-opacity=".29"/><path d="M422.252 76.346h6.644c5.033 0 10.042 1.308 15.025 3.923 4.959 2.572 8.759 6.147 11.402 10.724 2.643 4.577 2.933 8.173.869 10.788-2.013 2.616-5.637 3.923-10.872 3.923-4.279 0-8.494-.85-12.647-2.55a33.523 33.523 0 0 1-10.987-7.257l5.323-3.727c3.851 4.14 8.545 6.211 14.082 6.211 2.97 0 4.958-.654 5.965-1.961 1.032-1.352.893-3.16-.416-5.427-1.283-2.224-3.184-3.989-5.701-5.297-2.542-1.35-5.272-2.027-8.192-2.027h-15.403l-12.157-24.585h29.446l4.078 7.062h-21.443l4.984 10.2ZM463.996 61.242c3.549 2.049 6.166 4.533 7.853 7.454 1.686 2.92 1.938 5.405.755 7.454-1.157 2.005-3.498 3.008-7.021 3.008-3.574 0-7.098-1.003-10.571-3.008-3.549-2.049-6.166-4.533-7.853-7.454-1.661-2.877-1.9-5.34-.718-7.389 1.183-2.048 3.536-3.073 7.06-3.073 3.523 0 7.022 1.003 10.495 3.008Zm-1.811 12.162c1.61 0 2.667-.436 3.171-1.308.478-.915.327-2.049-.453-3.4-.781-1.351-1.939-2.485-3.474-3.4-1.535-.915-3.108-1.373-4.719-1.373-1.56 0-2.58.458-3.058 1.373-.478.915-.327 2.049.453 3.4.756 1.308 1.901 2.42 3.436 3.335 1.586.915 3.134 1.373 4.644 1.373Zm11.704 26.808-5.285-2.092 15.438-33.543 5.248 2.027-15.401 33.608Zm31.146 5.427c-3.574 0-7.097-1.002-10.571-3.008-3.548-2.048-6.166-4.533-7.852-7.454-1.662-2.877-1.901-5.34-.718-7.388 1.183-2.049 3.536-3.073 7.059-3.073 3.473 0 6.984 1.024 10.533 3.073 3.549 2.049 6.154 4.511 7.815 7.388 1.687 2.92 1.939 5.406.756 7.454-1.158 2.006-3.498 3.008-7.022 3.008Zm-3.398-5.754c1.611 0 2.668-.436 3.171-1.308.478-.915.327-2.048-.453-3.4-.78-1.35-1.938-2.484-3.473-3.4-1.536-.915-3.109-1.373-4.719-1.373-1.561 0-2.58.458-3.058 1.373-.478.916-.327 2.05.453 3.4.755 1.308 1.9 2.42 3.436 3.335 1.585.915 3.133 1.373 4.643 1.373ZM435.815 18.112h6.644c5.034 0 10.042 1.308 15.026 3.923 4.958 2.572 8.759 6.146 11.402 10.723 2.643 4.577 2.932 8.174.869 10.79-2.014 2.614-5.638 3.922-10.873 3.922-4.278 0-8.494-.85-12.647-2.55a33.51 33.51 0 0 1-10.986-7.258l5.323-3.727c3.851 4.142 8.545 6.212 14.082 6.212 2.969 0 4.958-.654 5.964-1.962 1.032-1.35.894-3.16-.415-5.427-1.284-2.223-3.184-3.988-5.701-5.296-2.542-1.351-5.273-2.027-8.192-2.027h-15.403L418.75.85h29.447l4.077 7.062h-21.443l4.984 10.2ZM477.559 3.008c3.549 2.049 6.167 4.533 7.853 7.454 1.687 2.92 1.939 5.405.756 7.454-1.158 2.005-3.498 3.008-7.022 3.008-3.574 0-7.097-1.003-10.571-3.008-3.548-2.049-6.166-4.534-7.852-7.454-1.662-2.877-1.901-5.34-.718-7.389C461.188 1.024 463.541 0 467.064 0c3.524 0 7.022 1.003 10.495 3.008Zm-1.811 12.162c1.611 0 2.668-.436 3.171-1.308.478-.915.327-2.049-.453-3.4s-1.938-2.485-3.473-3.4c-1.536-.916-3.109-1.373-4.719-1.373-1.561 0-2.58.457-3.058 1.373-.478.915-.327 2.048.453 3.4.755 1.308 1.9 2.42 3.436 3.335 1.585.915 3.133 1.373 4.643 1.373Zm11.705 26.808-5.285-2.093 15.438-33.542 5.248 2.026-15.401 33.609Zm31.146 5.427c-3.574 0-7.098-1.003-10.571-3.008-3.549-2.049-6.167-4.533-7.853-7.454-1.661-2.877-1.9-5.34-.718-7.388 1.183-2.05 3.536-3.074 7.06-3.074 3.473 0 6.984 1.025 10.533 3.073 3.549 2.05 6.154 4.512 7.815 7.39 1.686 2.92 1.938 5.404.755 7.453-1.157 2.005-3.498 3.008-7.021 3.008Zm-3.398-5.754c1.61 0 2.667-.436 3.171-1.308.478-.915.327-2.049-.454-3.4-.78-1.351-1.938-2.485-3.473-3.4s-3.108-1.373-4.719-1.373c-1.56 0-2.58.458-3.058 1.373-.478.915-.327 2.049.453 3.4.756 1.308 1.901 2.42 3.436 3.335 1.586.915 3.134 1.373 4.644 1.373ZM227 18.112h6.644c5.034 0 10.042 1.308 15.025 3.923 4.959 2.572 8.759 6.146 11.402 10.723 2.643 4.577 2.933 8.174.869 10.789-2.013 2.616-5.637 3.923-10.872 3.923-4.279 0-8.494-.85-12.647-2.55a33.51 33.51 0 0 1-10.986-7.258l5.322-3.727c3.851 4.141 8.545 6.212 14.082 6.212 2.97 0 4.958-.654 5.965-1.962 1.032-1.35.893-3.16-.416-5.427-1.283-2.223-3.184-3.988-5.701-5.296-2.542-1.351-5.272-2.027-8.192-2.027h-15.403L209.935.85h29.446l4.078 7.062h-21.443l4.984 10.2ZM268.744 3.008c3.549 2.049 6.166 4.533 7.853 7.454 1.686 2.92 1.938 5.405.755 7.454-1.157 2.005-3.498 3.008-7.021 3.008-3.574 0-7.098-1.003-10.571-3.008-3.549-2.049-6.166-4.534-7.853-7.454-1.661-2.877-1.9-5.34-.718-7.389C252.372 1.024 254.725 0 258.249 0c3.523 0 7.022 1.003 10.495 3.008Zm-1.811 12.162c1.61 0 2.667-.436 3.171-1.308.478-.916.327-2.049-.453-3.4-.781-1.352-1.939-2.485-3.474-3.4-1.535-.916-3.108-1.373-4.719-1.373-1.56 0-2.58.457-3.058 1.373-.478.915-.327 2.048.453 3.4.756 1.308 1.901 2.419 3.436 3.334 1.586.916 3.134 1.373 4.644 1.373Zm11.705 26.808-5.286-2.093 15.439-33.543 5.247 2.027-15.4 33.609Zm31.145 5.427c-3.574 0-7.097-1.003-10.57-3.008-3.549-2.049-6.167-4.533-7.853-7.454-1.662-2.877-1.901-5.34-.718-7.389 1.183-2.048 3.536-3.073 7.059-3.073 3.473 0 6.984 1.025 10.533 3.073 3.549 2.05 6.154 4.512 7.815 7.39 1.687 2.92 1.939 5.404.756 7.453-1.158 2.005-3.498 3.008-7.022 3.008Zm-3.398-5.754c1.611 0 2.668-.436 3.171-1.308.478-.915.327-2.049-.453-3.4s-1.938-2.485-3.473-3.4c-1.536-.915-3.109-1.373-4.719-1.373-1.561 0-2.58.458-3.058 1.373-.478.915-.327 2.049.453 3.4.755 1.308 1.9 2.42 3.436 3.335 1.585.915 3.133 1.373 4.643 1.373ZM22.313 18.112h6.644c5.033 0 10.042 1.308 15.025 3.923 4.959 2.572 8.76 6.146 11.402 10.723 2.643 4.578 2.933 8.174.87 10.79-2.014 2.615-5.638 3.922-10.873 3.922-4.279 0-8.494-.85-12.647-2.55a33.517 33.517 0 0 1-10.987-7.258l5.323-3.727c3.851 4.142 8.545 6.212 14.082 6.212 2.97 0 4.958-.654 5.965-1.961 1.032-1.352.893-3.16-.416-5.428-1.283-2.223-3.184-3.988-5.7-5.296-2.543-1.351-5.273-2.027-8.193-2.027H17.405L5.248.85h29.446l4.078 7.062H17.329l4.984 10.2ZM64.057 3.008c3.549 2.049 6.166 4.533 7.853 7.454 1.686 2.92 1.938 5.405.755 7.454-1.157 2.005-3.498 3.008-7.021 3.008-3.574 0-7.098-1.003-10.571-3.008-3.549-2.049-6.166-4.534-7.853-7.454-1.661-2.877-1.9-5.34-.718-7.389C47.685 1.025 50.038 0 53.562 0c3.523 0 7.022 1.003 10.495 3.008ZM62.246 15.17c1.61 0 2.667-.436 3.17-1.308.479-.915.328-2.049-.453-3.4-.78-1.351-1.938-2.485-3.473-3.4-1.535-.916-3.108-1.373-4.719-1.373-1.56 0-2.58.457-3.058 1.373-.478.915-.327 2.049.453 3.4.756 1.308 1.9 2.42 3.436 3.335 1.586.915 3.134 1.373 4.644 1.373ZM73.95 41.978l-5.286-2.092L84.103 6.343l5.248 2.027-15.4 33.608Zm31.145 5.427c-3.574 0-7.097-1.003-10.57-3.008-3.55-2.048-6.167-4.533-7.853-7.454-1.662-2.877-1.9-5.34-.718-7.388 1.183-2.05 3.536-3.073 7.06-3.073 3.472 0 6.984 1.024 10.532 3.073 3.549 2.048 6.154 4.511 7.815 7.388 1.687 2.92 1.939 5.406.756 7.454-1.158 2.005-3.498 3.008-7.022 3.008Zm-3.398-5.754c1.611 0 2.668-.436 3.171-1.308.478-.915.327-2.049-.453-3.4s-1.938-2.484-3.473-3.4c-1.536-.915-3.109-1.373-4.72-1.373-1.56 0-2.58.458-3.057 1.373-.478.916-.327 2.049.453 3.4.755 1.308 1.9 2.42 3.436 3.335 1.585.915 3.133 1.373 4.643 1.373Z" fill="#000"/></svg>