<svg width="359" height="286" fill="none" xmlns="http://www.w3.org/2000/svg"><rect width="161.54" height="58.161" rx="10" transform="scale(1.22477 .70707) rotate(45 -115.619 204.726)" fill="#232323"/><path d="m134.729 142.149-14.875-8.588 2.501-1.444 16.422-.095c4.344 0 7.295-.449 8.853-1.349 1.273-.734 1.876-1.538 1.81-2.412-.022-.874-.614-1.647-1.777-2.318-2.172-1.254-4.783-1.571-7.833-.95l-1.053-2.356c2.172-.443 4.279-.519 6.319-.228 2.062.279 3.894.88 5.496 1.805 1.953 1.127 2.995 2.463 3.126 4.009.132 1.57-.866 2.97-2.994 4.198-2.326 1.343-6.231 2.014-11.716 2.014l-11.749-.019 10.432 6.023-2.962 1.71Zm20.619-4.322 3.357 1.938c2.172 1.254 3.357 2.685 3.554 4.294.22 1.621-.789 3.078-3.027 4.37-2.26 1.304-4.794 1.88-7.602 1.728-2.853-.152-5.365-.855-7.537-2.108-1.799-1.039-2.962-2.204-3.488-3.496-.483-1.292-.209-2.54.823-3.743l4.08.646c-.789.811-1.042 1.64-.757 2.489.286.848 1.065 1.64 2.337 2.375 1.47.848 3.017 1.311 4.64 1.387 1.668.076 3.16-.266 4.476-1.026 1.316-.76 1.909-1.622 1.777-2.584-.11-.95-.877-1.837-2.304-2.66l-6.516-3.762 12.802-6.403 12.605 7.277-2.864 1.653-9.84-5.681-6.516 3.306Zm21.127 20.062 2.798 1.615-2.864 1.653-2.797-1.615-4.377 2.527-3.06-1.767 4.377-2.527-11.749-6.782 2.863-1.653 24.057-4.351 3.291 1.9-24.057 4.351 8.458 4.883 6.516-3.762 3.06 1.767-6.516 3.761Zm15.832 1.275 3.357 1.938c2.172 1.254 3.357 2.685 3.554 4.293.22 1.622-.789 3.078-3.027 4.37-2.26 1.305-4.794 1.881-7.602 1.729-2.853-.152-5.365-.855-7.537-2.109-1.799-1.038-2.962-2.204-3.488-3.496-.483-1.291-.209-2.539.823-3.742l4.08.646c-.789.81-1.042 1.64-.757 2.489.286.848 1.065 1.64 2.337 2.374 1.47.849 3.017 1.311 4.64 1.387 1.668.076 3.16-.266 4.476-1.026 1.316-.76 1.909-1.621 1.777-2.584-.11-.949-.877-1.836-2.304-2.659l-6.516-3.762 12.802-6.403 12.605 7.277-2.864 1.653-9.84-5.681-6.516 3.306Zm27.051 21.658-5.298-3.059-2.666 1.539 8.161 4.712-2.237 1.292-8.162-4.712-3.916 2.261-3.028-1.748 3.916-2.261-2.797-1.615 2.238-1.292 2.797 1.615 2.666-1.539-2.797-1.615 2.764-1.596 2.797 1.615 11.453-6.611 8.326 4.807c1.996 1.152 2.995 2.539 2.995 4.16.022 1.609-.955 2.983-2.929 4.123-1.975 1.14-4.355 1.704-7.142 1.691-2.764-.025-5.144-.614-7.141-1.767Zm11.354-6.555-5.299-3.058-8.589 4.958 5.298 3.059c1.119.646 2.513.969 4.18.969 1.711-.025 3.148-.374 4.311-1.045 1.207-.696 1.81-1.513 1.81-2.451 0-.962-.57-1.773-1.711-2.432Z" fill="#fff"/><rect width="115.264" height="58.161" rx="10" transform="matrix(.86604 .49997 -.86604 .49997 221.407 0)" fill="#232323"/><path d="M226.873 31.979c1.163 2.09.494 3.856-2.007 5.3-2.106 1.216-4.498 1.748-7.175 1.596a16.994 16.994 0 0 1-7.47-2.26c-2.304-1.33-3.598-2.762-3.883-4.294-.264-1.546.658-2.926 2.764-4.142 2.501-1.444 5.562-1.83 9.182-1.16-.702-1.772.033-3.286 2.205-4.54 2.084-1.203 4.377-1.729 6.878-1.577 2.545.152 4.794.792 6.746 1.92 1.997 1.152 3.105 2.45 3.324 3.894.285 1.456-.614 2.786-2.698 3.99-2.172 1.254-4.794 1.678-7.866 1.273Zm4.311-7.467a8.657 8.657 0 0 0-3.916-1.159c-1.382-.063-2.655.24-3.817.912-1.141.659-1.657 1.4-1.547 2.223.11.823.757 1.577 1.942 2.26 1.184.685 2.49 1.058 3.916 1.122 1.426.063 2.709-.235 3.85-.893 1.163-.672 1.69-1.406 1.58-2.204-.11-.798-.779-1.552-2.008-2.261ZM213.15 34.923c1.492.862 3.028 1.343 4.607 1.444 1.58.102 3.006-.215 4.279-.95 1.25-.722 1.788-1.539 1.612-2.45-.175-.912-1.009-1.8-2.501-2.66-1.47-.849-2.995-1.324-4.574-1.425-1.58-.102-2.995.209-4.246.93-1.272.735-1.821 1.559-1.645 2.47.175.913.998 1.793 2.468 2.641Zm30.119 11.917 2.798 1.615-2.863 1.653-2.798-1.615-4.377 2.527-3.06-1.767 4.377-2.527-11.749-6.783 2.863-1.653 24.057-4.35 3.291 1.9-24.057 4.35 8.458 4.883 6.516-3.762 3.061 1.767-6.517 3.762Zm25.014 12.617-5.298-3.06-2.666 1.54 8.162 4.712-2.238 1.291-8.162-4.711-3.916 2.26-3.028-1.747 3.917-2.261-2.798-1.615 2.238-1.292 2.797 1.615 2.666-1.54-2.797-1.614 2.764-1.596 2.798 1.615 11.452-6.612 8.326 4.807c1.997 1.153 2.995 2.54 2.995 4.16.022 1.61-.954 2.984-2.929 4.124-1.975 1.14-4.355 1.703-7.141 1.69-2.765-.025-5.145-.614-7.142-1.766Zm11.354-6.555-5.298-3.059-8.59 4.959 5.299 3.059c1.119.646 2.512.969 4.179.969 1.711-.026 3.149-.374 4.311-1.045 1.207-.697 1.81-1.514 1.81-2.451 0-.963-.57-1.773-1.711-2.432Z" fill="#fff"/><rect width="135.356" height="58.161" rx="10" transform="scale(1.22477 .70707) rotate(45 11.988 53.195)" fill="#232323"/><path d="M54.46 32.56c2.304 1.33 3.478 2.843 3.522 4.54.066 1.685-1.042 3.186-3.324 4.503-2.282 1.317-4.892 1.963-7.832 1.938-2.94-.025-5.562-.703-7.866-2.033-2.347-1.355-3.532-2.875-3.554-4.56-.022-1.684 1.108-3.185 3.39-4.502 1.799-1.04 3.795-1.66 5.99-1.862l18.494-2.128 3.489 2.014-13.46 1.5c.702.355 1.086.552 1.152.59Zm-2.928 1.69c-1.47-.848-3.094-1.279-4.871-1.292-1.777-.012-3.39.4-4.838 1.235-1.448.836-2.172 1.774-2.172 2.812.044 1.039.79 1.976 2.238 2.812 1.448.836 3.06 1.26 4.838 1.273 1.82.013 3.455-.399 4.903-1.235 1.448-.836 2.15-1.773 2.107-2.812-.022-1.026-.757-1.957-2.205-2.793Zm20.194 17.32 2.797 1.615-2.863 1.653-2.798-1.615-4.377 2.527-3.06-1.767 4.377-2.527-11.749-6.783 2.863-1.652 24.057-4.351 3.291 1.9-24.057 4.35 8.458 4.883 6.516-3.762 3.06 1.767-6.516 3.762Zm12.15 15.374L69 58.356l2.502-1.444 16.422-.094c4.343 0 7.294-.45 8.852-1.35 1.273-.734 1.876-1.538 1.81-2.412-.022-.874-.614-1.647-1.777-2.318-2.172-1.254-4.783-1.57-7.832-.95l-1.053-2.356c2.171-.443 4.278-.52 6.318-.228 2.062.279 3.894.88 5.496 1.805 1.953 1.127 2.995 2.463 3.126 4.009.132 1.57-.866 2.97-2.994 4.199-2.326 1.342-6.231 2.013-11.716 2.013l-11.749-.019 10.433 6.023-2.962 1.71Zm30.057 7.17-5.298-3.06-2.666 1.54 8.162 4.711-2.238 1.292-8.162-4.712-3.916 2.261-3.028-1.748 3.917-2.26-2.798-1.616 2.238-1.292 2.798 1.615 2.665-1.539-2.797-1.614 2.764-1.596 2.798 1.614 11.452-6.611 8.326 4.807c1.997 1.152 2.995 2.54 2.995 4.16.022 1.609-.954 2.983-2.929 4.123-1.974 1.14-4.355 1.704-7.141 1.691-2.765-.025-5.145-.614-7.142-1.767Zm11.354-6.556-5.298-3.058-8.59 4.958 5.299 3.06c1.119.645 2.512.968 4.179.968 1.712-.025 3.149-.374 4.311-1.045 1.207-.696 1.81-1.513 1.81-2.45 0-.963-.57-1.774-1.711-2.433Z" fill="#fff"/><rect width="140.644" height="58.161" rx="10" transform="scale(1.22477 .70707) rotate(45 -90.605 394.061)" fill="#232323"/><path d="m308.585 169.379-14.875-8.588 2.501-1.444 16.422-.095c4.344 0 7.295-.45 8.853-1.349 1.273-.734 1.876-1.539 1.81-2.413-.022-.874-.614-1.646-1.777-2.318-2.172-1.254-4.783-1.57-7.833-.95l-1.053-2.355c2.172-.444 4.279-.52 6.319-.228 2.062.278 3.894.88 5.496 1.805 1.952 1.127 2.995 2.463 3.126 4.008.132 1.571-.866 2.97-2.995 4.199-2.325 1.343-6.23 2.014-11.715 2.014l-11.749-.019 10.432 6.023-2.962 1.71Zm17.355 10.019-14.875-8.588 2.501-1.444 16.422-.095c4.344 0 7.295-.45 8.853-1.349 1.272-.734 1.876-1.539 1.81-2.413-.022-.874-.615-1.646-1.777-2.318-2.172-1.254-4.783-1.57-7.833-.95l-1.053-2.355c2.172-.444 4.278-.52 6.319-.228 2.062.278 3.894.88 5.496 1.805 1.952 1.127 2.994 2.463 3.126 4.008.132 1.571-.867 2.97-2.995 4.199-2.325 1.343-6.231 2.014-11.716 2.014l-11.748-.019 10.432 6.023-2.962 1.71Zm17.355 10.018-14.875-8.587 2.501-1.444 16.422-.095c4.344 0 7.295-.45 8.852-1.349 1.273-.735 1.876-1.539 1.81-2.413-.022-.874-.614-1.646-1.777-2.318-2.172-1.254-4.783-1.57-7.832-.95l-1.053-2.355c2.172-.444 4.278-.52 6.318-.228 2.063.278 3.895.88 5.496 1.804 1.953 1.128 2.995 2.464 3.127 4.009.131 1.571-.867 2.97-2.995 4.199-2.326 1.343-6.231 2.014-11.716 2.014l-11.749-.019 10.433 6.023-2.962 1.709Zm30.058 7.17-5.299-3.059-2.666 1.539 8.162 4.711-2.238 1.292-8.161-4.711-3.917 2.261-3.027-1.748 3.916-2.261-2.797-1.615 2.237-1.292 2.798 1.615 2.665-1.539-2.797-1.615 2.764-1.596 2.798 1.615 11.452-6.612 8.326 4.807c1.997 1.153 2.995 2.54 2.995 4.161.022 1.608-.954 2.983-2.929 4.123-1.974 1.14-4.355 1.703-7.141 1.691-2.765-.026-5.145-.615-7.141-1.767Zm11.353-6.555-5.298-3.059-8.59 4.959 5.299 3.059c1.119.646 2.512.969 4.179.969 1.712-.026 3.149-.374 4.312-1.045 1.206-.697 1.81-1.514 1.81-2.451 0-.963-.571-1.773-1.712-2.432Z" fill="#fff"/><rect width="138.529" height="58.161" rx="10" transform="scale(1.22477 .70707) rotate(45 -281.18 222.5)" fill="#232323"/><path d="m89.427 227.853-14.875-8.588 2.5-1.444 16.423-.095c4.344 0 7.295-.449 8.852-1.349 1.273-.734 1.876-1.539 1.81-2.412-.022-.874-.614-1.647-1.777-2.318-2.172-1.254-4.783-1.571-7.832-.95l-1.053-2.356c2.172-.443 4.278-.519 6.318-.228 2.063.279 3.895.88 5.496 1.805 1.953 1.127 2.995 2.463 3.127 4.009.131 1.57-.867 2.97-2.995 4.198-2.326 1.343-6.231 2.014-11.716 2.014l-11.749-.019 10.433 6.023-2.962 1.71Zm26.474 1.528c1.163 2.09.494 3.857-2.007 5.301-2.106 1.216-4.498 1.748-7.175 1.596a16.99 16.99 0 0 1-7.47-2.261c-2.304-1.33-3.598-2.761-3.883-4.294-.264-1.545.658-2.925 2.764-4.141 2.501-1.444 5.562-1.831 9.182-1.159-.702-1.774.033-3.287 2.205-4.541 2.084-1.203 4.377-1.729 6.878-1.577 2.545.152 4.794.792 6.746 1.919 1.997 1.153 3.105 2.451 3.324 3.895.285 1.456-.614 2.786-2.698 3.99-2.172 1.253-4.794 1.678-7.866 1.272Zm4.311-7.466a8.653 8.653 0 0 0-3.916-1.159c-1.382-.063-2.655.241-3.817.912-1.141.659-1.657 1.399-1.547 2.223.11.823.757 1.577 1.942 2.261 1.184.684 2.49 1.057 3.916 1.121 1.426.063 2.709-.235 3.85-.893 1.163-.672 1.69-1.406 1.58-2.204-.11-.798-.779-1.552-2.008-2.261Zm-18.034 10.411c1.492.862 3.028 1.343 4.607 1.444 1.58.102 3.006-.215 4.279-.95 1.25-.722 1.788-1.539 1.612-2.451-.175-.912-1.009-1.798-2.501-2.659-1.47-.849-2.995-1.324-4.574-1.425-1.58-.102-2.995.209-4.246.931-1.272.734-1.82 1.557-1.645 2.469.175.912.998 1.793 2.468 2.641Zm30.119 11.917 2.798 1.615-2.863 1.653-2.798-1.615-4.377 2.527-3.06-1.767 4.377-2.527-11.749-6.783 2.863-1.653 24.057-4.351 3.291 1.9-24.057 4.351 8.458 4.883 6.516-3.762 3.06 1.767-6.516 3.762Zm25.014 12.617-5.298-3.059-2.666 1.539 8.162 4.711-2.238 1.292-8.162-4.711-3.916 2.26-3.028-1.747 3.917-2.261-2.798-1.615 2.238-1.292 2.797 1.615 2.666-1.539-2.797-1.615 2.764-1.596 2.798 1.615 11.452-6.612 8.326 4.807c1.997 1.153 2.995 2.54 2.995 4.161.022 1.608-.954 2.983-2.929 4.123-1.975 1.14-4.355 1.703-7.141 1.69-2.765-.025-5.145-.614-7.142-1.766Zm11.354-6.555-5.298-3.059-8.59 4.959 5.299 3.059c1.119.646 2.512.969 4.179.969 1.711-.026 3.148-.374 4.311-1.045 1.207-.697 1.81-1.514 1.81-2.451 0-.963-.57-1.773-1.711-2.432Z" fill="#fff"/><rect width="140.644" height="58.161" rx="10" transform="scale(1.22477 .70707) rotate(45 -266.1 477.837)" fill="#232323"/><path d="M325.299 264.823c1.163 2.09.494 3.857-2.007 5.301-2.107 1.216-4.498 1.748-7.175 1.596a16.985 16.985 0 0 1-7.47-2.261c-2.304-1.33-3.598-2.761-3.884-4.294-.263-1.545.659-2.926 2.765-4.141 2.501-1.444 5.562-1.831 9.182-1.159-.702-1.774.033-3.287 2.205-4.541 2.084-1.203 4.377-1.729 6.878-1.577 2.545.152 4.794.792 6.746 1.919 1.997 1.152 3.105 2.451 3.324 3.895.285 1.456-.614 2.786-2.699 3.989-2.172 1.254-4.793 1.679-7.865 1.273Zm4.311-7.466a8.653 8.653 0 0 0-3.916-1.159c-1.382-.064-2.655.24-3.818.912-1.14.658-1.656 1.399-1.546 2.223.109.823.757 1.577 1.941 2.261 1.185.683 2.491 1.057 3.917 1.12 1.426.064 2.709-.234 3.85-.892 1.163-.672 1.689-1.406 1.58-2.204-.11-.798-.779-1.552-2.008-2.261Zm-18.034 10.411c1.492.861 3.027 1.343 4.607 1.444 1.58.101 3.006-.215 4.278-.95 1.251-.722 1.788-1.539 1.613-2.451-.176-.912-1.009-1.798-2.501-2.66-1.47-.848-2.995-1.323-4.575-1.424-1.579-.102-2.994.209-4.245.93-1.272.735-1.821 1.558-1.645 2.47.175.912.998 1.793 2.468 2.641Zm31.205 3.5c2.304 1.33 3.478 2.844 3.522 4.541.065 1.684-1.043 3.185-3.324 4.503-2.282 1.317-4.893 1.963-7.833 1.938-2.94-.026-5.562-.703-7.865-2.033-2.348-1.356-3.532-2.876-3.554-4.56-.022-1.685 1.108-3.186 3.389-4.503 1.799-1.038 3.796-1.659 5.99-1.862l18.495-2.128 3.488 2.014-13.46 1.501c.702.355 1.086.551 1.152.589Zm-2.929 1.691c-1.47-.849-3.093-1.279-4.87-1.292-1.777-.013-3.39.399-4.838 1.235-1.448.836-2.172 1.773-2.172 2.812.044 1.039.79 1.976 2.238 2.812 1.448.836 3.06 1.26 4.837 1.273 1.821.012 3.456-.399 4.904-1.235 1.448-.836 2.15-1.773 2.106-2.812-.022-1.026-.757-1.957-2.205-2.793Zm20.194 17.32 2.797 1.615-2.863 1.653-2.797-1.615-4.377 2.527-3.061-1.767 4.377-2.527-11.748-6.783 2.863-1.653 24.057-4.35 3.291 1.899-24.057 4.351 8.458 4.883 6.516-3.762 3.06 1.767-6.516 3.762Zm25.014 12.617-5.298-3.059-2.666 1.539 8.161 4.711-2.237 1.292-8.162-4.711-3.916 2.261-3.028-1.748 3.916-2.261-2.797-1.615 2.238-1.292 2.797 1.615 2.666-1.539-2.797-1.615 2.764-1.596 2.797 1.615 11.453-6.612 8.326 4.807c1.996 1.153 2.995 2.54 2.995 4.161.022 1.608-.955 2.983-2.929 4.123-1.975 1.14-4.355 1.703-7.142 1.691-2.764-.026-5.144-.615-7.141-1.767Zm11.354-6.555-5.299-3.059-8.589 4.959 5.298 3.059c1.119.646 2.513.969 4.18.969 1.711-.026 3.148-.374 4.311-1.045 1.207-.697 1.81-1.514 1.81-2.451 0-.963-.57-1.773-1.711-2.432Z" fill="#fff"/></svg>