<svg width="40" height="40" fill="none" xmlns="http://www.w3.org/2000/svg"><g clip-path="url(#a)"><circle cx="20" cy="20" r="20" fill="rgba(255, 255, 255, 1)"/><path d="M21.941 10.434c-1.074-.62-2.816-.62-3.89 0L7.003 16.81c-.538.311-.806.718-.805 1.126l.002 4.368c-.004.41.264.82.806 1.132l11.046 6.377c1.074.62 2.815.62 3.89 0l11.045-6.377c.55-.308.819-.715.815-1.121l-.011-4.38c0-.406-.268-.812-.805-1.122l-11.045-6.38Z" fill="#D1D1D1"/><path d="M21.868 10.88c-1.073-.62-2.814-.62-3.888 0l-9.604 5.544c-1.074.62-1.074 1.625 0 2.244l9.605 5.545c1.073.62 2.813.62 3.887 0l9.602-5.543c1.073-.62 1.073-1.624 0-2.244l-9.602-5.546Z" fill="#F8F8F8"/><path d="M23.761 19.302c-.955.551-2.103.849-3.443.893l-.021.892-1.587-.047.02-.928c-.962-.151-1.78-.42-2.453-.81-1.03-.594-1.552-1.312-1.566-2.154 0-.84.523-1.563 1.568-2.166s2.292-.903 3.742-.899c1.457 0 2.704.3 3.742.898 1.037.6 1.556 1.32 1.555 2.16.007.838-.512 1.558-1.557 2.16Zm-6.329-.666c.371.214.81.377 1.32.488l.03-1.541 1.588.047-.031 1.613c.866-.056 1.612-.264 2.237-.625.735-.425 1.103-.923 1.103-1.494 0-.572-.357-1.063-1.071-1.476-.715-.413-1.567-.619-2.556-.619-.99 0-1.852.213-2.588.637-.735.425-1.103.923-1.103 1.494 0 .572.357 1.063 1.071 1.476Z" fill="#232323"/></g><defs><clipPath id="a"><path fill="#fff" d="M0 0h40v40H0z"/></clipPath></defs></svg>