<svg width="360" height="274" fill="none" xmlns="http://www.w3.org/2000/svg"><rect width="148.046" height="58.161" rx="10" transform="scale(1.22477 .70707) rotate(45 -148.686 124.895)" fill="#232323"/><path d="m58.414 120.686 8.161 2.28 2.633 1.52-23.036 13.299-3.028-1.747 19.746-11.4-6.352-1.995 1.876-1.957Zm26.079 15.74-11.749 1.007c1.47 1.229 2.15 2.508 2.04 3.838-.11 1.33-1.053 2.508-2.83 3.534-2.26 1.304-4.793 1.88-7.602 1.728-2.852-.152-5.364-.854-7.536-2.108-1.8-1.039-2.962-2.179-3.489-3.42-.526-1.242-.329-2.457.593-3.648l4.08.608c-1.447 1.621-.844 3.198 1.81 4.731a10.035 10.035 0 0 0 4.608 1.368c1.667.076 3.16-.266 4.476-1.026 1.316-.76 1.908-1.622 1.777-2.584-.11-.95-.889-1.843-2.337-2.679l-.79-.456.659-1.786 12.538-1.083-10.235-5.909 2.864-1.652 13.822 7.979-2.7 1.558Zm2.605 1.732 2.896-1.672 14.381 8.303-2.731 1.576-28.697 6.878-3.192-1.843 28.466-6.82-11.123-6.422Zm10.496 29.314-14.875-8.587 2.501-1.444 16.422-.095c4.344 0 7.295-.45 8.853-1.349 1.272-.735 1.875-1.539 1.81-2.413-.022-.874-.615-1.647-1.778-2.318-2.172-1.254-4.782-1.571-7.832-.95l-1.053-2.356c2.172-.443 4.278-.519 6.319-.228 2.062.279 3.894.88 5.495 1.805 1.953 1.127 2.995 2.464 3.127 4.009.131 1.57-.867 2.97-2.995 4.199-2.326 1.342-6.231 2.014-11.716 2.014l-11.748-.019 10.432 6.022-2.962 1.71Zm30.058 7.169-5.299-3.059-2.665 1.539 8.161 4.712-2.238 1.292-8.161-4.712-3.916 2.261-3.028-1.748 3.916-2.261-2.797-1.615 2.238-1.292 2.797 1.615 2.666-1.539-2.798-1.614 2.765-1.596 2.797 1.615 11.453-6.612 8.326 4.807c1.996 1.152 2.994 2.539 2.994 4.16.022 1.609-.954 2.983-2.928 4.123-1.975 1.14-4.356 1.704-7.142 1.691-2.764-.025-5.145-.614-7.141-1.767Zm11.354-6.554-5.299-3.059-8.589 4.958 5.298 3.059c1.119.646 2.512.969 4.18.969 1.711-.025 3.148-.373 4.311-1.045 1.207-.696 1.81-1.513 1.81-2.451 0-.962-.571-1.773-1.711-2.431Z" fill="#fff"/><rect width="115.264" height="58.161" rx="10" transform="scale(1.22477 .70707) rotate(45 57.32 138.382)" fill="#232323"/><path d="M154.347 32.463c-1.799 1.038-3.818 1.659-6.055 1.861l.032.02-18.528 2.108-3.455-1.994 13.526-1.502a51.519 51.519 0 0 1-1.185-.607c-2.326-1.343-3.521-2.857-3.587-4.541-.022-1.685 1.108-3.186 3.389-4.503 2.304-1.33 4.893-1.976 7.767-1.938 2.918.013 5.551.697 7.898 2.052 2.304 1.33 3.478 2.844 3.522 4.54.066 1.685-1.042 3.186-3.324 4.504Zm-3.127-7.353c-1.448-.836-3.071-1.267-4.87-1.292-1.777-.013-3.39.399-4.838 1.235-1.448.836-2.172 1.773-2.172 2.812.044 1.038.79 1.976 2.238 2.812 1.448.836 3.061 1.26 4.838 1.273 1.821.012 3.455-.4 4.903-1.235 1.448-.836 2.161-1.767 2.139-2.793-.022-1.026-.768-1.963-2.238-2.812Zm20.835 17.576c-1.799 1.038-3.817 1.659-6.055 1.861l.033.02-18.528 2.108-3.456-1.994 13.526-1.501a50.823 50.823 0 0 1-1.185-.608c-2.326-1.343-3.521-2.857-3.587-4.541-.022-1.685 1.108-3.186 3.39-4.503 2.303-1.33 4.892-1.976 7.766-1.938 2.918.013 5.551.697 7.899 2.052 2.303 1.33 3.477 2.844 3.521 4.54.066 1.685-1.042 3.186-3.324 4.504Zm-3.126-7.353c-1.448-.836-3.072-1.267-4.871-1.292-1.777-.013-3.39.4-4.838 1.235-1.448.836-2.172 1.773-2.172 2.812.044 1.038.79 1.976 2.238 2.812 1.448.836 3.061 1.26 4.838 1.273 1.821.012 3.455-.4 4.903-1.235 1.448-.836 2.161-1.767 2.139-2.793-.021-1.026-.767-1.963-2.237-2.812Zm17.083 23.39-5.299-3.06-2.666 1.54 8.162 4.711-2.238 1.292-8.161-4.712-3.917 2.261-3.027-1.748 3.916-2.26-2.797-1.615 2.237-1.292 2.798 1.615 2.665-1.54-2.797-1.614 2.765-1.596 2.797 1.615 11.452-6.612 8.326 4.807c1.997 1.152 2.995 2.54 2.995 4.16.022 1.61-.954 2.983-2.929 4.123-1.974 1.14-4.355 1.704-7.141 1.691-2.764-.025-5.145-.614-7.141-1.767Zm11.353-6.555-5.298-3.06-8.589 4.96 5.298 3.059c1.119.645 2.512.968 4.179.968 1.712-.025 3.149-.373 4.312-1.044 1.206-.697 1.81-1.514 1.81-2.451 0-.963-.571-1.774-1.712-2.432Z" fill="#fff"/><rect width="135.356" height="58.161" rx="10" transform="scale(1.22477 .70707) rotate(45 -21.08 -26.637)" fill="#232323"/><path d="m-29.151 32.23 3.356 1.937c2.172 1.254 3.357 2.686 3.555 4.294.219 1.621-.79 3.078-3.028 4.37-2.26 1.304-4.794 1.88-7.602 1.729-2.852-.152-5.365-.855-7.537-2.109-1.799-1.039-2.962-2.204-3.488-3.496-.483-1.292-.208-2.54.823-3.743l4.08.646c-.79.81-1.042 1.64-.756 2.49.285.848 1.064 1.64 2.336 2.374 1.47.849 3.017 1.311 4.64 1.387 1.668.076 3.16-.266 4.476-1.026 1.316-.76 1.909-1.621 1.777-2.584-.11-.95-.877-1.836-2.303-2.66l-6.517-3.761 12.802-6.403 12.605 7.277-2.864 1.652-9.84-5.68-6.515 3.306Zm13.19 23.84-14.875-8.588 2.501-1.444 16.422-.095c4.344 0 7.295-.45 8.853-1.349 1.272-.734 1.875-1.539 1.81-2.413-.022-.873-.615-1.646-1.777-2.317-2.173-1.254-4.783-1.571-7.833-.95l-1.053-2.356c2.172-.444 4.278-.52 6.319-.228 2.062.278 3.894.88 5.495 1.805 1.953 1.127 2.995 2.463 3.127 4.008.131 1.571-.867 2.97-2.995 4.2-2.326 1.342-6.23 2.013-11.716 2.013l-11.748-.019L-13 54.36l-2.962 1.71Zm24.642-3.178c2.303 1.33 3.477 2.844 3.52 4.541.067 1.685-1.041 3.186-3.323 4.503-2.282 1.317-4.893 1.963-7.832 1.938-2.94-.026-5.562-.703-7.866-2.033-2.347-1.355-3.532-2.875-3.554-4.56-.022-1.684 1.108-3.185 3.39-4.503 1.799-1.038 3.795-1.659 5.99-1.861L17.5 48.788l3.489 2.014-13.46 1.5c.702.355 1.086.551 1.152.59Zm-2.93 1.691c-1.47-.848-3.093-1.279-4.87-1.292-1.777-.012-3.39.4-4.838 1.235-1.448.836-2.172 1.773-2.172 2.812.044 1.039.79 1.976 2.238 2.812 1.448.836 3.06 1.26 4.838 1.273 1.82.013 3.455-.4 4.903-1.235 1.448-.836 2.15-1.773 2.107-2.812-.022-1.026-.757-1.957-2.205-2.793Zm25.476 18.545-5.299-3.059-2.666 1.539 8.162 4.712-2.238 1.292-8.162-4.712-3.916 2.26-3.027-1.747 3.916-2.261-2.797-1.615 2.237-1.292 2.798 1.615 2.665-1.539-2.797-1.615 2.764-1.596 2.798 1.615 11.452-6.611 8.326 4.806c1.997 1.153 2.995 2.54 2.995 4.161.022 1.609-.954 2.983-2.929 4.123-1.974 1.14-4.355 1.704-7.141 1.69-2.765-.025-5.145-.614-7.142-1.766Zm11.353-6.555-5.298-3.059-8.59 4.96 5.299 3.058c1.119.646 2.512.969 4.18.969 1.71-.025 3.148-.374 4.31-1.045 1.207-.697 1.81-1.514 1.81-2.45 0-.963-.57-1.774-1.71-2.433Z" fill="#fff"/><rect width="140.644" height="58.161" rx="10" transform="scale(1.22477 .70707) rotate(45 -123.672 314.23)" fill="#232323"/><path d="m245.533 156.257-11.748 1.007c1.47 1.229 2.15 2.508 2.04 3.838-.11 1.33-1.053 2.508-2.83 3.534-2.26 1.304-4.794 1.881-7.602 1.729-2.852-.152-5.364-.855-7.537-2.109-1.799-1.039-2.961-2.179-3.488-3.42-.526-1.241-.329-2.457.592-3.648l4.081.608c-1.448 1.621-.844 3.198 1.81 4.731a10.036 10.036 0 0 0 4.608 1.368c1.667.076 3.159-.266 4.475-1.026 1.317-.76 1.909-1.621 1.777-2.584-.109-.95-.888-1.843-2.336-2.679l-.79-.456.658-1.786 12.539-1.083-10.235-5.908 2.863-1.653 13.822 7.979-2.699 1.558Zm1.618 21.149c-3.708.367-6.977-.266-9.807-1.9s-3.927-3.521-3.291-5.662c.636-2.165 2.754-4.287 6.352-6.364 3.598-2.077 7.273-3.3 11.024-3.667 3.708-.367 6.977.266 9.807 1.9 2.831 1.634 3.928 3.521 3.291 5.662-.636 2.165-2.753 4.287-6.351 6.364s-7.273 3.3-11.025 3.667Zm-3.686-12.159c-2.852 1.646-4.552 3.21-5.101 4.692-.548 1.482.11 2.762 1.975 3.838 1.865 1.077 4.081 1.457 6.648 1.14 2.588-.304 5.309-1.279 8.161-2.926 2.852-1.646 4.542-3.217 5.068-4.711.571-1.495-.077-2.781-1.941-3.857-1.865-1.077-4.081-1.457-6.648-1.14-2.567.316-5.288 1.304-8.162 2.964Zm37.184 16.603c-1.799 1.038-3.817 1.659-6.055 1.861l.033.019-18.528 2.109-3.456-1.995 13.526-1.5a56.381 56.381 0 0 1-1.185-.608c-2.325-1.343-3.521-2.857-3.587-4.541-.022-1.685 1.108-3.186 3.39-4.503 2.303-1.33 4.892-1.976 7.766-1.938 2.918.013 5.551.697 7.899 2.052 2.303 1.33 3.477 2.844 3.521 4.541.066 1.684-1.042 3.185-3.324 4.503Zm-3.126-7.353c-1.448-.836-3.072-1.267-4.871-1.292-1.777-.013-3.389.399-4.837 1.235-1.449.836-2.173 1.773-2.173 2.812.044 1.038.79 1.976 2.238 2.812 1.448.836 3.061 1.26 4.838 1.273 1.821.012 3.456-.399 4.904-1.235 1.448-.836 2.161-1.767 2.139-2.793-.022-1.026-.768-1.963-2.238-2.812Zm17.083 23.389-5.299-3.059-2.665 1.539 8.161 4.712-2.238 1.292-8.161-4.712-3.916 2.261-3.028-1.748 3.916-2.261-2.797-1.615 2.238-1.291 2.797 1.614 2.666-1.538-2.798-1.615 2.765-1.596 2.797 1.615 11.453-6.612 8.326 4.807c1.996 1.152 2.994 2.539 2.994 4.161.022 1.608-.954 2.982-2.929 4.122-1.974 1.14-4.355 1.704-7.141 1.691-2.764-.025-5.145-.614-7.141-1.767Zm11.354-6.554-5.299-3.059-8.589 4.959 5.298 3.058c1.119.646 2.512.969 4.18.969 1.711-.025 3.148-.373 4.311-1.045 1.206-.696 1.81-1.513 1.81-2.45 0-.963-.571-1.774-1.711-2.432Z" fill="#fff"/><rect width="138.529" height="58.161" rx="10" transform="scale(1.22477 .70707) rotate(45 -314.248 142.668)" fill="#232323"/><path d="m8.86 228.103-14.875-8.588 2.5-1.444 16.423-.095c4.344 0 7.295-.449 8.852-1.349 1.273-.734 1.876-1.539 1.81-2.412-.021-.874-.614-1.647-1.777-2.318-2.172-1.254-4.782-1.571-7.832-.95l-1.053-2.356c2.172-.443 4.278-.519 6.318-.228 2.063.279 3.895.88 5.496 1.805 1.953 1.127 2.995 2.463 3.127 4.009.131 1.57-.867 2.97-2.995 4.198-2.326 1.343-6.231 2.014-11.716 2.014L1.39 220.37l10.433 6.023-2.962 1.71Zm23.555 5.239 2.798 1.615-2.863 1.653-2.798-1.615-4.377 2.527-3.06-1.767 4.377-2.527-11.749-6.783 2.863-1.652 24.057-4.351 3.29 1.9-24.056 4.35 8.458 4.883 6.516-3.762 3.06 1.767-6.516 3.762Zm15.833 1.274 3.356 1.938c2.172 1.254 3.357 2.686 3.554 4.294.22 1.621-.79 3.078-3.027 4.37-2.26 1.304-4.794 1.881-7.602 1.729-2.853-.152-5.365-.855-7.537-2.109-1.799-1.039-2.961-2.204-3.488-3.496-.483-1.292-.208-2.539.823-3.743l4.08.646c-.79.811-1.042 1.64-.756 2.489.285.849 1.064 1.64 2.336 2.375 1.47.849 3.017 1.311 4.64 1.387 1.668.076 3.16-.266 4.476-1.026 1.316-.76 1.909-1.621 1.777-2.584-.11-.95-.877-1.836-2.303-2.66l-6.517-3.762 12.802-6.402 12.605 7.276-2.864 1.653-9.84-5.68-6.515 3.305Zm27.05 21.659L70 253.216l-2.666 1.539 8.162 4.711-2.238 1.292-8.162-4.711-3.916 2.261-3.028-1.748 3.916-2.261-2.797-1.615 2.238-1.292 2.797 1.615 2.666-1.539-2.797-1.615 2.764-1.596 2.797 1.615 11.453-6.612 8.326 4.807c1.997 1.153 2.995 2.54 2.995 4.161.022 1.608-.955 2.983-2.93 4.123-1.974 1.14-4.354 1.703-7.14 1.691-2.765-.026-5.145-.615-7.142-1.767Zm11.354-6.555-5.299-3.059-8.589 4.959 5.299 3.059c1.118.646 2.512.969 4.179.969 1.711-.026 3.148-.374 4.311-1.045 1.207-.697 1.81-1.514 1.81-2.451 0-.963-.57-1.773-1.711-2.432Z" fill="#fff"/><rect width="140.644" height="58.161" rx="10" transform="matrix(.86604 .49997 -.86604 .49997 237.37 232)" fill="#232323"/><path d="m243.963 270.025 2.797 1.615-2.863 1.653-2.797-1.615-4.377 2.527-3.061-1.767 4.377-2.527-11.748-6.783 2.863-1.652 24.057-4.351 3.291 1.9-24.057 4.35 8.457 4.883 6.516-3.762 3.061 1.767-6.516 3.762Zm15.832 1.274 3.357 1.938c2.172 1.254 3.357 2.686 3.554 4.294.219 1.621-.79 3.078-3.028 4.37-2.259 1.304-4.793 1.881-7.602 1.729-2.852-.152-5.364-.855-7.536-2.109-1.799-1.039-2.962-2.204-3.488-3.496-.483-1.292-.209-2.539.822-3.743l4.081.646c-.79.811-1.042 1.641-.757 2.489.285.849 1.064 1.64 2.337 2.375 1.47.849 3.016 1.311 4.64 1.387 1.667.076 3.159-.266 4.476-1.026 1.316-.76 1.908-1.621 1.777-2.584-.11-.95-.878-1.836-2.304-2.66l-6.516-3.762 12.802-6.402 12.604 7.276-2.863 1.653-9.84-5.68-6.516 3.305Zm28.81 14.695c-1.799 1.038-3.818 1.659-6.056 1.862l.033.019-18.528 2.108-3.455-1.994 13.526-1.501a56.381 56.381 0 0 1-1.185-.608c-2.326-1.343-3.521-2.856-3.587-4.541-.022-1.685 1.108-3.186 3.389-4.503 2.304-1.33 4.893-1.976 7.767-1.938 2.918.013 5.551.697 7.898 2.052 2.304 1.33 3.478 2.844 3.522 4.541.065 1.685-1.042 3.185-3.324 4.503Zm-3.127-7.353c-1.448-.836-3.071-1.267-4.87-1.292-1.777-.013-3.39.399-4.838 1.235-1.448.836-2.172 1.773-2.172 2.812.044 1.039.79 1.976 2.238 2.812 1.448.836 3.06 1.26 4.838 1.273 1.821.012 3.455-.399 4.903-1.235 1.448-.836 2.161-1.767 2.139-2.793-.022-1.026-.768-1.963-2.238-2.812Zm17.083 23.389-5.298-3.058-2.666 1.539 8.162 4.711-2.238 1.292-8.162-4.712-3.916 2.261-3.028-1.748 3.917-2.26-2.798-1.615 2.238-1.292 2.797 1.615 2.666-1.539-2.797-1.615 2.764-1.596 2.798 1.615 11.452-6.612 8.326 4.807c1.997 1.152 2.995 2.539 2.995 4.161.022 1.608-.954 2.982-2.929 4.122-1.975 1.14-4.355 1.704-7.141 1.691-2.765-.025-5.145-.614-7.142-1.767Zm11.354-6.554-5.298-3.059-8.59 4.959 5.299 3.059c1.119.645 2.512.968 4.179.968 1.712-.025 3.149-.373 4.311-1.044 1.207-.697 1.81-1.514 1.81-2.451 0-.963-.57-1.774-1.711-2.432Z" fill="#fff"/></svg>