<svg width="325" height="121" fill="none" xmlns="http://www.w3.org/2000/svg"><path d="M296.193 18.267c3.145 5.39 5.753 12.083 7.455 19.126-1.728-7.152-4.262-13.651-7.455-19.126Zm0 0c-3.144-5.39-7.048-9.862-11.157-12.78m11.157 12.78c-3.193-5.474-6.984-9.817-11.157-12.78m0 0C280.928 2.57 276.323 1 271.876 1m13.16 4.488C280.864 2.525 276.392 1 271.876 1m0 0c-4.447 0-9.052 1.57-13.161 4.488M271.876 1c-4.516 0-8.988 1.525-13.161 4.488m0 0c-4.108 2.917-8.012 7.389-11.157 12.78m11.157-12.78c-4.172 2.962-7.963 7.305-11.157 12.78m0 0c-3.144 5.39-5.753 12.082-7.454 19.125m7.454-19.126c-3.193 5.475-5.726 11.974-7.454 19.126m0 0c-1.702 7.043-2.618 14.938-2.618 22.561 0-7.742.889-15.408 2.618-22.56Zm37.23 62.032a7.096 7.096 0 1 0-10.917 0m10.917 0v6.928m0-6.928c-1.147 1.379-3.334 2.561-5.458 2.561-2.251.076-4.292-1.158-5.459-2.561m0 0v6.928m0 0c0 3.015 3.436 4.628 5.459 4.628m-5.459-4.628c0 2.556 2.903 4.628 5.459 4.628m0 0c1.831 0 5.458-1.613 5.458-4.628m-5.458 4.628c2.556 0 5.458-2.072 5.458-4.628m-49.555-45.568a7.476 7.476 0 0 0-7.476 7.476v43.432a7.476 7.476 0 0 0 7.476 7.476h88.739a7.477 7.477 0 0 0 7.477-7.476V68.261a7.477 7.477 0 0 0-7.477-7.476h-88.739Z" stroke="#fff" stroke-width="2"/><path fill-rule="evenodd" clip-rule="evenodd" d="m61.64 1 7.244 4.515a147.823 147.823 0 0 0 50.263 19.746l3.134.604V33.1c0 34.522-19.485 66.081-50.332 81.52l-10.308 5.16-10.31-5.16C20.486 99.181 1 67.622 1 33.1v-7.235l3.134-.604A147.826 147.826 0 0 0 54.397 5.515L61.641 1Zm0 .843-6.862 4.283A148.545 148.545 0 0 1 4.27 25.968l-2.55.492v6.64c0 34.249 19.33 65.559 49.934 80.875l9.987 4.999 9.987-4.999C102.23 98.659 121.56 67.349 121.56 33.1v-6.64l-2.55-.492A148.542 148.542 0 0 1 68.503 6.126l-6.862-4.283Z" fill="#fff" stroke="#fff" stroke-width="1.7"/><path d="m193.386 69.25-.762.738 2.313 2.24H144.5v1.044H194.937l-2.313 2.24.762.738 3.614-3.5-3.614-3.5Z" fill="#fff"/><path d="m194.937 72.228-2.313-2.24v2.24h2.313ZM194.937 73.272h-2.313v2.24l2.313-2.24Z" fill="#fff"/></svg>