<svg width="36" height="36" fill="none" xmlns="http://www.w3.org/2000/svg"><path d="M4.47 12.1c.095-.306.192-.703.27-1.108l.01-.074c-.49.619-.238.745-.28 1.167v.014Zm.886-3.741c.098.8-.604 1.125.154.59.422-.928-.154-.253-.14-.59h-.014Zm13.276-7.06c.368-.07.826-.13 1.29-.166l.046-.004c-.52.043-1.041.071-1.547.141l.211.028ZM30.8 16.345l-.098.21a9.879 9.879 0 0 1-.995 3.166l.026-.055a9.1 9.1 0 0 0 1.05-3.276l.004-.045h.013Zm-15.386 3.35a2.923 2.923 0 0 1-.43-.713l-.007-.019c.15.472.355.882.614 1.252l-.01-.014-.169-.507h.002Zm-.872.042-.07.394a7.913 7.913 0 0 0 1.125 1.42c-.338-.66-.59-.928-1.054-1.828l-.001.014Zm13.893-4.024a5.23 5.23 0 0 1-.547 2.139l.013-.03-.492.253c-.393.76.043.492-.238 1.097a14.322 14.322 0 0 1-2.223 1.796l-.054.034c-.282 0 .197-.351.267-.479-.832.563-.677.844-1.928 1.195l-.042-.084a5.62 5.62 0 0 1-7.386-5.336v-.069.004c-.042.238-.098.182-.169.281a4.992 4.992 0 0 1 2.783-4.908l.03-.014a4.657 4.657 0 0 1 2.124-.504c1.199 0 2.295.447 3.127 1.184l-.004-.005a4.695 4.695 0 0 0-3.72-1.83c-.037 0-.074 0-.11.002h.005a4.314 4.314 0 0 0-3.716 2.186l-.011.021c-.844.535-.942 2.067-1.308 2.336a6.63 6.63 0 0 0 3.312 7.07l.034.017c.38.267.113.295.169.492a6.655 6.655 0 0 1-2.144-1.623l-.007-.008a5.46 5.46 0 0 0 1.116 1.272l.009.007c-.773-.253-1.785-1.828-2.08-1.898 1.307 2.333 5.314 4.106 7.396 3.233a8.705 8.705 0 0 1-3.337-.412l.062.018c-.464-.225-1.083-.716-.985-.8.934.403 2.02.637 3.163.637a8.123 8.123 0 0 0 5.149-1.83l-.015.011c.619-.492 1.307-1.322 1.504-1.335-.281.45.056.225-.168.619.618-1.013-.282-.422.646-1.744l.338.463c-.126-.844 1.04-1.857.928-3.18.267-.422.281.422 0 1.363.407-1.04.113-1.194.21-2.052.113.242.223.536.312.838l.012.048a4.033 4.033 0 0 1 .404-2.273l-.01.024c-.126-.07-.394.422-.45-.745 0-.52.14-.281.197-.394a2.267 2.267 0 0 1-.533-1.199l-.001-.011c.112-.182.309.463.478.478a8.559 8.559 0 0 1-.278-1.48l-.003-.039c-.479-.956-.17.14-.563-.422-.478-1.533.422-.35.478-1.04.6.995 1.076 2.15 1.364 3.377l.015.082a13.42 13.42 0 0 0-.72-2.565l.032.091c.225.098-.366-1.745.295-.52-.906-2.673-2.732-4.831-5.092-6.147l-.056-.028c.253.239.59.548.463.591-1.054-.632-.872-.675-1.026-.942-.857-.35-.913.028-1.49 0a18.215 18.215 0 0 0-3.3-1.302l-.134-.033.07.323c-1.083-.351-1.266.14-2.433 0-.07-.056.38-.197.745-.253-1.041.14-.985-.197-2.011.042.218-.148.471-.298.733-.431l.04-.018c-.844.056-2.024.491-1.66.097a20.044 20.044 0 0 0-5.284 2.835l.052-.037-.04-.31c-.633.76-2.756 2.265-2.924 3.25l-.185.041c-.323.563-.534 1.195-.801 1.774-.422.73-.632.28-.562.393a25.514 25.514 0 0 0-1.584 4.172l-.047.19c.084.777.13 1.68.13 2.593 0 .452-.01.902-.034 1.349l.002-.063c-.003.125-.005.272-.005.42 0 7.591 4.86 14.046 11.64 16.422l.122.037a12.708 12.708 0 0 0 3.523.351l-.024.002c-1.391-.394-1.575-.21-2.923-.689-.985-.45-1.195-.984-1.885-1.589l.281.492c-1.364-.478-.8-.59-1.913-.941l.294-.38a2.586 2.586 0 0 1-1.356-1.126l-.007-.012-.478.013c-.576-.704-.886-1.224-.857-1.632l-.157.281c-.182-.294-2.136-2.673-1.125-2.124a2.302 2.302 0 0 1-.697-.761l-.006-.012.197-.238a3.93 3.93 0 0 1-.866-1.66l-.006-.028c.148.223.367.389.625.463l.007.002c-1.237-3.053-1.307-.169-2.25-3.096l.21-.028a6.463 6.463 0 0 1-.348-.674l-.018-.044.084-.844c-.885-1.04-.253-4.36-.126-6.188.38-1.085.798-2.004 1.285-2.88l-.048.094-.295-.056c.563-.998 3.29-4.038 4.556-3.881.604-.773-.126 0-.253-.197 1.35-1.393 1.772-.984 2.673-1.238.985-.563-.844.225-.379-.212 1.688-.422 1.195-.985 3.403-1.195.225.14-.548.197-.731.366a8.932 8.932 0 0 1 2.703-.411c1.343 0 2.62.291 3.768.813l-.058-.023c2.691 1.434 4.58 4.069 4.96 7.17l.004.044.113.029a13.579 13.579 0 0 1-.254 3.9l.015-.09.281-.59.02.015Zm-9.31-13.98-.21.042.196-.013v-.028h.014Zm-.59-.168c.28.056.631.098.59.169.323-.07.394-.14-.604-.169h.013Zm6.216 13.77c.07-1.014-.197-.704-.281-.31.098.056.182.703.281.309v.001Zm-1.098 2.882c.308-.422.539-.922.656-1.465l.004-.025c-.111.39-.27.73-.472 1.04l.009-.014c-1.054.66-.098-.38 0-.788-1.125 1.42-.154.845-.197 1.252Zm-3.01.745c-.563 0 .112.281.844.394.203-.152.382-.304.55-.466l-.002.002a4.199 4.199 0 0 1-1.412.067l.02.003Z" fill="#222525"/></svg>