<svg xmlns="http://www.w3.org/2000/svg" width="237" height="138" fill="none"><path d="M194.579 117.772h-1v18.066c-12.962-5.207-28.084-11.658-40.117-20.841C141.024 105.505 132 93.184 132 76.387 132 53.528 150.529 35 173.386 35h21.193c22.857 0 41.386 18.53 41.386 41.386 0 22.857-18.529 41.386-41.386 41.386ZM169.271 61.16h40.74M192.11 79.678h17.901M42.386 83.772h1v18.066C56.348 96.631 71.47 90.18 83.503 80.997c12.438-9.492 21.462-21.813 21.462-38.61C104.965 19.528 86.436 1 63.579 1H42.386C19.53 1 1 19.53 1 42.386c0 22.857 18.53 41.386 41.386 41.386ZM67.694 27.16h-40.74M44.855 45.678h-17.9" stroke="#222525" stroke-width="2"/></svg>