<svg width="39" height="39" fill="none" xmlns="http://www.w3.org/2000/svg"><path d="M26.165 11.426c-1.295-.724-1.713-2.362-.99-3.656.494-.877 1.408-1.334 2.322-1.334.457 0 .915.115 1.334.343 1.295.761 1.713 2.4.99 3.656-.494.876-1.408 1.333-2.322 1.333-.457 0-.914-.114-1.334-.342Zm6.666 7.58h-4.418a6.984 6.984 0 0 0-2.742-5.066c-.267-.19-.534-.381-.839-.572a7.046 7.046 0 0 0-3.352-.838c-1.256 0-2.4.305-3.428.876l-2.437-3.694c1.713-1.028 3.694-1.6 5.865-1.6.839 0 1.676.077 2.515.267a3.605 3.605 0 0 0 1.713 3.846 3.58 3.58 0 0 0 1.79.457c.877 0 1.714-.304 2.363-.876a11.281 11.281 0 0 1 2.97 7.198v.001Zm-18.054-8.722 2.438 3.694c-1.524 1.18-2.552 2.971-2.667 5.027-.038.152-.038.305-.038.495 0 .152 0 .343.038.495.153 2.17 1.296 4.037 2.972 5.217l-2.323 3.771a11.306 11.306 0 0 1-4.647-6.246c1.066-.61 1.828-1.79 1.828-3.124a3.61 3.61 0 0 0-1.905-3.161c.724-2.514 2.247-4.685 4.303-6.17l.001.002ZM8.76 16.948c1.486 0 2.705 1.18 2.705 2.667a2.715 2.715 0 0 1-2.705 2.704c-1.485 0-2.666-1.219-2.666-2.704a2.65 2.65 0 0 1 2.666-2.667Zm7.313 12.569 2.323-3.809c.914.457 1.98.724 3.084.724a6.906 6.906 0 0 0 3.39-.876 4.07 4.07 0 0 0 .838-.572 6.848 6.848 0 0 0 2.705-4.99h4.418a11.3 11.3 0 0 1-3.237 7.466 3.445 3.445 0 0 0-2.019-.648 3.58 3.58 0 0 0-1.79.457 3.616 3.616 0 0 0-1.79 3.314c-.839.19-1.676.305-2.515.305-1.98 0-3.807-.495-5.407-1.371Zm11.501-1.79c.914 0 1.828.457 2.323 1.333.724 1.295.267 2.971-.99 3.694-.42.229-.877.342-1.334.342-.952 0-1.828-.457-2.323-1.333-.762-1.296-.305-2.932.99-3.694.42-.23.877-.342 1.334-.342Z" fill="#222525"/></svg>