<svg xmlns="http://www.w3.org/2000/svg" width="54" height="40" fill="none"><path d="M30.797.917c-2.101-1.222-5.509-1.223-7.61-.001L1.576 13.476C.523 14.089-.002 14.892 0 15.694l.004 8.603c-.008.806.518 1.614 1.576 2.23l21.608 12.558c2.101 1.221 5.508 1.221 7.609 0l21.608-12.559c1.076-.606 1.602-1.407 1.595-2.208l-.023-8.624c0-.8-.524-1.6-1.574-2.211L30.797.917Z" fill="#DEDEDE"/><path d="M30.796 1.814c-2.095-1.22-5.491-1.22-7.586 0L4.472 12.73c-2.095 1.22-2.095 3.198 0 4.418l18.74 10.916c2.094 1.22 5.49 1.22 7.584 0l18.733-10.912c2.093-1.22 2.094-3.198 0-4.418L30.796 1.814Z" fill="#fff"/><path d="M34.358 18.381c-1.87 1.087-4.115 1.673-6.736 1.759l-.041 1.758-3.105-.093.04-1.829c-1.881-.296-3.48-.828-4.798-1.593-2.016-1.172-3.037-2.586-3.064-4.242 0-1.657 1.023-3.079 3.067-4.267 2.043-1.188 4.484-1.778 7.32-1.77 2.85 0 5.29.59 7.32 1.769 2.029 1.18 3.043 2.597 3.043 4.254.013 1.648-1.003 3.066-3.047 4.254ZM21.977 17.07c.726.422 1.586.742 2.58.96l.062-3.035 3.105.094-.061 3.176c1.694-.11 3.152-.52 4.376-1.231 1.439-.836 2.158-1.817 2.159-2.942 0-1.125-.699-2.094-2.097-2.907-1.397-.812-3.064-1.218-5-1.218s-3.623.419-5.062 1.255c-1.439.836-2.158 1.817-2.158 2.942 0 1.125.698 2.094 2.096 2.906Z" fill="#041220"/></svg>