<svg xmlns="http://www.w3.org/2000/svg" width="124" height="72" fill="none"><path d="M65.797 16.933c-2.101-1.213-5.508-1.214-7.61 0L36.576 29.408c-1.053.608-1.578 1.405-1.576 2.201l.005 8.546c-.009.8.517 1.603 1.575 2.214l21.608 12.475c2.101 1.213 5.508 1.213 7.609 0L87.405 42.37c1.076-.603 1.602-1.398 1.595-2.194l-.022-8.566c0-.794-.525-1.59-1.575-2.196l-21.606-12.48Z" fill="#D1D1D1"/><path d="M65.654 17.805c-2.1-1.212-5.505-1.213-7.606 0L39.26 28.65c-2.1 1.213-2.1 3.178 0 4.39L58.05 43.89c2.1 1.212 5.504 1.212 7.604 0l18.782-10.844c2.1-1.212 2.1-3.177.001-4.39l-18.783-10.85Z" fill="#F8F8F8"/><path d="M69.358 34.28c-1.87 1.08-4.115 1.662-6.736 1.748l-.04 1.746-3.106-.093.04-1.816c-1.881-.295-3.48-.822-4.798-1.583-2.016-1.163-3.037-2.568-3.064-4.213 0-1.646 1.023-3.058 3.067-4.238 2.044-1.18 4.484-1.766 7.32-1.759 2.85 0 5.29.586 7.32 1.757 2.029 1.172 3.043 2.58 3.043 4.226.013 1.637-1.003 3.046-3.046 4.226Zm-12.381-1.302c.726.42 1.586.737 2.58.955l.062-3.015 3.105.092-.061 3.155c1.694-.109 3.153-.516 4.376-1.223 1.439-.83 2.158-1.804 2.159-2.922 0-1.117-.699-2.08-2.096-2.887-1.398-.807-3.065-1.21-5-1.21-1.937 0-3.624.416-5.063 1.246-1.438.83-2.158 1.805-2.158 2.922 0 1.118.698 2.08 2.096 2.887Z" fill="#232323"/></svg>