<svg xmlns="http://www.w3.org/2000/svg" width="81" height="18" fill="none"><path d="M19.068 8.666c0 2.212-.765 4.138-2.295 5.777l1.846 1.814L16.598 18l-1.922-1.886c-1.48.812-3.036 1.218-4.666 1.218-2.495 0-4.633-.836-6.413-2.507-1.764-1.687-2.645-3.74-2.645-6.16 0-2.418.881-4.463 2.645-6.134C5.36.843 7.498 0 10.01 0c2.512 0 4.65.844 6.413 2.53 1.764 1.672 2.645 3.717 2.645 6.136Zm-9.058 5.992c.898 0 1.772-.183 2.62-.55l-3.194-3.127 2.021-1.742 3.344 3.27A5.819 5.819 0 0 0 16.2 8.666c0-1.703-.6-3.128-1.797-4.273-1.198-1.146-2.662-1.72-4.392-1.72-1.73 0-3.194.574-4.392 1.72-1.198 1.145-1.797 2.57-1.797 4.273 0 1.703.6 3.127 1.797 4.273 1.198 1.146 2.662 1.719 4.392 1.719ZM28.064 17.021h-3.318L19.805.311h3.02l3.667 13.058L30.46.31h2.645l3.943 13.059L40.716.31h3.02l-4.941 16.711h-3.32L31.784 4.822l-3.719 12.2ZM45.982 17.021V.311h2.87v16.71h-2.87ZM62.823 11.65V.31h2.87v16.711h-2.246l-8.235-11.34v11.34h-2.87V.311h2.246l8.235 11.339ZM74.752 17.332c-1.68 0-3.11-.358-4.292-1.075a5.828 5.828 0 0 1-2.445-3.032l2.47-1.384c.699 1.878 2.146 2.817 4.342 2.817 1.065 0 1.872-.2 2.42-.597.55-.398.824-.931.824-1.6 0-.668-.29-1.185-.873-1.551-.582-.366-1.614-.764-3.094-1.194-1.514-.43-2.737-.939-3.669-1.528-1.131-.764-1.697-1.886-1.697-3.366 0-1.48.55-2.65 1.647-3.509C71.467.438 72.79 0 74.353 0c1.38 0 2.595.326 3.643.979 1.065.636 1.88 1.536 2.446 2.697l-2.42 1.337c-.733-1.56-1.955-2.34-3.669-2.34-.832 0-1.497.192-1.996.574-.5.366-.749.867-.749 1.504 0 .62.25 1.114.749 1.48.499.35 1.422.724 2.77 1.122.832.27 1.314.43 1.447.477.216.064.649.223 1.298.478.532.207.956.43 1.272.668 1.298.97 1.897 2.117 1.797 3.438 0 1.512-.574 2.713-1.722 3.605-1.114.875-2.603 1.313-4.467 1.313Z" fill="#F8F8F8"/></svg>