<svg width="41" height="24" fill="none" xmlns="http://www.w3.org/2000/svg"><g clip-path="url(#a)" fill="#787878"><g opacity=".55"><path opacity=".55" d="M36.506 11.376c-.587 0-1.013.688-1.013 1.664 0 .64.225.976.668.976.61 0 1.045-.688 1.045-1.672 0-.624-.242-.968-.7-.968Zm-7.693 2.304c0 .312.185.512.466.512.53 0 .916-.512.94-1.24a2.19 2.19 0 0 0-.289-.024c-.747 0-1.125.256-1.125.752h.008Z"/><path opacity=".55" d="M28.226 0c-1.78-.002-3.537.39-5.146 1.146a11.995 11.995 0 0 0-4.156 3.23h2.428c.338.4.643.824.925 1.272H18c-.25.408-.483.832-.692 1.272h5.66c.193.408.362.832.515 1.272h-6.681a11.33 11.33 0 0 0-.354 1.264h7.38l.129.72c.032.224.064.448.08.672.475-1.184 1.423-1.92 2.637-1.92.563 0 1.246.24 1.44.312l-.218 1.32c-.466-.24-.804-.328-1.174-.328-.964 0-1.656.936-1.656 2.28 0 .92.459 1.48 1.222 1.48.322 0 .675-.096 1.11-.32l-.233 1.392c-.483.136-.788.184-1.158.184-.444.02-.883-.1-1.253-.345-.37-.245-.652-.6-.805-1.015a12.411 12.411 0 0 1-.466 1.92h-6.681c.145.44.314.864.506 1.28h5.66c-.209.432-.434.856-.691 1.264h-4.27c.274.448.58.872.917 1.28h2.428c-.37.45-.774.872-1.206 1.264a12.069 12.069 0 0 0 5.095 2.716c1.895.481 3.879.496 5.78.043a12.07 12.07 0 0 0 5.136-2.64 11.991 11.991 0 0 0 3.309-4.717 11.938 11.938 0 0 0-1.311-11.092 12.032 12.032 0 0 0-4.319-3.823A12.098 12.098 0 0 0 28.226 0Zm2.942 15.152h-1.077l.024-.512c-.33.4-.772.6-1.367.6-.723 0-1.206-.552-1.206-1.352 0-1.2.852-1.904 2.3-1.904.144 0 .337.008.53.032.04-.16.056-.232.056-.32 0-.32-.233-.448-.844-.448-.466 0-.932.08-1.382.224l.184-1.12a5.233 5.233 0 0 1 1.568-.256c1.126 0 1.712.496 1.712 1.448 0 .256-.04.568-.104.984-.113.72-.354 2.256-.386 2.624h-.008Zm1.745 0H31.61l.056-.328c.226-1.536.515-3.088.684-4.616h1.206c0 .248-.048.496-.08.744.401-.584.699-.888 1.245-.776a4.862 4.862 0 0 0-.49 1.44c-.74-.08-.852.512-1.318 3.536Zm3.939 0 .064-.456c-.362.376-.723.544-1.206.544-.948 0-1.575-.816-1.575-2.056 0-1.64.972-3.032 2.122-3.032.514 0 .892.208 1.254.672l.29-1.76h1.286l-.99 6.088h-1.245Z"/></g><path d="M19.029 11.224c-.418 0-.708.32-.828.88h1.43c.009-.104.137-.88-.602-.88ZM8.208 13.68c0 .312.177.512.466.512.53 0 .917-.512.94-1.24a2.178 2.178 0 0 0-.297-.024c-.74 0-1.109.256-1.109.752Z"/><path d="M23.724 12.616c0-.664.112-1.256.321-1.768l-.016-.12-.016-.16-.056-.392c-.161.272-.378.816-.499 1.44-.723-.08-.844.512-1.31 3.536h-1.31l.064-.328c.225-1.536.514-3.088.683-4.616h1.198c.008.248-.048.496-.08.744.402-.584.707-.888 1.254-.776l-.008-.064-.033-.184-.08-.424-.008-.048h-7.38c.096-.432.209-.856.346-1.272h6.672a11.7 11.7 0 0 0-.442-1.12l-.056-.144h-5.66c.21-.44.442-.864.692-1.272h4.268l-.217-.336-.064-.096c-.2-.288-.41-.568-.635-.84h-2.428c.37-.448.78-.88 1.206-1.272a12.083 12.083 0 0 0-6.184-2.96 12.113 12.113 0 0 0-6.805.877A12.043 12.043 0 0 0 1.918 5.45a11.958 11.958 0 0 0 .006 13.092 12.043 12.043 0 0 0 5.227 4.425 12.111 12.111 0 0 0 12.987-2.095l.032-.016.354-.336.12-.12.242-.256.128-.136.266-.304.08-.08h-2.444a14.77 14.77 0 0 1-.916-1.28h4.268l.057-.08.321-.552.241-.48.04-.064.04-.088h-5.659c-.193-.416-.362-.84-.506-1.28h6.672l.057-.16.048-.152.12-.4.032-.128c.091-.356.164-.717.218-1.08a3.23 3.23 0 0 1-.226-1.264ZM5.08 15.152l.755-4.672-1.672 4.672h-.892l-.113-4.648-.788 4.648H1.15l1.021-6.08h1.882l.048 3.76 1.27-3.76h2.034l-1.013 6.08h-1.31Zm4.397 0 .024-.512c-.321.408-.772.6-1.367.6-.707 0-1.197-.552-1.197-1.352 0-1.2.844-1.904 2.299-1.904.145 0 .337.008.53.04.04-.168.049-.24.049-.32 0-.336-.225-.456-.836-.456-.475 0-.941.08-1.383.224l.185-1.12a5.232 5.232 0 0 1 1.56-.256c1.125 0 1.72.504 1.72 1.448 0 .256-.04.568-.105.984-.112.72-.362 2.256-.394 2.624H9.478Zm3.827-2.944c.659.304.924.696.924 1.376 0 1.136-.635 1.656-2.01 1.656-.803-.024-1.069-.08-1.366-.144l.177-1.144c.418.136.787.192 1.173.192.523 0 .756-.136.756-.44 0-.232-.08-.304-.611-.552-.691-.32-.997-.752-.997-1.376 0-.92.499-1.68 1.962-1.68.297 0 .812.048 1.15.096l-.186 1.152a7.369 7.369 0 0 0-.94-.08c-.418 0-.643.144-.643.408 0 .232.072.288.619.536h-.008Zm3.48-.816h-.667c-.152.944-.37 2.12-.37 2.272 0 .256.137.368.45.368.145 0 .266-.016.354-.048l-.176 1.096c-.362.112-.644.16-.94.16-.668 0-1.038-.384-1.038-1.088 0-.216.104-.8.185-1.32l.563-3.376h1.302l-.153.752h.667l-.176 1.192v-.008Zm2.445 2.728a3.08 3.08 0 0 0 1.35-.312l-.217 1.232a4.46 4.46 0 0 1-1.334.2c-1.448 0-2.211-.76-2.211-2.208 0-1.688.964-2.936 2.275-2.936 1.07 0 1.753.696 1.753 1.792 0 .36-.049.72-.161 1.216h-2.589c-.08.72.378 1.016 1.125 1.016h.009Z"/></g><defs><clipPath id="a"><path fill="#fff" d="M0 0h41v24H0z"/></clipPath></defs></svg>