<svg width="49" height="13" fill="none" xmlns="http://www.w3.org/2000/svg"><g clip-path="url(#a)"><path fill-rule="evenodd" clip-rule="evenodd" d="M43.579 0h-9.303c.498 2.882 3.5 5.576 6.798 5.576h7.405c.1-.282.1-.65.1-.932 0-2.6-2.2-4.644-5-4.644Zm-8.501 6.038V13h4.495V9.288h4.006a5.21 5.21 0 0 0 2.921-.911 4.621 4.621 0 0 0 1.776-2.34H35.078ZM19.078 0v13h3.998s1.004 0 1.502-.924l3.5-6.5h.497V13h4.504V0h-4.006s-.995.094-1.493.939l-3.5 6.5h-.506V0H19.08Zm-19 13V0h4.495S5.88 0 6.58 1.856c1.797 4.926 1.999 5.576 1.999 5.576s.396-1.206 1.999-5.576C11.278 0 12.576 0 12.576 0h4.504v13h-4.503V6.038h-.498L9.567 13H7.575L5.08 6.038h-.506V13H.078Z" fill="#787878"/></g><defs><clipPath id="a"><path fill="#fff" d="M0 0h49v13H0z"/></clipPath></defs></svg>