<svg width="106" height="121" fill="none" xmlns="http://www.w3.org/2000/svg"><path d="M84.648 37.393c-1.702-7.043-4.31-13.735-7.455-19.126-3.144-5.39-7.048-9.862-11.157-12.78C61.928 2.57 57.323 1 52.876 1c-4.447 0-9.052 1.57-13.16 4.488-4.11 2.917-8.013 7.389-11.158 12.78-3.144 5.39-5.753 12.082-7.454 19.125-1.702 7.043-2.618 14.938-2.618 22.561 0-7.742.89-15.408 2.618-22.56 1.728-7.153 4.261-13.652 7.454-19.127 3.194-5.474 6.985-9.817 11.157-12.78C43.888 2.526 48.36 1 52.875 1c4.517 0 8.989 1.525 13.161 4.488C70.21 8.45 74 12.793 77.193 18.268c3.194 5.474 5.727 11.973 7.455 19.125Z" fill="#1A1A1A"/><path fill-rule="evenodd" clip-rule="evenodd" d="M58.334 99.425a7.096 7.096 0 1 0-10.917 0v6.928c0 3.015 3.436 4.628 5.459 4.628 1.83 0 5.458-1.613 5.458-4.628v-6.928Zm-5.458 2.561c2.124 0 4.311-1.182 5.458-2.561v6.928c0 2.556-2.902 4.628-5.458 4.628s-5.459-2.072-5.459-4.628v-6.928c1.167 1.403 3.208 2.637 5.459 2.561Z" fill="#1A1A1A"/><path fill-rule="evenodd" clip-rule="evenodd" d="M1.303 68.261a7.476 7.476 0 0 1 7.476-7.476h88.74a7.477 7.477 0 0 1 7.476 7.476v43.432a7.477 7.477 0 0 1-7.477 7.476H8.78a7.476 7.476 0 0 1-7.476-7.476V68.261Z" fill="#1A1A1A"/><path d="M77.193 18.267c3.145 5.39 5.753 12.083 7.455 19.126-1.728-7.152-4.261-13.651-7.455-19.126Zm0 0c-3.144-5.39-7.048-9.862-11.157-12.78m11.157 12.78C74 12.793 70.21 8.45 66.036 5.487m0 0C61.928 2.57 57.323 1 52.876 1m13.16 4.488C61.864 2.525 57.392 1 52.876 1m0 0c-4.447 0-9.052 1.57-13.16 4.488M52.875 1c-4.516 0-8.988 1.525-13.16 4.488m0 0c-4.11 2.917-8.013 7.389-11.158 12.78m11.157-12.78c-4.172 2.962-7.963 7.305-11.157 12.78m0 0c-3.144 5.39-5.753 12.082-7.454 19.125m7.454-19.126c-3.193 5.475-5.726 11.974-7.454 19.126m0 0c-1.702 7.043-2.618 14.938-2.618 22.561 0-7.742.89-15.408 2.618-22.56Zm37.23 62.032a7.096 7.096 0 1 0-10.917 0m10.917 0v6.928m0-6.928c-1.147 1.379-3.334 2.561-5.458 2.561-2.251.076-4.291-1.158-5.459-2.561m0 0v6.928m0 0c0 3.015 3.436 4.628 5.459 4.628m-5.459-4.628c0 2.556 2.903 4.628 5.459 4.628m0 0c1.83 0 5.458-1.613 5.458-4.628m-5.458 4.628c2.556 0 5.458-2.072 5.458-4.628M8.78 60.785a7.476 7.476 0 0 0-7.476 7.476v43.432a7.476 7.476 0 0 0 7.476 7.476h88.74a7.477 7.477 0 0 0 7.476-7.476V68.261a7.477 7.477 0 0 0-7.477-7.476H8.78Z" stroke="#F8F8F8" stroke-width="2"/></svg>