<svg width="124" height="121" fill="none" xmlns="http://www.w3.org/2000/svg"><path fill-rule="evenodd" clip-rule="evenodd" d="m61.64 1 7.244 4.515a147.823 147.823 0 0 0 50.263 19.746l3.134.604V33.1c0 34.522-19.485 66.081-50.332 81.52l-10.308 5.16-10.31-5.16C20.486 99.181 1 67.622 1 33.1v-7.235l3.134-.604A147.826 147.826 0 0 0 54.397 5.515L61.641 1Zm0 .843-6.862 4.283A148.545 148.545 0 0 1 4.27 25.968l-2.55.492v6.64c0 34.249 19.33 65.559 49.934 80.875l9.987 4.999 9.987-4.999C102.23 98.659 121.56 67.349 121.56 33.1v-6.64l-2.55-.492A148.542 148.542 0 0 1 68.503 6.126l-6.862-4.283Z" fill="#F8F8F8" stroke="#F8F8F8" stroke-width="1.7"/></svg>