<svg width="49" height="20" fill="none" xmlns="http://www.w3.org/2000/svg"><path d="M20.965 16.834h-3.55L19.64 3.2h3.559l-2.226 13.634h-.008Zm21.464 0h3.27L42.846 3.2h-2.868c-1.317 0-1.639 1.017-1.639 1.017l-5.325 12.617h3.71l.748-2.025h4.53l.418 2.025h.008Zm-3.92-4.825 1.872-5.1 1.044 5.1h-2.916Zm-5.205-5.534.506-2.925s-1.567-.591-3.197-.591c-1.767 0-5.968.766-5.968 4.508 0 3.525 4.924 3.567 4.924 5.417 0 1.85-4.418 1.516-5.872.35l-.53 3.058s1.59.775 4.016.775c2.434 0 6.105-1.25 6.105-4.667 0-3.542-4.98-3.875-4.98-5.417 0-1.541 3.47-1.341 4.996-.5v-.008ZM14.419 3.2l-3.398 9.375-.402-2.016-.008-.05c-.225-.584-1.14-2.676-3.293-4.417-.482-.383-.996-.75-1.526-1.067l3.084 11.809h3.703L18.25 3.2H14.42Z" fill="#787878"/><path d="M10.668 10.667 9.447 4.4S9.294 3.15 7.72 3.15H1.984l-.064.225s2.755.567 5.398 2.708a10.81 10.81 0 0 1 3.35 4.584Z" fill="#787878"/></svg>