<svg width="25" height="24" fill="none" xmlns="http://www.w3.org/2000/svg"><g clip-path="url(#a)" fill="#787878"><path d="M12.315 0C5.637 0 .218 5.384.218 12s5.42 12 12.097 12c6.669 0 12.096-5.384 12.096-12S18.984 0 12.314 0Zm0 22.024a10.148 10.148 0 0 1-6.83-3.102 9.99 9.99 0 0 1-2.789-6.918 9.99 9.99 0 0 1 2.79-6.918 10.148 10.148 0 0 1 6.829-3.102 10.149 10.149 0 0 1 6.829 3.102 9.99 9.99 0 0 1 2.789 6.918 9.99 9.99 0 0 1-2.79 6.918 10.148 10.148 0 0 1-6.829 3.102Z"/><path d="M16.629 8.256V6.432h-3.306V4.416h-2.025v2.016H7.984v2.424h5.12l-5.112 6.88v1.84h3.298v2h2.025v-2h3.306v-2.432H11.5l5.121-6.88.008-.008Z"/></g><defs><clipPath id="a"><path fill="#fff" d="M0 0h25v24H0z"/></clipPath></defs></svg>