<svg width="38" height="38" viewBox="0 0 38 38" fill="none" xmlns="http://www.w3.org/2000/svg">
<path d="M30.8798 21.156C32.1282 21.0574 33.1357 21.8787 33.2233 23.1161C33.3219 24.4083 32.4129 25.4596 31.1646 25.5582C29.9709 25.6567 28.9087 24.7478 28.8211 23.5432C28.7226 22.251 29.5877 21.2874 30.8798 21.145V21.156Z" fill="#85DA2F"/>
<path d="M15.7461 31.351C15.7461 30.1026 16.6988 29.1499 17.8486 29.1499C18.9985 29.1499 20.1045 30.2012 20.1045 31.4057C20.1045 32.5556 19.1518 33.563 18.0457 33.6068C16.655 33.6068 15.7461 32.7417 15.7461 31.351Z" fill="#23C1FF"/>
<path d="M19.141 17.3671C18.9439 17.4657 18.8563 17.3233 18.8015 17.1809C17.0275 13.8738 17.5532 9.71256 20.6741 7.22675C21.4845 6.55875 23.0176 6.41639 23.6855 7.08439C23.9703 7.3253 24.025 7.61002 24.0688 7.94949C24.1674 8.67224 24.3097 9.38404 24.7916 9.96442C25.3172 10.5886 25.9852 10.8295 26.7517 10.7748C27.4197 10.7748 28.0877 10.6762 28.5258 11.4428C28.7667 11.8698 28.6681 13.5453 28.2848 13.8848C28.0987 14.0271 27.9454 13.9286 27.803 13.8848C26.697 13.4577 25.5472 13.4577 24.4083 13.6439C24.025 13.6877 23.8389 13.6001 23.8389 13.162C23.7951 12.4393 23.6527 11.7713 23.2694 11.1471C22.5467 9.85492 21.2107 9.81111 20.3456 11.0047C19.6228 11.9575 19.4367 13.1073 19.2396 14.2571C19.0534 15.2646 19.0972 16.3158 19.141 17.3671Z" fill="#FFCA11"/>
<path d="M20.3454 18.0899C20.2468 17.9475 20.3016 17.8052 20.4439 17.7066C23.1707 15.2208 27.2443 14.739 30.3981 17.181C31.2085 17.849 31.7341 19.2397 31.307 20.05C31.1209 20.3895 30.88 20.5319 30.5843 20.6195C29.9163 20.9042 29.2921 21.1889 28.865 21.8131C28.4379 22.4373 28.3394 23.1491 28.5255 23.9156C28.6679 24.5398 28.9088 25.2078 28.2846 25.7882C27.9452 26.1277 26.3245 26.4124 25.8864 26.1277C25.7003 25.9853 25.7441 25.843 25.7879 25.6459C25.9302 24.4522 25.6455 23.3462 25.2184 22.2949C25.0761 21.9117 25.1199 21.7255 25.5032 21.627C26.1711 21.4298 26.7953 21.1013 27.2772 20.6195C28.3284 19.612 28.0875 18.3198 26.7077 17.7504C25.6017 17.2686 24.4519 17.3671 23.3568 17.4657C22.3055 17.5095 21.2981 17.8052 20.3454 18.0899Z" fill="#85DA2F"/>
<path d="M19.7211 19.3381C19.8634 19.1958 19.962 19.2396 20.1043 19.3381C23.2691 21.2545 24.8898 25.0325 23.4552 28.7229C23.072 29.6756 21.8236 30.6393 20.9147 30.3984C20.5314 30.2998 20.3452 30.1136 20.1481 29.8727C19.7211 29.3033 19.2392 28.7667 18.5165 28.5367C17.7499 28.2958 17.0819 28.4382 16.4139 28.8215C15.8445 29.1609 15.2641 29.588 14.5414 29.1609C14.1143 28.92 13.3915 27.4417 13.5339 26.9598C13.6325 26.7737 13.8186 26.7737 14.0157 26.7737C15.2094 26.5875 16.173 26.0071 17.0819 25.2406C17.3666 24.9997 17.6076 24.9997 17.8485 25.3391C18.2318 25.9086 18.7136 26.3904 19.3378 26.7299C20.5862 27.4526 21.7798 26.8284 21.9221 25.3939C22.0645 24.2003 21.6374 23.138 21.2541 22.0868C20.8271 21.1341 20.3014 20.2142 19.7211 19.36V19.3381Z" fill="#23C1FF"/>
<path d="M18.1881 19.6228C18.0019 20.5755 17.5639 21.4953 16.9944 22.3057C15.2752 24.89 12.7784 25.9413 9.71221 25.6566C8.60619 25.558 7.69728 24.6491 7.60967 23.7402C7.56587 23.357 7.65347 23.0722 7.89439 22.7875C8.23386 22.3604 8.51858 21.9772 8.66094 21.4515C8.94566 20.4003 8.56238 19.5352 7.79583 18.7686C6.74457 17.7173 6.88693 16.7537 8.13531 15.9871C8.27767 15.8886 8.47478 15.801 8.66094 15.7024C8.94566 15.56 9.18657 15.56 9.28513 15.8886C9.71221 16.9946 10.5773 17.8049 11.541 18.4729C11.8804 18.7577 11.8804 18.9548 11.5848 19.2833C11.0153 19.9075 10.6759 20.674 10.6321 21.5391C10.5335 22.5904 11.1577 23.2584 12.209 23.2584C12.877 23.2584 13.5012 23.0175 14.0815 22.7328C15.5708 21.9662 16.7097 20.8602 17.8157 19.7213C17.9581 19.6775 18.0019 19.579 18.199 19.6228H18.1881Z" fill="#0069DA"/>
<path d="M10.3366 9.57037C10.4352 9.57037 10.6761 9.61417 10.9061 9.66893C12.6801 10.0084 13.7752 9.38421 14.3555 7.70875C14.7388 6.60273 15.5492 6.27421 16.6114 6.84365C16.6552 6.84365 16.6552 6.88745 16.7099 6.88745C17.816 7.51164 17.816 7.61019 17.137 8.56291C16.5676 9.32946 16.2719 10.1946 16.1296 11.1035C16.031 11.6291 15.8448 11.7277 15.363 11.5305C14.5965 11.2458 13.7861 11.2458 12.9648 11.5305C12.0559 11.8153 11.6726 12.6366 11.9573 13.5455C12.3406 14.7391 13.3919 15.2647 14.3008 15.8889C15.2097 16.5131 16.261 16.8416 17.2684 17.2797C17.4108 17.3235 17.6517 17.3235 17.6079 17.5644C17.5641 17.7067 17.367 17.7067 17.1808 17.7067C15.0235 17.8053 12.9648 17.4658 11.2893 16.0313C9.71244 14.7391 8.56262 13.1622 8.74878 10.9502C8.89114 10.2274 9.41677 9.70178 10.3257 9.55942L10.3366 9.57037Z" fill="#FF4649"/>
<path d="M6.40516 23.0178C5.25533 23.1602 4.10551 22.2075 4.00695 21.0029C3.9084 19.8531 4.87206 18.7033 5.96713 18.6047C7.21551 18.4623 8.36534 19.3275 8.45294 20.4773C8.49674 21.5833 7.78495 22.9193 6.39421 23.0178H6.40516Z" fill="#0069DA"/>
<path d="M26.5216 5.97824C27.7152 5.87968 28.865 6.84334 28.9636 8.03697C29.0622 9.18679 28.0985 10.2928 26.9487 10.3804C25.7003 10.479 24.6052 9.57007 24.5067 8.36549C24.4081 7.17186 25.2732 6.06584 26.5216 5.96729V5.97824Z" fill="#FFCA11"/>
<path d="M14.016 6.88731C14.1583 8.13569 13.2932 9.18695 12.0011 9.37312C10.895 9.51548 9.74521 8.60657 9.60285 7.5553C9.46049 6.16456 10.227 5.15709 11.5192 5.01474C12.7128 4.87238 13.8627 5.78128 14.005 6.88731H14.016Z" fill="#FF4649"/>
<path d="M30.8798 21.156C32.1282 21.0574 33.1357 21.8787 33.2233 23.1161C33.3219 24.4083 32.4129 25.4596 31.1646 25.5582C29.9709 25.6567 28.9087 24.7478 28.8211 23.5432C28.7226 22.251 29.5877 21.2874 30.8798 21.145V21.156Z" fill="#F8F8F8"/>
<path d="M15.7461 31.351C15.7461 30.1026 16.6988 29.1499 17.8486 29.1499C18.9985 29.1499 20.1045 30.2012 20.1045 31.4057C20.1045 32.5556 19.1518 33.563 18.0457 33.6068C16.655 33.6068 15.7461 32.7417 15.7461 31.351Z" fill="#F8F8F8"/>
<path d="M19.141 17.3671C18.9439 17.4657 18.8563 17.3233 18.8015 17.1809C17.0275 13.8738 17.5532 9.71256 20.6741 7.22675C21.4845 6.55875 23.0176 6.41639 23.6855 7.08439C23.9703 7.3253 24.025 7.61002 24.0688 7.94949C24.1674 8.67224 24.3097 9.38404 24.7916 9.96442C25.3172 10.5886 25.9852 10.8295 26.7517 10.7748C27.4197 10.7748 28.0877 10.6762 28.5258 11.4428C28.7667 11.8698 28.6681 13.5453 28.2848 13.8848C28.0987 14.0271 27.9454 13.9286 27.803 13.8848C26.697 13.4577 25.5472 13.4577 24.4083 13.6439C24.025 13.6877 23.8389 13.6001 23.8389 13.162C23.7951 12.4393 23.6527 11.7713 23.2694 11.1471C22.5467 9.85492 21.2107 9.81111 20.3456 11.0047C19.6228 11.9575 19.4367 13.1073 19.2396 14.2571C19.0534 15.2646 19.0972 16.3158 19.141 17.3671Z" fill="#F8F8F8"/>
<path d="M20.3454 18.0899C20.2468 17.9475 20.3016 17.8052 20.4439 17.7066C23.1707 15.2208 27.2443 14.739 30.3981 17.181C31.2085 17.849 31.7341 19.2397 31.307 20.05C31.1209 20.3895 30.88 20.5319 30.5843 20.6195C29.9163 20.9042 29.2921 21.1889 28.865 21.8131C28.4379 22.4373 28.3394 23.1491 28.5256 23.9156C28.6679 24.5398 28.9088 25.2078 28.2846 25.7882C27.9452 26.1277 26.3245 26.4124 25.8864 26.1277C25.7003 25.9853 25.7441 25.843 25.7879 25.6459C25.9302 24.4522 25.6455 23.3462 25.2184 22.2949C25.0761 21.9117 25.1199 21.7255 25.5032 21.627C26.1711 21.4298 26.7953 21.1013 27.2772 20.6195C28.3284 19.612 28.0875 18.3198 26.7077 17.7504C25.6017 17.2686 24.4519 17.3671 23.3568 17.4657C22.3055 17.5095 21.2981 17.8052 20.3454 18.0899Z" fill="#F8F8F8"/>
<path d="M19.7211 19.3381C19.8634 19.1958 19.962 19.2396 20.1043 19.3381C23.2691 21.2545 24.8898 25.0325 23.4552 28.7229C23.072 29.6756 21.8236 30.6393 20.9147 30.3984C20.5314 30.2998 20.3452 30.1136 20.1481 29.8727C19.7211 29.3033 19.2392 28.7667 18.5165 28.5367C17.7499 28.2958 17.0819 28.4382 16.4139 28.8215C15.8445 29.1609 15.2641 29.588 14.5414 29.1609C14.1143 28.92 13.3915 27.4417 13.5339 26.9598C13.6325 26.7737 13.8186 26.7737 14.0157 26.7737C15.2094 26.5875 16.173 26.0071 17.0819 25.2406C17.3666 24.9997 17.6076 24.9997 17.8485 25.3391C18.2318 25.9086 18.7136 26.3904 19.3378 26.7299C20.5862 27.4526 21.7798 26.8284 21.9221 25.3939C22.0645 24.2003 21.6374 23.138 21.2542 22.0868C20.8271 21.1341 20.3014 20.2142 19.7211 19.36V19.3381Z" fill="#F8F8F8"/>
<path d="M18.1881 19.6228C18.0019 20.5755 17.5639 21.4953 16.9944 22.3057C15.2752 24.89 12.7784 25.9413 9.71221 25.6566C8.60619 25.558 7.69728 24.6491 7.60967 23.7402C7.56587 23.357 7.65348 23.0722 7.89439 22.7875C8.23386 22.3604 8.51858 21.9772 8.66094 21.4515C8.94566 20.4003 8.56238 19.5352 7.79583 18.7686C6.74457 17.7173 6.88693 16.7537 8.13531 15.9871C8.27767 15.8886 8.47478 15.801 8.66094 15.7024C8.94566 15.56 9.18657 15.56 9.28513 15.8886C9.71221 16.9946 10.5773 17.8049 11.541 18.4729C11.8804 18.7577 11.8804 18.9548 11.5848 19.2833C11.0153 19.9075 10.6759 20.674 10.6321 21.5391C10.5335 22.5904 11.1577 23.2584 12.209 23.2584C12.877 23.2584 13.5012 23.0175 14.0815 22.7328C15.5708 21.9662 16.7097 20.8602 17.8157 19.7213C17.9581 19.6775 18.0019 19.579 18.199 19.6228H18.1881Z" fill="#F8F8F8"/>
<path d="M10.3366 9.57037C10.4352 9.57037 10.6761 9.61417 10.9061 9.66893C12.6801 10.0084 13.7752 9.38421 14.3555 7.70875C14.7388 6.60273 15.5492 6.27421 16.6114 6.84365C16.6552 6.84365 16.6552 6.88745 16.7099 6.88745C17.816 7.51164 17.816 7.61019 17.137 8.56291C16.5676 9.32946 16.2719 10.1946 16.1296 11.1035C16.031 11.6291 15.8448 11.7277 15.363 11.5305C14.5965 11.2458 13.7861 11.2458 12.9648 11.5305C12.0559 11.8153 11.6726 12.6366 11.9573 13.5455C12.3406 14.7391 13.3919 15.2647 14.3008 15.8889C15.2097 16.5131 16.261 16.8416 17.2684 17.2797C17.4108 17.3235 17.6517 17.3235 17.6079 17.5644C17.5641 17.7067 17.367 17.7067 17.1808 17.7067C15.0235 17.8053 12.9648 17.4658 11.2893 16.0313C9.71244 14.7391 8.56262 13.1622 8.74878 10.9502C8.89114 10.2274 9.41677 9.70178 10.3257 9.55942L10.3366 9.57037Z" fill="#F8F8F8"/>
<path d="M6.40516 23.0178C5.25533 23.1602 4.10551 22.2075 4.00695 21.0029C3.9084 19.8531 4.87206 18.7033 5.96713 18.6047C7.21551 18.4623 8.36534 19.3275 8.45294 20.4773C8.49674 21.5833 7.78495 22.9193 6.39421 23.0178H6.40516Z" fill="#F8F8F8"/>
<path d="M26.5216 5.97824C27.7152 5.87968 28.865 6.84334 28.9636 8.03697C29.0622 9.18679 28.0985 10.2928 26.9487 10.3804C25.7003 10.479 24.6052 9.57007 24.5067 8.36549C24.4081 7.17186 25.2732 6.06584 26.5216 5.96729V5.97824Z" fill="#F8F8F8"/>
<path d="M14.016 6.88731C14.1583 8.13569 13.2932 9.18695 12.0011 9.37312C10.895 9.51548 9.74521 8.60657 9.60285 7.5553C9.46049 6.16456 10.227 5.15709 11.5192 5.01474C12.7128 4.87238 13.8627 5.78128 14.005 6.88731H14.016Z" fill="#F8F8F8"/>
</svg>
