<svg width="25" height="24" viewBox="0 0 25 24" fill="none" xmlns="http://www.w3.org/2000/svg">
<g clip-path="url(#clip0_151_1258)">
<mask id="mask0_151_1258" style="mask-type:luminance" maskUnits="userSpaceOnUse" x="0" y="0" width="25" height="24">
<path d="M0.217773 0H24.4113V24H0.217773V0Z" fill="white"/>
</mask>
<g mask="url(#mask0_151_1258)">
<path d="M12.3227 6.00864e-06C9.11448 -0.00317659 6.03634 1.25805 3.76549 3.50624C1.49464 5.75443 0.217082 8.80541 0.213873 11.988C0.210665 15.1706 1.48207 18.2241 3.74838 20.4768C6.0147 22.7295 9.09029 23.9968 12.2986 24C15.5068 24.0032 18.585 22.742 20.8558 20.4938C23.1267 18.2456 24.4042 15.1946 24.4074 12.012C24.4106 8.82941 23.1392 5.7759 20.8729 3.52321C18.6066 1.27052 15.531 0.00318861 12.3227 6.00864e-06ZM12.2986 22C9.625 22 7.06095 20.9464 5.17046 19.0711C3.27997 17.1957 2.21791 14.6522 2.21791 12C2.21791 9.34784 3.27997 6.8043 5.17046 4.92894C7.06095 3.05357 9.625 2.00001 12.2986 2.00001C14.9721 2.00001 17.5362 3.05357 19.4266 4.92894C21.3171 6.8043 22.3792 9.34784 22.3792 12C22.3792 14.6522 21.3171 17.1957 19.4266 19.0711C17.5362 20.9464 14.9721 22 12.2986 22Z" fill="#787878"/>
<path d="M15.5647 11.416C16.3711 10.96 16.8147 10.056 16.6615 9.152C16.476 7.744 14.7905 7.216 13.4599 7.104V5H12.1534V7.08H11.2663V5H9.95985V7.08H7.32275V8.44H8.30663C8.74211 8.44 8.95179 8.568 8.95179 8.92V14.704C8.95179 15.184 8.70985 15.336 8.45179 15.336H7.45179V16.712H10.0002V18.848H11.3147V16.712H12.2018V18.848H13.484V16.712H13.7663C16.4598 16.712 17.355 15.4 17.355 13.616C17.3431 13.1059 17.1621 12.6139 16.8399 12.2162C16.5177 11.8185 16.0724 11.5373 15.5728 11.416H15.5647ZM11.2744 8.52H12.2099C12.8631 8.52 14.1534 8.632 14.1534 9.688C14.2018 10.376 13.6937 10.984 13.0002 11.072H11.2744V8.512V8.52ZM12.726 15.208V15.192H11.2744V12.408H12.9599C13.3469 12.408 14.8308 12.536 14.8308 13.576C14.8308 14.616 14.1292 15.208 12.726 15.208Z" fill="#787878"/>
</g>
</g>
<defs>
<clipPath id="clip0_151_1258">
<rect width="25" height="24" fill="white"/>
</clipPath>
</defs>
</svg>
