<svg width="38" height="38" viewBox="0 0 38 38" fill="none" xmlns="http://www.w3.org/2000/svg">
<path d="M5.46977 13.0993C5.56539 12.7944 5.66214 12.3973 5.73977 11.9923L5.75102 11.918C5.25939 12.5368 5.51252 12.6628 5.46977 13.0846V13.0993ZM6.35627 9.35864C6.45414 10.1596 5.75214 10.4836 6.51039 9.94927C6.93227 9.02114 6.35627 9.69614 6.36977 9.35864H6.35627ZM19.6324 2.29814C20.0003 2.22839 20.4581 2.16877 20.9216 2.13277L20.9678 2.12939C20.448 2.17214 19.9271 2.20027 19.4209 2.27002L19.6324 2.29814ZM31.8004 17.3461L31.7025 17.5565C31.5394 18.7164 31.1985 19.7649 30.7069 20.7223L30.7328 20.6671C31.2638 19.7064 31.6361 18.5836 31.7824 17.3911L31.7869 17.3461H31.8004ZM16.4138 20.6953C16.2416 20.4849 16.0954 20.2441 15.9851 19.9831L15.9773 19.964C16.128 20.4354 16.3328 20.846 16.5915 21.2161L16.5814 21.2015L16.4126 20.6953H16.4138ZM15.5419 20.738L15.4721 21.1318C15.8074 21.6684 16.1786 22.133 16.5971 22.5515C16.2596 21.8911 16.0065 21.6234 15.543 20.7234L15.5419 20.738ZM29.4356 16.7139C29.4041 17.4868 29.2106 18.2079 28.8878 18.8525L28.9013 18.8221L28.4096 19.0764C28.0159 19.8358 28.4524 19.568 28.1711 20.1733C27.4939 20.8426 26.7491 21.4445 25.9481 21.9688L25.8941 22.0025C25.6118 22.0025 26.091 21.6515 26.1608 21.5244C25.3294 22.0869 25.4846 22.3681 24.2336 22.7191L24.1909 22.6348C23.6644 22.8148 23.0569 22.9194 22.4258 22.9194C19.3219 22.9194 16.8053 20.4028 16.8053 17.2989C16.8053 17.2764 16.8053 17.2528 16.8053 17.2303V17.2336C16.7636 17.4721 16.7074 17.4159 16.6365 17.5149C16.6253 17.3889 16.6185 17.2426 16.6185 17.0941C16.6185 15.1231 17.7604 13.4176 19.4198 12.6065L19.449 12.593C20.0678 12.2746 20.799 12.089 21.573 12.089C22.7723 12.089 23.868 12.5356 24.7005 13.2725L24.696 13.268C23.8286 12.1509 22.4854 11.4388 20.9768 11.4388C20.9396 11.4388 20.9025 11.4388 20.8654 11.4399H20.871C19.2769 11.4545 17.8909 12.3309 17.1551 13.6258L17.1439 13.6471C16.3001 14.1815 16.2023 15.7138 15.8366 15.9826C15.7601 16.3618 15.7163 16.7971 15.7163 17.2426C15.7163 19.7458 17.1023 21.9238 19.1486 23.0533L19.1824 23.0701C19.5615 23.3368 19.2949 23.3649 19.3511 23.5618C18.5051 23.1545 17.7896 22.6055 17.2069 21.9384L17.2001 21.9305C17.5151 22.4244 17.8875 22.8463 18.3161 23.2029L18.3251 23.2096C17.5523 22.9565 16.5398 21.3815 16.245 21.3118C17.5523 23.645 21.5595 25.418 23.6408 24.545C23.4563 24.5585 23.2414 24.5664 23.0254 24.5664C22.0748 24.5664 21.1601 24.4145 20.304 24.1333L20.3659 24.1513C19.9024 23.9263 19.2836 23.4346 19.3815 23.3503C20.3153 23.7541 21.402 23.9881 22.5439 23.9881C24.4969 23.9881 26.289 23.3019 27.693 22.1578L27.6784 22.169C28.2971 21.6774 28.9856 20.8471 29.1825 20.8336C28.9013 21.2836 29.2388 21.0586 29.0138 21.4524C29.6325 20.4399 28.7325 21.0305 29.6606 19.7086L29.9981 20.1721C29.8721 19.3284 31.0388 18.3148 30.9263 16.9918C31.1929 16.5699 31.2075 17.4136 30.9263 18.3553C31.3335 17.3146 31.0388 17.1605 31.1366 16.3033C31.2491 16.5451 31.3594 16.8388 31.4483 17.1414L31.4606 17.1886C31.4438 17.0525 31.4348 16.8939 31.4348 16.733C31.4348 16.0794 31.59 15.4618 31.8645 14.9161L31.8544 14.9398C31.7284 14.87 31.4606 15.3616 31.4044 14.195C31.4044 13.6753 31.545 13.9138 31.6013 13.8013C31.3178 13.4728 31.1254 13.0588 31.068 12.602L31.0669 12.5908C31.1794 12.4085 31.3763 13.0543 31.545 13.0689C31.4201 12.6346 31.32 12.1183 31.2671 11.5884L31.2638 11.5501C30.7856 10.5939 31.095 11.6908 30.7013 11.1283C30.2231 9.59489 31.1231 10.7773 31.1794 10.0876C31.779 11.0833 32.2549 12.2375 32.5429 13.4649L32.5586 13.547C32.3888 12.6054 32.1503 11.7751 31.8386 10.982L31.8701 11.0731C32.0951 11.171 31.5045 9.32827 32.1649 10.5534C31.2593 7.88039 29.4334 5.72152 27.0731 4.40639L27.0169 4.37827C27.27 4.61677 27.6075 4.92614 27.4804 4.96889C26.4263 4.33664 26.6085 4.29389 26.4544 4.02727C25.5971 3.67627 25.5409 4.05539 24.9638 4.02727C23.9906 3.52214 22.8521 3.06652 21.6641 2.72452L21.5303 2.69189L21.6 3.01477C20.5178 2.66377 20.3344 3.15539 19.1678 3.01477C19.0969 2.95852 19.5469 2.81789 19.9125 2.76164C18.8708 2.90227 18.927 2.56477 17.901 2.80439C18.1193 2.65589 18.3724 2.50627 18.6345 2.37239L18.6739 2.35439C17.8301 2.41064 16.65 2.84602 17.0145 2.45227C15.0165 3.17452 13.2851 4.12064 11.7304 5.28727L11.7821 5.25014L11.7416 4.94077C11.1094 5.70014 8.98652 7.20539 8.81777 8.18977L8.63327 8.23139C8.31039 8.79389 8.09889 9.42614 7.83227 10.0044C7.41039 10.7356 7.20002 10.2856 7.26977 10.3981C6.66902 11.6199 6.11439 13.0678 5.68577 14.5696L5.63964 14.7598C5.72289 15.5371 5.77014 16.4394 5.77014 17.3529C5.77014 17.8051 5.75889 18.2551 5.73527 18.7018L5.73752 18.6388C5.73414 18.7636 5.73189 18.911 5.73189 19.0595C5.73189 26.6499 10.593 33.1051 17.3723 35.4811L17.4938 35.5183C18.4061 35.7466 19.4546 35.8783 20.5335 35.8783C20.6955 35.8783 20.8575 35.8749 21.0173 35.8693L20.9936 35.8704C19.602 35.4766 19.4186 35.66 18.0698 35.1819C17.0854 34.7319 16.875 34.1975 16.1854 33.5934L16.4666 34.085C15.102 33.6069 15.6656 33.4944 14.553 33.1434L14.8478 32.7643C14.2639 32.5516 13.7903 32.1511 13.491 31.6381L13.4843 31.6258L13.0061 31.6393C12.4301 30.935 12.1208 30.4153 12.1489 30.0069L11.9925 30.2881C11.8103 29.9934 9.85614 27.6151 10.8675 28.1641C10.5773 27.9628 10.3399 27.704 10.17 27.4025L10.1644 27.3913L10.3613 27.1528C9.95177 26.6881 9.64914 26.12 9.49502 25.4923L9.48939 25.4653C9.63677 25.688 9.85614 25.8534 10.1138 25.9276L10.1216 25.9299C8.88414 22.8766 8.81439 25.7611 7.87052 22.8339L8.08089 22.8058C7.96389 22.61 7.84127 22.3749 7.73327 22.1319L7.71527 22.088L7.79964 21.2443C6.91427 20.2036 7.54652 16.8838 7.67364 15.0556C8.05389 13.9711 8.47127 13.052 8.95839 12.1768L8.91002 12.2701L8.61527 12.2139C9.17777 11.216 11.9059 8.17627 13.1715 8.33264C13.7756 7.55977 13.0455 8.33264 12.9184 8.13577C14.2684 6.74302 14.6903 7.15139 15.5914 6.89827C16.5758 6.33464 14.7476 7.12327 15.2123 6.68564C16.8998 6.26377 16.407 5.70127 18.6154 5.49089C18.8404 5.63152 18.0675 5.68777 17.8841 5.85652C18.693 5.59664 19.6223 5.44589 20.5875 5.44589C21.9308 5.44589 23.2065 5.73727 24.3551 6.25927L24.2978 6.23564C26.9888 7.67002 28.8776 10.3048 29.2568 13.4053L29.2613 13.4503L29.3738 13.4784C29.4008 13.7979 29.4165 14.1703 29.4165 14.546C29.4165 15.5169 29.3141 16.4641 29.1195 17.3776L29.1353 17.2888L29.4165 16.6981L29.4356 16.7139ZM20.1251 2.73464L19.9148 2.77627L20.1116 2.76277V2.73464H20.1251ZM19.5345 2.56589C19.8158 2.62214 20.1668 2.66377 20.1251 2.73464C20.448 2.66489 20.5189 2.59402 19.521 2.56589H19.5345ZM25.7513 16.3359C25.821 15.3223 25.5544 15.6316 25.47 16.0254C25.5679 16.0816 25.6523 16.7285 25.7513 16.3348V16.3359ZM24.6533 19.2181C24.9615 18.7963 25.1921 18.2956 25.3091 17.7534L25.3136 17.7275C25.2023 18.1179 25.0436 18.4588 24.8411 18.7681L24.8501 18.7535C23.796 19.4139 24.7523 18.3744 24.8501 17.966C23.7251 19.3858 24.696 18.8109 24.6533 19.2181ZM21.6428 19.9629C21.0803 19.9629 21.7553 20.2441 22.4876 20.3566C22.6901 20.2048 22.869 20.0529 23.0378 19.8909L23.0355 19.8931C22.7633 19.9561 22.4505 19.991 22.1299 19.991C21.9589 19.991 21.7901 19.9809 21.6236 19.9606L21.6428 19.9629Z" fill="#F8F8F8"/>
</svg>
