<svg width="565" height="106" viewBox="0 0 565 106" fill="none" xmlns="http://www.w3.org/2000/svg">
<path d="M123.181 18.1119L129.825 18.1119C134.859 18.1119 139.868 19.4196 144.851 22.0351C149.809 24.6069 153.61 28.1813 156.253 32.7584C158.896 37.3354 159.185 40.9316 157.122 43.547C155.108 46.1625 151.484 47.4702 146.249 47.4702C141.971 47.4702 137.755 46.6202 133.602 44.9201C129.45 43.2201 125.787 40.8008 122.616 37.6623L127.939 33.9353C131.79 38.0764 136.484 40.147 142.021 40.147C144.991 40.147 146.979 39.4931 147.985 38.1854C149.017 36.8341 148.879 35.0251 147.57 32.7584C146.286 30.5352 144.386 28.7698 141.869 27.4621C139.327 26.1108 136.596 25.4351 133.677 25.4351L118.274 25.4351L106.116 0.850018L135.563 0.850019L139.64 7.9117L118.197 7.9117L123.181 18.1119Z" fill="white" fill-opacity="0.29"/>
<path d="M164.926 3.00775C168.474 5.05652 171.092 7.54118 172.778 10.4618C174.465 13.3823 174.717 15.867 173.534 17.9157C172.376 19.9209 170.036 20.9235 166.512 20.9235C162.938 20.9235 159.415 19.9209 155.942 17.9157C152.393 15.867 149.775 13.3823 148.089 10.4617C146.427 7.58477 146.188 5.1219 147.371 3.07314C148.554 1.02438 150.907 1.26723e-06 154.43 1.35646e-06C157.954 1.4457e-06 161.452 1.00259 164.926 3.00775ZM163.114 15.1695C164.725 15.1695 165.782 14.7336 166.285 13.8618C166.763 12.9464 166.612 11.8131 165.832 10.4618C165.052 9.11044 163.894 7.97709 162.359 7.06168C160.823 6.14628 159.25 5.68858 157.64 5.68858C156.079 5.68858 155.06 6.14628 154.582 7.06168C154.104 7.97709 154.255 9.11044 155.035 10.4617C155.79 11.7695 156.935 12.881 158.471 13.7964C160.056 14.7118 161.604 15.1695 163.114 15.1695ZM174.819 41.9778L169.534 39.8854L184.972 6.34244L190.22 8.3694L174.819 41.9778ZM205.965 47.4048C202.391 47.4048 198.867 46.4022 195.394 44.397C191.845 42.3483 189.228 39.8636 187.541 36.9431C185.88 34.0661 185.641 31.6032 186.823 29.5544C188.006 27.5057 190.359 26.4813 193.883 26.4813C197.356 26.4813 200.867 27.5057 204.416 29.5544C207.965 31.6032 210.57 34.0661 212.231 36.9431C213.917 39.8636 214.169 42.3483 212.986 44.397C211.829 46.4022 209.488 47.4048 205.965 47.4048ZM202.567 41.6508C204.177 41.6508 205.235 41.2149 205.738 40.3431C206.216 39.4277 206.065 38.2944 205.285 36.9431C204.504 35.5917 203.346 34.4584 201.811 33.543C200.276 32.6276 198.703 32.1699 197.092 32.1699C195.532 32.1699 194.512 32.6276 194.034 33.543C193.556 34.4584 193.707 35.5917 194.488 36.9431C195.243 38.2508 196.388 39.3623 197.923 40.2777C199.509 41.1931 201.057 41.6508 202.567 41.6508Z" fill="white" fill-opacity="0.29"/>
<path d="M107.258 76.346L113.903 76.346C118.936 76.346 123.945 77.6538 128.928 80.2692C133.886 82.841 137.687 86.4155 140.33 90.9925C142.973 95.5695 143.262 99.1657 141.199 101.781C139.186 104.397 135.562 105.704 130.327 105.704C126.048 105.704 121.832 104.854 117.679 103.154C113.527 101.454 109.865 99.0349 106.693 95.8964L112.016 92.1694C115.867 96.3105 120.561 98.3811 126.098 98.3811C129.068 98.3811 131.056 97.7272 132.063 96.4195C133.094 95.0682 132.956 93.2592 131.647 90.9925C130.363 88.7694 128.463 87.0039 125.946 85.6962C123.404 84.3449 120.673 83.6693 117.754 83.6693L102.351 83.6693L90.1933 59.0841L119.64 59.0841L123.717 66.1458L102.274 66.1458L107.258 76.346Z" fill="white" fill-opacity="0.29"/>
<path d="M149.003 61.2419C152.552 63.2906 155.169 65.7753 156.856 68.6959C158.542 71.6165 158.794 74.1011 157.611 76.1499C156.453 78.155 154.113 79.1576 150.589 79.1576C147.016 79.1576 143.492 78.155 140.019 76.1499C136.47 74.1011 133.852 71.6165 132.166 68.6959C130.505 65.8189 130.265 63.356 131.448 61.3073C132.631 59.2585 134.984 58.2341 138.507 58.2341C142.031 58.2341 145.529 59.2367 149.003 61.2419ZM147.191 73.4037C148.802 73.4037 149.859 72.9678 150.362 72.0959C150.841 71.1805 150.69 70.0472 149.909 68.6959C149.129 67.3446 147.971 66.2112 146.436 65.2958C144.901 64.3804 143.327 63.9227 141.717 63.9227C140.156 63.9227 139.137 64.3804 138.659 65.2958C138.181 66.2112 138.332 67.3446 139.112 68.6959C139.867 70.0036 141.012 71.1152 142.548 72.0306C144.133 72.946 145.681 73.4037 147.191 73.4037ZM158.896 100.212L153.611 98.1195L169.049 64.5766L174.297 66.6035L158.896 100.212ZM190.042 105.639C186.468 105.639 182.944 104.636 179.471 102.631C175.922 100.582 173.305 98.0978 171.618 95.1772C169.957 92.3002 169.718 89.8373 170.901 87.7886C172.083 85.7398 174.436 84.7154 177.96 84.7154C181.433 84.7154 184.944 85.7398 188.493 87.7886C192.042 89.8373 194.647 92.3002 196.308 95.1772C197.995 98.0978 198.246 100.582 197.064 102.631C195.906 104.636 193.565 105.639 190.042 105.639ZM186.644 99.885C188.255 99.885 189.312 99.4491 189.815 98.5772C190.293 97.6618 190.142 96.5285 189.362 95.1772C188.581 93.8259 187.424 92.6925 185.888 91.7771C184.353 90.8617 182.78 90.404 181.169 90.404C179.609 90.404 178.59 90.8617 178.111 91.7771C177.633 92.6925 177.784 93.8259 178.565 95.1772C179.32 96.4849 180.465 97.5965 182 98.5119C183.586 99.4273 185.134 99.885 186.644 99.885Z" fill="white" fill-opacity="0.29"/>
<path d="M212.256 76.3463L218.901 76.3463C223.934 76.3463 228.943 77.654 233.926 80.2694C238.884 82.8413 242.685 86.4157 245.328 90.9927C247.971 95.5697 248.26 99.166 246.197 101.781C244.184 104.397 240.559 105.705 235.324 105.705C231.046 105.705 226.83 104.855 222.677 103.155C218.525 101.454 214.863 99.0352 211.691 95.8967L217.014 92.1697C220.865 96.3108 225.559 98.3813 231.096 98.3813C234.066 98.3813 236.054 97.7275 237.06 96.4198C238.092 95.0684 237.954 93.2594 236.645 90.9927C235.361 88.7696 233.461 87.0042 230.944 85.6965C228.402 84.3452 225.671 83.6695 222.752 83.6695L207.349 83.6695L195.191 59.0844L224.638 59.0844L228.715 66.1461L207.272 66.1461L212.256 76.3463Z" fill="#F8F8F8"/>
<path d="M254.001 61.2421C257.549 63.2909 260.167 65.7756 261.854 68.6961C263.54 71.6167 263.792 74.1014 262.609 76.1501C261.451 78.1553 259.111 79.1579 255.587 79.1579C252.013 79.1579 248.49 78.1553 245.017 76.1501C241.468 74.1014 238.85 71.6167 237.164 68.6961C235.502 65.8191 235.263 63.3563 236.446 61.3075C237.629 59.2588 239.982 58.2344 243.505 58.2344C247.029 58.2344 250.527 59.237 254.001 61.2421ZM252.189 73.4039C253.8 73.4039 254.857 72.968 255.36 72.0962C255.839 71.1808 255.687 70.0474 254.907 68.6961C254.127 67.3448 252.969 66.2115 251.434 65.2961C249.898 64.3807 248.325 63.923 246.715 63.923C245.154 63.923 244.135 64.3807 243.657 65.2961C243.179 66.2115 243.33 67.3448 244.11 68.6961C244.865 70.0038 246.01 71.1154 247.546 72.0308C249.131 72.9462 250.679 73.4039 252.189 73.4039ZM263.894 100.212L258.609 98.1198L274.047 64.5768L279.295 66.6038L263.894 100.212ZM295.04 105.639C291.466 105.639 287.942 104.637 284.469 102.631C280.92 100.583 278.303 98.098 276.616 95.1774C274.955 92.3004 274.716 89.8376 275.898 87.7888C277.081 85.7401 279.434 84.7157 282.958 84.7157C286.431 84.7157 289.942 85.7401 293.491 87.7888C297.04 89.8376 299.645 92.3004 301.306 95.1774C302.992 98.098 303.244 100.583 302.062 102.631C300.904 104.637 298.563 105.639 295.04 105.639ZM291.642 99.8852C293.253 99.8852 294.31 99.4493 294.813 98.5775C295.291 97.6621 295.14 96.5287 294.36 95.1774C293.579 93.8261 292.422 92.6928 290.886 91.7774C289.351 90.862 287.778 90.4043 286.167 90.4043C284.607 90.4043 283.587 90.862 283.109 91.7774C282.631 92.6928 282.782 93.8261 283.563 95.1774C284.318 96.4851 285.463 97.5967 286.998 98.5121C288.584 99.4275 290.132 99.8852 291.642 99.8852Z" fill="#F8F8F8"/>
<path d="M317.254 76.346L323.898 76.346C328.932 76.346 333.94 77.6538 338.924 80.2692C343.882 82.841 347.683 86.4155 350.326 90.9925C352.968 95.5695 353.258 99.1657 351.194 101.781C349.181 104.397 345.557 105.704 340.322 105.704C336.044 105.704 331.828 104.854 327.675 103.154C323.522 101.454 319.86 99.0349 316.689 95.8964L322.012 92.1694C325.863 96.3105 330.557 98.3811 336.093 98.3811C339.063 98.3811 341.052 97.7272 342.058 96.4195C343.09 95.0682 342.951 93.2592 341.643 90.9925C340.359 88.7694 338.459 87.0039 335.942 85.6962C333.4 84.3449 330.669 83.6693 327.749 83.6693L312.347 83.6693L300.189 59.0841L329.635 59.0841L333.713 66.1458L312.27 66.1458L317.254 76.346Z" fill="white" fill-opacity="0.29"/>
<path d="M358.998 61.2419C362.547 63.2906 365.165 65.7753 366.851 68.6959C368.538 71.6165 368.789 74.1011 367.607 76.1499C366.449 78.155 364.109 79.1576 360.585 79.1576C357.011 79.1576 353.488 78.155 350.014 76.1499C346.465 74.1011 343.848 71.6165 342.161 68.6959C340.5 65.8189 340.261 63.356 341.444 61.3073C342.626 59.2585 344.98 58.2341 348.503 58.2341C352.027 58.2341 355.525 59.2367 358.998 61.2419ZM357.187 73.4037C358.798 73.4037 359.855 72.9678 360.358 72.0959C360.836 71.1805 360.685 70.0472 359.905 68.6959C359.125 67.3446 357.967 66.2112 356.431 65.2958C354.896 64.3804 353.323 63.9227 351.712 63.9227C350.152 63.9227 349.133 64.3804 348.655 65.2958C348.176 66.2112 348.327 67.3446 349.108 68.6959C349.863 70.0036 351.008 71.1152 352.543 72.0306C354.129 72.946 355.677 73.4037 357.187 73.4037ZM368.892 100.212L363.606 98.1195L379.045 64.5766L384.292 66.6035L368.892 100.212ZM400.038 105.639C396.464 105.639 392.94 104.636 389.467 102.631C385.918 100.582 383.3 98.0978 381.614 95.1772C379.953 92.3002 379.713 89.8373 380.896 87.7886C382.079 85.7398 384.432 84.7154 387.956 84.7154C391.429 84.7154 394.94 85.7398 398.489 87.7886C402.037 89.8373 404.642 92.3002 406.304 95.1772C407.99 98.0978 408.242 100.582 407.059 102.631C405.902 104.636 403.561 105.639 400.038 105.639ZM396.639 99.885C398.25 99.885 399.307 99.4491 399.811 98.5772C400.289 97.6618 400.138 96.5285 399.357 95.1772C398.577 93.8259 397.419 92.6925 395.884 91.7771C394.349 90.8617 392.776 90.404 391.165 90.404C389.604 90.404 388.585 90.8617 388.107 91.7771C387.629 92.6925 387.78 93.8259 388.56 95.1772C389.315 96.4849 390.461 97.5965 391.996 98.5119C393.582 99.4273 395.129 99.885 396.639 99.885Z" fill="white" fill-opacity="0.29"/>
<path d="M330.817 18.1119L337.461 18.1119C342.495 18.1119 347.503 19.4196 352.487 22.0351C357.445 24.6069 361.246 28.1813 363.888 32.7584C366.531 37.3354 366.821 40.9316 364.757 43.547C362.744 46.1625 359.12 47.4702 353.885 47.4702C349.607 47.4702 345.391 46.6202 341.238 44.9201C337.085 43.2201 333.423 40.8008 330.252 37.6623L335.575 33.9353C339.426 38.0764 344.12 40.147 349.656 40.147C352.626 40.147 354.615 39.4931 355.621 38.1854C356.653 36.8341 356.514 35.0251 355.206 32.7584C353.922 30.5352 352.022 28.7698 349.505 27.4621C346.963 26.1108 344.232 25.4351 341.312 25.4351L325.91 25.4351L313.752 0.850018L343.198 0.850019L347.276 7.9117L325.833 7.9117L330.817 18.1119Z" fill="white" fill-opacity="0.29"/>
<path d="M372.561 3.00775C376.11 5.05652 378.728 7.54118 380.414 10.4618C382.101 13.3823 382.352 15.867 381.17 17.9157C380.012 19.9209 377.672 20.9235 374.148 20.9235C370.574 20.9235 367.051 19.9209 363.577 17.9157C360.028 15.867 357.411 13.3823 355.724 10.4617C354.063 7.58477 353.824 5.1219 355.007 3.07314C356.189 1.02438 358.543 1.26723e-06 362.066 1.35646e-06C365.59 1.4457e-06 369.088 1.00259 372.561 3.00775ZM370.75 15.1695C372.361 15.1695 373.418 14.7336 373.921 13.8618C374.399 12.9464 374.248 11.8131 373.468 10.4618C372.688 9.11044 371.53 7.97709 369.994 7.06168C368.459 6.14628 366.886 5.68858 365.275 5.68858C363.715 5.68858 362.696 6.14628 362.218 7.06168C361.739 7.97709 361.89 9.11044 362.671 10.4617C363.426 11.7695 364.571 12.881 366.106 13.7964C367.692 14.7118 369.24 15.1695 370.75 15.1695ZM382.455 41.9778L377.169 39.8854L392.608 6.34244L397.855 8.3694L382.455 41.9778ZM413.601 47.4048C410.027 47.4048 406.503 46.4022 403.03 44.397C399.481 42.3483 396.863 39.8636 395.177 36.9431C393.516 34.0661 393.276 31.6032 394.459 29.5544C395.642 27.5057 397.995 26.4813 401.519 26.4813C404.992 26.4813 408.503 27.5057 412.052 29.5544C415.6 31.6032 418.205 34.0661 419.867 36.9431C421.553 39.8636 421.805 42.3483 420.622 44.397C419.465 46.4022 417.124 47.4048 413.601 47.4048ZM410.202 41.6508C411.813 41.6508 412.87 41.2149 413.374 40.3431C413.852 39.4277 413.701 38.2944 412.92 36.9431C412.14 35.5917 410.982 34.4584 409.447 33.543C407.912 32.6276 406.339 32.1699 404.728 32.1699C403.167 32.1699 402.148 32.6276 401.67 33.543C401.192 34.4584 401.343 35.5917 402.123 36.9431C402.878 38.2508 404.024 39.3623 405.559 40.2777C407.145 41.1931 408.692 41.6508 410.202 41.6508Z" fill="white" fill-opacity="0.29"/>
<path d="M422.251 76.3463L428.896 76.3463C433.929 76.3463 438.938 77.654 443.921 80.2694C448.88 82.8413 452.68 86.4157 455.323 90.9927C457.966 95.5697 458.256 99.166 456.192 101.781C454.179 104.397 450.555 105.705 445.32 105.705C441.041 105.705 436.826 104.855 432.673 103.155C428.52 101.454 424.858 99.0352 421.686 95.8967L427.009 92.1697C430.86 96.3108 435.554 98.3813 441.091 98.3813C444.061 98.3813 446.049 97.7275 447.056 96.4198C448.088 95.0684 447.949 93.2594 446.64 90.9927C445.356 88.7696 443.456 87.0042 440.939 85.6965C438.397 84.3452 435.666 83.6695 432.747 83.6695L417.344 83.6695L405.186 59.0844L434.633 59.0844L438.711 66.1461L417.268 66.1461L422.251 76.3463Z" fill="#F8F8F8"/>
<path d="M463.996 61.2421C467.545 63.2909 470.162 65.7756 471.849 68.6961C473.535 71.6167 473.787 74.1014 472.604 76.1501C471.447 78.1553 469.106 79.1579 465.583 79.1579C462.009 79.1579 458.485 78.1553 455.012 76.1501C451.463 74.1014 448.845 71.6167 447.159 68.6961C445.498 65.8191 445.259 63.3563 446.441 61.3075C447.624 59.2588 449.977 58.2344 453.501 58.2344C457.024 58.2344 460.523 59.237 463.996 61.2421ZM462.185 73.4039C463.795 73.4039 464.852 72.968 465.356 72.0962C465.834 71.1808 465.683 70.0474 464.902 68.6961C464.122 67.3448 462.964 66.2115 461.429 65.2961C459.894 64.3807 458.321 63.923 456.71 63.923C455.15 63.923 454.13 64.3807 453.652 65.2961C453.174 66.2115 453.325 67.3448 454.105 68.6961C454.861 70.0038 456.006 71.1154 457.541 72.0308C459.127 72.9462 460.675 73.4039 462.185 73.4039ZM473.889 100.212L468.604 98.1198L484.042 64.5768L489.29 66.6038L473.889 100.212ZM505.035 105.639C501.461 105.639 497.938 104.637 494.464 102.631C490.916 100.583 488.298 98.098 486.612 95.1774C484.95 92.3004 484.711 89.8376 485.894 87.7888C487.077 85.7401 489.43 84.7157 492.953 84.7157C496.426 84.7157 499.937 85.7401 503.486 87.7888C507.035 89.8376 509.64 92.3004 511.301 95.1774C512.988 98.098 513.24 100.583 512.057 102.631C510.899 104.637 508.559 105.639 505.035 105.639ZM501.637 99.8852C503.248 99.8852 504.305 99.4493 504.808 98.5775C505.286 97.6621 505.135 96.5287 504.355 95.1774C503.575 93.8261 502.417 92.6928 500.882 91.7774C499.346 90.862 497.773 90.4043 496.162 90.4043C494.602 90.4043 493.583 90.862 493.105 91.7774C492.627 92.6928 492.778 93.8261 493.558 95.1774C494.313 96.4851 495.458 97.5967 496.994 98.5121C498.579 99.4275 500.127 99.8852 501.637 99.8852Z" fill="#F8F8F8"/>
<path d="M435.815 18.1119L442.459 18.1119C447.493 18.1119 452.501 19.4196 457.485 22.0351C462.443 24.6069 466.244 28.1813 468.887 32.7584C471.529 37.3354 471.819 40.9316 469.756 43.547C467.742 46.1625 464.118 47.4702 458.883 47.4702C454.605 47.4702 450.389 46.6202 446.236 44.9201C442.083 43.2201 438.421 40.8008 435.25 37.6623L440.573 33.9353C444.424 38.0764 449.118 40.147 454.655 40.147C457.624 40.147 459.613 39.4931 460.619 38.1854C461.651 36.8341 461.512 35.0251 460.204 32.7584C458.92 30.5352 457.02 28.7698 454.503 27.4621C451.961 26.1108 449.23 25.4351 446.31 25.4351L430.908 25.4351L418.75 0.850018L448.196 0.850019L452.274 7.9117L430.831 7.9117L435.815 18.1119Z" fill="#F8F8F8"/>
<path d="M477.559 3.00775C481.108 5.05652 483.726 7.54118 485.412 10.4618C487.099 13.3823 487.351 15.867 486.168 17.9157C485.01 19.9209 482.67 20.9235 479.146 20.9235C475.572 20.9235 472.049 19.9209 468.575 17.9157C465.027 15.867 462.409 13.3823 460.722 10.4617C459.061 7.58477 458.822 5.1219 460.005 3.07314C461.187 1.02438 463.541 1.26723e-06 467.064 1.35646e-06C470.588 1.4457e-06 474.086 1.00259 477.559 3.00775ZM475.748 15.1695C477.359 15.1695 478.416 14.7336 478.919 13.8618C479.397 12.9464 479.246 11.8131 478.466 10.4618C477.686 9.11044 476.528 7.97709 474.992 7.06168C473.457 6.14628 471.884 5.68858 470.273 5.68858C468.713 5.68858 467.694 6.14628 467.216 7.06168C466.737 7.97709 466.889 9.11044 467.669 10.4617C468.424 11.7695 469.569 12.881 471.104 13.7964C472.69 14.7118 474.238 15.1695 475.748 15.1695ZM487.453 41.9778L482.167 39.8854L497.606 6.34244L502.853 8.3694L487.453 41.9778ZM518.599 47.4048C515.025 47.4048 511.501 46.4022 508.028 44.397C504.479 42.3483 501.861 39.8636 500.175 36.9431C498.514 34.0661 498.274 31.6032 499.457 29.5544C500.64 27.5057 502.993 26.4813 506.517 26.4813C509.99 26.4813 513.501 27.5057 517.05 29.5544C520.598 31.6032 523.203 34.0661 524.865 36.9431C526.551 39.8636 526.803 42.3483 525.62 44.397C524.463 46.4022 522.122 47.4048 518.599 47.4048ZM515.201 41.6508C516.811 41.6508 517.868 41.2149 518.372 40.3431C518.85 39.4277 518.699 38.2944 517.918 36.9431C517.138 35.5917 515.98 34.4584 514.445 33.543C512.91 32.6276 511.337 32.1699 509.726 32.1699C508.165 32.1699 507.146 32.6276 506.668 33.543C506.19 34.4584 506.341 35.5917 507.121 36.9431C507.876 38.2508 509.022 39.3623 510.557 40.2777C512.143 41.1931 513.69 41.6508 515.201 41.6508Z" fill="#F8F8F8"/>
<path d="M227 18.1119L233.644 18.1119C238.678 18.1119 243.686 19.4196 248.669 22.0351C253.628 24.6069 257.428 28.1813 260.071 32.7584C262.714 37.3354 263.004 40.9316 260.94 43.547C258.927 46.1625 255.303 47.4702 250.068 47.4702C245.789 47.4702 241.574 46.6202 237.421 44.9201C233.268 43.2201 229.606 40.8008 226.435 37.6623L231.757 33.9353C235.608 38.0764 240.302 40.147 245.839 40.147C248.809 40.147 250.797 39.4931 251.804 38.1854C252.836 36.8341 252.697 35.0251 251.388 32.7584C250.105 30.5352 248.204 28.7698 245.687 27.4621C243.145 26.1108 240.415 25.4351 237.495 25.4351L222.092 25.4351L209.935 0.850018L239.381 0.850019L243.459 7.9117L222.016 7.9117L227 18.1119Z" fill="#F8F8F8"/>
<path d="M268.744 3.00775C272.293 5.05652 274.91 7.54118 276.597 10.4618C278.283 13.3823 278.535 15.867 277.352 17.9157C276.195 19.9209 273.854 20.9235 270.331 20.9235C266.757 20.9235 263.233 19.9209 259.76 17.9157C256.211 15.867 253.594 13.3823 251.907 10.4617C250.246 7.58477 250.007 5.1219 251.189 3.07314C252.372 1.02438 254.725 1.26723e-06 258.249 1.35646e-06C261.772 1.4457e-06 265.271 1.00259 268.744 3.00775ZM266.933 15.1695C268.543 15.1695 269.6 14.7336 270.104 13.8618C270.582 12.9464 270.431 11.8131 269.651 10.4618C268.87 9.11044 267.712 7.97709 266.177 7.06168C264.642 6.14628 263.069 5.68858 261.458 5.68858C259.898 5.68858 258.878 6.14628 258.4 7.06168C257.922 7.97709 258.073 9.11044 258.853 10.4617C259.609 11.7695 260.754 12.881 262.289 13.7964C263.875 14.7118 265.423 15.1695 266.933 15.1695ZM278.638 41.9778L273.352 39.8854L288.791 6.34244L294.038 8.3694L278.638 41.9778ZM309.783 47.4048C306.209 47.4048 302.686 46.4022 299.213 44.397C295.664 42.3483 293.046 39.8636 291.36 36.9431C289.698 34.0661 289.459 31.6032 290.642 29.5544C291.825 27.5057 294.178 26.4813 297.701 26.4813C301.174 26.4813 304.685 27.5057 308.234 29.5544C311.783 31.6032 314.388 34.0661 316.049 36.9431C317.736 39.8636 317.988 42.3483 316.805 44.397C315.647 46.4022 313.307 47.4048 309.783 47.4048ZM306.385 41.6508C307.996 41.6508 309.053 41.2149 309.556 40.3431C310.034 39.4277 309.883 38.2944 309.103 36.9431C308.323 35.5917 307.165 34.4584 305.63 33.543C304.094 32.6276 302.521 32.1699 300.911 32.1699C299.35 32.1699 298.331 32.6276 297.853 33.543C297.375 34.4584 297.526 35.5917 298.306 36.9431C299.061 38.2508 300.206 39.3623 301.742 40.2777C303.327 41.1931 304.875 41.6508 306.385 41.6508Z" fill="#F8F8F8"/>
<path d="M22.3127 18.1121L28.957 18.1121C33.9906 18.1121 38.9991 19.4199 43.9826 22.0353C48.9408 24.6071 52.7414 28.1816 55.3843 32.7586C58.0273 37.3356 58.3169 40.9318 56.2533 43.5473C54.2401 46.1627 50.6159 47.4704 45.381 47.4704C41.1025 47.4704 36.8868 46.6204 32.7339 44.9204C28.5811 43.2203 24.919 40.8011 21.7477 37.6625L27.0704 33.9355C30.9214 38.0767 35.6154 40.1472 41.1523 40.1472C44.1221 40.1472 46.1104 39.4933 47.117 38.1856C48.1488 36.8343 48.0103 35.0253 46.7014 32.7586C45.4177 30.5355 43.5174 28.7701 41.0005 27.4623C38.4585 26.111 35.7277 25.4354 32.8082 25.4354L17.4054 25.4354L5.2477 0.850262L34.6942 0.850262L38.7719 7.91194L17.3288 7.91194L22.3127 18.1121Z" fill="#F8F8F8"/>
<path d="M64.0571 3.008C67.606 5.05676 70.2236 7.54142 71.91 10.462C73.5965 13.3826 73.8483 15.8672 72.6655 17.916C71.5079 19.9212 69.1674 20.9237 65.6439 20.9237C62.07 20.9237 58.5464 19.9212 55.0731 17.916C51.5243 15.8672 48.9067 13.3826 47.2202 10.462C45.559 7.58501 45.3197 5.12214 46.5025 3.07339C47.6852 1.02462 50.0384 0.000244141 53.5619 0.000244141C57.0854 0.000244141 60.5838 1.00283 64.0571 3.008ZM62.2458 15.1698C63.8566 15.1698 64.9136 14.7339 65.4169 13.8621C65.895 12.9467 65.744 11.8133 64.9637 10.462C64.1834 9.11068 63.0256 7.97733 61.4903 7.06193C59.955 6.14652 58.3819 5.68882 56.7712 5.68882C55.2108 5.68882 54.1915 6.14652 53.7134 7.06193C53.2352 7.97733 53.3863 9.11068 54.1666 10.462C54.9217 11.7697 56.0669 12.8813 57.6022 13.7967C59.1879 14.7121 60.7357 15.1698 62.2458 15.1698ZM73.9506 41.978L68.6652 39.8857L84.1037 6.34268L89.3513 8.36964L73.9506 41.978ZM105.096 47.405C101.523 47.405 97.9989 46.4025 94.5256 44.3973C90.9768 42.3485 88.3592 39.8639 86.6727 36.9433C85.0115 34.0663 84.7722 31.6034 85.955 29.5547C87.1377 27.5059 89.4909 26.4815 93.0144 26.4815C96.4876 26.4815 99.9986 27.5059 103.547 29.5547C107.096 31.6034 109.701 34.0663 111.363 36.9433C113.049 39.8639 113.301 42.3485 112.118 44.3973C110.96 46.4025 108.62 47.405 105.096 47.405ZM101.698 41.6511C103.309 41.6511 104.366 41.2152 104.869 40.3434C105.348 39.428 105.196 38.2946 104.416 36.9433C103.636 35.592 102.478 34.4586 100.943 33.5432C99.4075 32.6278 97.8344 32.1701 96.2237 32.1701C94.6633 32.1701 93.644 32.6278 93.1659 33.5432C92.6877 34.4586 92.8388 35.592 93.6191 36.9433C94.3742 38.251 95.5194 39.3626 97.0547 40.278C98.6404 41.1934 100.188 41.6511 101.698 41.6511Z" fill="#F8F8F8"/>
</svg>
