<svg width="565" height="106" viewBox="0 0 565 106" fill="none" xmlns="http://www.w3.org/2000/svg">
<path d="M123.181 18.1118L129.826 18.1118C134.859 18.1118 139.868 19.4195 144.851 22.0349C149.809 24.6068 153.61 28.1812 156.253 32.7582C158.896 37.3352 159.185 40.9315 157.122 43.5469C155.109 46.1623 151.484 47.4701 146.25 47.4701C141.971 47.4701 137.755 46.62 133.602 44.92C129.45 43.22 125.788 40.8007 122.616 37.6622L127.939 33.9352C131.79 38.0763 136.484 40.1468 142.021 40.1468C144.991 40.1468 146.979 39.493 147.986 38.1853C149.017 36.8339 148.879 35.0249 147.57 32.7582C146.286 30.5351 144.386 28.7697 141.869 27.462C139.327 26.1107 136.596 25.435 133.677 25.435L118.274 25.435L106.116 0.849896L135.563 0.849897L139.64 7.91158L118.197 7.91158L123.181 18.1118Z" fill="black" fill-opacity="0.29"/>
<path d="M164.926 3.00763C168.474 5.05639 171.092 7.54106 172.779 10.4616C174.465 13.3822 174.717 15.8669 173.534 17.9156C172.376 19.9208 170.036 20.9234 166.512 20.9234C162.939 20.9234 159.415 19.9208 155.942 17.9156C152.393 15.8669 149.775 13.3822 148.089 10.4616C146.427 7.58465 146.188 5.12178 147.371 3.07302C148.554 1.02426 150.907 -0.000120803 154.43 -0.000120714C157.954 -0.000120625 161.452 1.00246 164.926 3.00763ZM163.114 15.1694C164.725 15.1694 165.782 14.7335 166.285 13.8617C166.764 12.9463 166.612 11.8129 165.832 10.4616C165.052 9.11032 163.894 7.97696 162.359 7.06156C160.823 6.14616 159.25 5.68846 157.64 5.68846C156.079 5.68846 155.06 6.14616 154.582 7.06156C154.104 7.97696 154.255 9.11032 155.035 10.4616C155.79 11.7693 156.935 12.8809 158.471 13.7963C160.056 14.7117 161.604 15.1694 163.114 15.1694ZM174.819 41.9776L169.534 39.8853L184.972 6.34231L190.22 8.36928L174.819 41.9776ZM205.965 47.4047C202.391 47.4047 198.867 46.4021 195.394 44.3969C191.845 42.3482 189.228 39.8635 187.541 36.9429C185.88 34.0659 185.641 31.6031 186.824 29.5543C188.006 27.5056 190.359 26.4812 193.883 26.4812C197.356 26.4812 200.867 27.5056 204.416 29.5543C207.965 31.6031 210.57 34.0659 212.231 36.9429C213.917 39.8635 214.169 42.3482 212.987 44.3969C211.829 46.4021 209.488 47.4047 205.965 47.4047ZM202.567 41.6507C204.178 41.6507 205.235 41.2148 205.738 40.343C206.216 39.4276 206.065 38.2942 205.285 36.9429C204.504 35.5916 203.347 34.4583 201.811 33.5429C200.276 32.6275 198.703 32.1698 197.092 32.1698C195.532 32.1698 194.513 32.6275 194.034 33.5429C193.556 34.4583 193.707 35.5916 194.488 36.9429C195.243 38.2506 196.388 39.3622 197.923 40.2776C199.509 41.193 201.057 41.6507 202.567 41.6507Z" fill="black" fill-opacity="0.29"/>
<path d="M107.258 76.3462L113.903 76.3462C118.936 76.3462 123.945 77.6539 128.928 80.2693C133.887 82.8412 137.687 86.4156 140.33 90.9926C142.973 95.5696 143.263 99.1658 141.199 101.781C139.186 104.397 135.562 105.704 130.327 105.704C126.048 105.704 121.832 104.854 117.68 103.154C113.527 101.454 109.865 99.0351 106.693 95.8965L112.016 92.1695C115.867 96.3107 120.561 98.3812 126.098 98.3812C129.068 98.3812 131.056 97.7274 132.063 96.4196C133.094 95.0683 132.956 93.2593 131.647 90.9926C130.363 88.7695 128.463 87.0041 125.946 85.6963C123.404 84.345 120.673 83.6694 117.754 83.6694L102.351 83.6694L90.1934 59.0843L119.64 59.0843L123.718 66.146L102.274 66.146L107.258 76.3462Z" fill="black" fill-opacity="0.29"/>
<path d="M149.003 61.242C152.552 63.2908 155.169 65.7754 156.856 68.696C158.542 71.6166 158.794 74.1012 157.611 76.15C156.454 78.1552 154.113 79.1578 150.59 79.1578C147.016 79.1578 143.492 78.1552 140.019 76.15C136.47 74.1012 133.852 71.6166 132.166 68.696C130.505 65.819 130.265 63.3562 131.448 61.3074C132.631 59.2586 134.984 58.2343 138.508 58.2343C142.031 58.2343 145.53 59.2368 149.003 61.242ZM147.192 73.4038C148.802 73.4038 149.859 72.9679 150.363 72.0961C150.841 71.1807 150.69 70.0473 149.909 68.696C149.129 67.3447 147.971 66.2113 146.436 65.2959C144.901 64.3805 143.328 63.9228 141.717 63.9228C140.156 63.9228 139.137 64.3805 138.659 65.2959C138.181 66.2113 138.332 67.3447 139.112 68.696C139.867 70.0037 141.013 71.1153 142.548 72.0307C144.134 72.9461 145.681 73.4038 147.192 73.4038ZM158.896 100.212L153.611 98.1197L169.049 64.5767L174.297 66.6037L158.896 100.212ZM190.042 105.639C186.468 105.639 182.945 104.636 179.471 102.631C175.922 100.583 173.305 98.0979 171.618 95.1773C169.957 92.3003 169.718 89.8375 170.901 87.7887C172.083 85.7399 174.437 84.7156 177.96 84.7156C181.433 84.7156 184.944 85.7399 188.493 87.7887C192.042 89.8375 194.647 92.3003 196.308 95.1773C197.995 98.0979 198.246 100.583 197.064 102.631C195.906 104.636 193.566 105.639 190.042 105.639ZM186.644 99.8851C188.255 99.8851 189.312 99.4492 189.815 98.5774C190.293 97.662 190.142 96.5286 189.362 95.1773C188.582 93.826 187.424 92.6926 185.888 91.7772C184.353 90.8618 182.78 90.4041 181.169 90.4041C179.609 90.4041 178.59 90.8618 178.112 91.7772C177.633 92.6926 177.784 93.826 178.565 95.1773C179.32 96.485 180.465 97.5966 182 98.512C183.586 99.4274 185.134 99.8851 186.644 99.8851Z" fill="black" fill-opacity="0.29"/>
<path d="M212.256 76.3464L218.901 76.3464C223.934 76.3464 228.943 77.6541 233.926 80.2696C238.885 82.8414 242.685 86.4158 245.328 90.9928C247.971 95.5699 248.261 99.1661 246.197 101.782C244.184 104.397 240.56 105.705 235.325 105.705C231.046 105.705 226.83 104.855 222.678 103.155C218.525 101.455 214.863 99.0353 211.691 95.8968L217.014 92.1698C220.865 96.3109 225.559 98.3815 231.096 98.3815C234.066 98.3815 236.054 97.7276 237.061 96.4199C238.093 95.0686 237.954 93.2596 236.645 90.9928C235.361 88.7697 233.461 87.0043 230.944 85.6966C228.402 84.3453 225.671 83.6696 222.752 83.6696L207.349 83.6696L195.191 59.0845L224.638 59.0845L228.716 66.1462L207.273 66.1462L212.256 76.3464Z" fill="black"/>
<path d="M254.001 61.2423C257.55 63.291 260.167 65.7757 261.854 68.6962C263.54 71.6168 263.792 74.1015 262.609 76.1502C261.452 78.1554 259.111 79.158 255.588 79.158C252.014 79.158 248.49 78.1554 245.017 76.1502C241.468 74.1015 238.85 71.6168 237.164 68.6962C235.503 65.8193 235.263 63.3564 236.446 61.3076C237.629 59.2589 239.982 58.2345 243.506 58.2345C247.029 58.2345 250.528 59.2371 254.001 61.2423ZM252.19 73.404C253.8 73.404 254.857 72.9681 255.361 72.0963C255.839 71.1809 255.688 70.0476 254.907 68.6962C254.127 67.3449 252.969 66.2116 251.434 65.2962C249.899 64.3808 248.326 63.9231 246.715 63.9231C245.154 63.9231 244.135 64.3808 243.657 65.2962C243.179 66.2116 243.33 67.3449 244.11 68.6962C244.865 70.004 246.011 71.1155 247.546 72.0309C249.132 72.9463 250.679 73.404 252.19 73.404ZM263.894 100.212L258.609 98.1199L274.047 64.5769L279.295 66.6039L263.894 100.212ZM295.04 105.639C291.466 105.639 287.943 104.637 284.469 102.632C280.921 100.583 278.303 98.0981 276.616 95.1775C274.955 92.3006 274.716 89.8377 275.899 87.7889C277.081 85.7402 279.435 84.7158 282.958 84.7158C286.431 84.7158 289.942 85.7402 293.491 87.7889C297.04 89.8377 299.645 92.3006 301.306 95.1775C302.993 98.0981 303.245 100.583 302.062 102.632C300.904 104.637 298.564 105.639 295.04 105.639ZM291.642 99.8853C293.253 99.8853 294.31 99.4494 294.813 98.5776C295.291 97.6622 295.14 96.5289 294.36 95.1775C293.58 93.8262 292.422 92.6929 290.886 91.7775C289.351 90.8621 287.778 90.4044 286.167 90.4044C284.607 90.4044 283.588 90.8621 283.11 91.7775C282.631 92.6929 282.783 93.8262 283.563 95.1775C284.318 96.4853 285.463 97.5968 286.998 98.5122C288.584 99.4276 290.132 99.8853 291.642 99.8853Z" fill="black"/>
<path d="M317.254 76.3462L323.898 76.3462C328.932 76.3462 333.94 77.6539 338.924 80.2693C343.882 82.8412 347.683 86.4156 350.326 90.9926C352.969 95.5696 353.258 99.1658 351.195 101.781C349.181 104.397 345.557 105.704 340.322 105.704C336.044 105.704 331.828 104.854 327.675 103.154C323.522 101.454 319.86 99.0351 316.689 95.8965L322.012 92.1695C325.863 96.3107 330.557 98.3812 336.094 98.3812C339.063 98.3812 341.052 97.7274 342.058 96.4196C343.09 95.0683 342.952 93.2593 341.643 90.9926C340.359 88.7695 338.459 87.0041 335.942 85.6963C333.4 84.345 330.669 83.6694 327.749 83.6694L312.347 83.6694L300.189 59.0843L329.636 59.0843L333.713 66.146L312.27 66.146L317.254 76.3462Z" fill="black" fill-opacity="0.29"/>
<path d="M358.998 61.242C362.547 63.2908 365.165 65.7754 366.851 68.696C368.538 71.6166 368.79 74.1012 367.607 76.15C366.449 78.1552 364.109 79.1578 360.585 79.1578C357.011 79.1578 353.488 78.1552 350.014 76.15C346.466 74.1012 343.848 71.6166 342.162 68.696C340.5 65.819 340.261 63.3562 341.444 61.3074C342.627 59.2586 344.98 58.2343 348.503 58.2343C352.027 58.2343 355.525 59.2368 358.998 61.242ZM357.187 73.4038C358.798 73.4038 359.855 72.9679 360.358 72.0961C360.836 71.1807 360.685 70.0473 359.905 68.696C359.125 67.3447 357.967 66.2113 356.432 65.2959C354.896 64.3805 353.323 63.9228 351.712 63.9228C350.152 63.9228 349.133 64.3805 348.655 65.2959C348.177 66.2113 348.328 67.3447 349.108 68.696C349.863 70.0037 351.008 71.1153 352.544 72.0307C354.129 72.9461 355.677 73.4038 357.187 73.4038ZM368.892 100.212L363.607 98.1197L379.045 64.5767L384.293 66.6037L368.892 100.212ZM400.038 105.639C396.464 105.639 392.94 104.636 389.467 102.631C385.918 100.583 383.3 98.0979 381.614 95.1773C379.953 92.3003 379.713 89.8375 380.896 87.7887C382.079 85.7399 384.432 84.7156 387.956 84.7156C391.429 84.7156 394.94 85.7399 398.489 87.7887C402.037 89.8375 404.643 92.3003 406.304 95.1773C407.99 98.0979 408.242 100.583 407.059 102.631C405.902 104.636 403.561 105.639 400.038 105.639ZM396.64 99.8851C398.25 99.8851 399.307 99.4492 399.811 98.5774C400.289 97.662 400.138 96.5286 399.357 95.1773C398.577 93.826 397.419 92.6926 395.884 91.7772C394.349 90.8618 392.776 90.4041 391.165 90.4041C389.605 90.4041 388.585 90.8618 388.107 91.7772C387.629 92.6926 387.78 93.826 388.56 95.1773C389.316 96.485 390.461 97.5966 391.996 98.512C393.582 99.4274 395.13 99.8851 396.64 99.8851Z" fill="black" fill-opacity="0.29"/>
<path d="M330.817 18.1119L337.461 18.1119C342.495 18.1119 347.503 19.4196 352.487 22.0351C357.445 24.6069 361.246 28.1813 363.889 32.7584C366.532 37.3354 366.821 40.9316 364.758 43.547C362.744 46.1625 359.12 47.4702 353.885 47.4702C349.607 47.4702 345.391 46.6202 341.238 44.9201C337.085 43.2201 333.423 40.8008 330.252 37.6623L335.575 33.9353C339.426 38.0764 344.12 40.147 349.657 40.147C352.626 40.147 354.615 39.4931 355.621 38.1854C356.653 36.8341 356.515 35.0251 355.206 32.7584C353.922 30.5352 352.022 28.7698 349.505 27.4621C346.963 26.1108 344.232 25.4351 341.312 25.4351L325.91 25.4351L313.752 0.850018L343.199 0.850019L347.276 7.9117L325.833 7.9117L330.817 18.1119Z" fill="black" fill-opacity="0.29"/>
<path d="M372.561 3.00775C376.11 5.05652 378.728 7.54118 380.414 10.4618C382.101 13.3823 382.353 15.867 381.17 17.9157C380.012 19.9209 377.672 20.9235 374.148 20.9235C370.574 20.9235 367.051 19.9209 363.577 17.9157C360.029 15.867 357.411 13.3823 355.725 10.4617C354.063 7.58477 353.824 5.1219 355.007 3.07314C356.19 1.02438 358.543 1.26723e-06 362.066 1.35646e-06C365.59 1.4457e-06 369.088 1.00259 372.561 3.00775ZM370.75 15.1695C372.361 15.1695 373.418 14.7336 373.921 13.8618C374.399 12.9464 374.248 11.8131 373.468 10.4618C372.688 9.11044 371.53 7.97709 369.995 7.06168C368.459 6.14628 366.886 5.68858 365.275 5.68858C363.715 5.68858 362.696 6.14628 362.218 7.06168C361.739 7.97709 361.891 9.11044 362.671 10.4617C363.426 11.7695 364.571 12.881 366.107 13.7964C367.692 14.7118 369.24 15.1695 370.75 15.1695ZM382.455 41.9778L377.17 39.8854L392.608 6.34244L397.856 8.3694L382.455 41.9778ZM413.601 47.4048C410.027 47.4048 406.503 46.4022 403.03 44.397C399.481 42.3483 396.863 39.8636 395.177 36.9431C393.516 34.0661 393.276 31.6032 394.459 29.5544C395.642 27.5057 397.995 26.4813 401.519 26.4813C404.992 26.4813 408.503 27.5057 412.052 29.5544C415.6 31.6032 418.206 34.0661 419.867 36.9431C421.553 39.8636 421.805 42.3483 420.622 44.397C419.465 46.4022 417.124 47.4048 413.601 47.4048ZM410.203 41.6508C411.813 41.6508 412.87 41.2149 413.374 40.3431C413.852 39.4277 413.701 38.2944 412.92 36.9431C412.14 35.5917 410.982 34.4584 409.447 33.543C407.912 32.6276 406.339 32.1699 404.728 32.1699C403.168 32.1699 402.148 32.6276 401.67 33.543C401.192 34.4584 401.343 35.5917 402.123 36.9431C402.878 38.2508 404.024 39.3623 405.559 40.2777C407.145 41.1931 408.693 41.6508 410.203 41.6508Z" fill="black" fill-opacity="0.29"/>
<path d="M422.252 76.3462L428.896 76.3462C433.929 76.3462 438.938 77.6539 443.921 80.2694C448.88 82.8412 452.68 86.4157 455.323 90.9927C457.966 95.5697 458.256 99.1659 456.192 101.781C454.179 104.397 450.555 105.704 445.32 105.704C441.041 105.704 436.826 104.854 432.673 103.154C428.52 101.454 424.858 99.0351 421.686 95.8966L427.009 92.1696C430.86 96.3107 435.554 98.3813 441.091 98.3813C444.061 98.3813 446.049 97.7274 447.056 96.4197C448.088 95.0684 447.949 93.2594 446.64 90.9927C445.357 88.7695 443.456 87.0041 440.939 85.6964C438.397 84.3451 435.667 83.6694 432.747 83.6694L417.344 83.6694L405.187 59.0843L434.633 59.0843L438.711 66.146L417.268 66.146L422.252 76.3462Z" fill="black"/>
<path d="M463.996 61.2421C467.545 63.2908 470.162 65.7755 471.849 68.6961C473.535 71.6166 473.787 74.1013 472.604 76.1501C471.447 78.1552 469.106 79.1578 465.583 79.1578C462.009 79.1578 458.485 78.1552 455.012 76.1501C451.463 74.1013 448.846 71.6166 447.159 68.6961C445.498 65.8191 445.259 63.3562 446.441 61.3075C447.624 59.2587 449.977 58.2343 453.501 58.2343C457.024 58.2343 460.523 59.2369 463.996 61.2421ZM462.185 73.4038C463.795 73.4038 464.852 72.9679 465.356 72.0961C465.834 71.1807 465.683 70.0474 464.903 68.6961C464.122 67.3448 462.964 66.2114 461.429 65.296C459.894 64.3806 458.321 63.9229 456.71 63.9229C455.15 63.9229 454.13 64.3806 453.652 65.296C453.174 66.2114 453.325 67.3448 454.105 68.6961C454.861 70.0038 456.006 71.1153 457.541 72.0307C459.127 72.9461 460.675 73.4038 462.185 73.4038ZM473.889 100.212L468.604 98.1197L484.042 64.5768L489.29 66.6037L473.889 100.212ZM505.035 105.639C501.461 105.639 497.938 104.637 494.464 102.631C490.916 100.583 488.298 98.0979 486.612 95.1774C484.95 92.3004 484.711 89.8375 485.894 87.7888C487.077 85.74 489.43 84.7156 492.953 84.7156C496.426 84.7156 499.937 85.74 503.486 87.7888C507.035 89.8375 509.64 92.3004 511.301 95.1774C512.988 98.0979 513.24 100.583 512.057 102.631C510.899 104.637 508.559 105.639 505.035 105.639ZM501.637 99.8852C503.248 99.8852 504.305 99.4492 504.808 98.5774C505.286 97.662 505.135 96.5287 504.355 95.1774C503.575 93.8261 502.417 92.6927 500.882 91.7773C499.346 90.8619 497.773 90.4042 496.163 90.4042C494.602 90.4042 493.583 90.8619 493.105 91.7773C492.627 92.6927 492.778 93.8261 493.558 95.1774C494.313 96.4851 495.458 97.5966 496.994 98.512C498.579 99.4274 500.127 99.8852 501.637 99.8852Z" fill="black"/>
<path d="M435.815 18.112L442.459 18.112C447.493 18.112 452.501 19.4197 457.485 22.0351C462.443 24.607 466.244 28.1814 468.887 32.7584C471.53 37.3354 471.819 40.9317 469.756 43.5471C467.742 46.1625 464.118 47.4702 458.883 47.4702C454.605 47.4702 450.389 46.6202 446.236 44.9202C442.083 43.2202 438.421 40.8009 435.25 37.6624L440.573 33.9354C444.424 38.0765 449.118 40.147 454.655 40.147C457.624 40.147 459.613 39.4932 460.619 38.1854C461.651 36.8341 461.513 35.0251 460.204 32.7584C458.92 30.5353 457.02 28.7699 454.503 27.4622C451.961 26.1108 449.23 25.4352 446.311 25.4352L430.908 25.4352L418.75 0.850079L448.197 0.85008L452.274 7.91176L430.831 7.91176L435.815 18.112Z" fill="black"/>
<path d="M477.559 3.00782C481.108 5.05658 483.726 7.54124 485.412 10.4618C487.099 13.3824 487.351 15.867 486.168 17.9158C485.01 19.921 482.67 20.9236 479.146 20.9236C475.572 20.9236 472.049 19.921 468.575 17.9158C465.027 15.867 462.409 13.3824 460.723 10.4618C459.061 7.58483 458.822 5.12196 460.005 3.0732C461.188 1.02444 463.541 6.23024e-05 467.064 6.23916e-05C470.588 6.24809e-05 474.086 1.00265 477.559 3.00782ZM475.748 15.1696C477.359 15.1696 478.416 14.7337 478.919 13.8619C479.397 12.9465 479.246 11.8131 478.466 10.4618C477.686 9.1105 476.528 7.97715 474.993 7.06174C473.457 6.14634 471.884 5.68864 470.274 5.68864C468.713 5.68864 467.694 6.14634 467.216 7.06174C466.738 7.97715 466.889 9.1105 467.669 10.4618C468.424 11.7695 469.569 12.8811 471.105 13.7965C472.69 14.7119 474.238 15.1696 475.748 15.1696ZM487.453 41.9778L482.168 39.8855L497.606 6.3425L502.854 8.36946L487.453 41.9778ZM518.599 47.4049C515.025 47.4049 511.501 46.4023 508.028 44.3971C504.479 42.3483 501.861 39.8637 500.175 36.9431C498.514 34.0661 498.275 31.6033 499.457 29.5545C500.64 27.5057 502.993 26.4814 506.517 26.4814C509.99 26.4814 513.501 27.5057 517.05 29.5545C520.599 31.6033 523.204 34.0661 524.865 36.9431C526.551 39.8637 526.803 42.3483 525.62 44.3971C524.463 46.4023 522.122 47.4049 518.599 47.4049ZM515.201 41.6509C516.811 41.6509 517.868 41.215 518.372 40.3432C518.85 39.4278 518.699 38.2944 517.918 36.9431C517.138 35.5918 515.98 34.4584 514.445 33.543C512.91 32.6276 511.337 32.1699 509.726 32.1699C508.166 32.1699 507.146 32.6276 506.668 33.543C506.19 34.4584 506.341 35.5918 507.121 36.9431C507.877 38.2508 509.022 39.3624 510.557 40.2778C512.143 41.1932 513.691 41.6509 515.201 41.6509Z" fill="black"/>
<path d="M227 18.1119L233.644 18.1119C238.678 18.1119 243.686 19.4196 248.669 22.0351C253.628 24.6069 257.428 28.1813 260.071 32.7584C262.714 37.3354 263.004 40.9316 260.94 43.547C258.927 46.1625 255.303 47.4702 250.068 47.4702C245.789 47.4702 241.574 46.6202 237.421 44.9201C233.268 43.2201 229.606 40.8008 226.435 37.6623L231.757 33.9353C235.608 38.0764 240.302 40.147 245.839 40.147C248.809 40.147 250.797 39.4931 251.804 38.1854C252.836 36.8341 252.697 35.0251 251.388 32.7584C250.105 30.5352 248.204 28.7698 245.687 27.4621C243.145 26.1108 240.415 25.4351 237.495 25.4351L222.092 25.4351L209.935 0.850018L239.381 0.850019L243.459 7.9117L222.016 7.9117L227 18.1119Z" fill="black"/>
<path d="M268.744 3.00775C272.293 5.05652 274.91 7.54118 276.597 10.4618C278.283 13.3823 278.535 15.867 277.352 17.9157C276.195 19.9209 273.854 20.9235 270.331 20.9235C266.757 20.9235 263.233 19.9209 259.76 17.9157C256.211 15.867 253.594 13.3823 251.907 10.4617C250.246 7.58477 250.007 5.1219 251.189 3.07314C252.372 1.02438 254.725 1.26723e-06 258.249 1.35646e-06C261.772 1.4457e-06 265.271 1.00259 268.744 3.00775ZM266.933 15.1695C268.543 15.1695 269.6 14.7336 270.104 13.8618C270.582 12.9464 270.431 11.8131 269.651 10.4618C268.87 9.11044 267.712 7.97709 266.177 7.06168C264.642 6.14628 263.069 5.68858 261.458 5.68858C259.898 5.68858 258.878 6.14628 258.4 7.06168C257.922 7.97709 258.073 9.11044 258.853 10.4617C259.609 11.7695 260.754 12.881 262.289 13.7964C263.875 14.7118 265.423 15.1695 266.933 15.1695ZM278.638 41.9778L273.352 39.8854L288.791 6.34244L294.038 8.3694L278.638 41.9778ZM309.783 47.4048C306.209 47.4048 302.686 46.4022 299.213 44.397C295.664 42.3483 293.046 39.8636 291.36 36.9431C289.698 34.0661 289.459 31.6032 290.642 29.5544C291.825 27.5057 294.178 26.4813 297.701 26.4813C301.174 26.4813 304.685 27.5057 308.234 29.5544C311.783 31.6032 314.388 34.0661 316.049 36.9431C317.736 39.8636 317.988 42.3483 316.805 44.397C315.647 46.4022 313.307 47.4048 309.783 47.4048ZM306.385 41.6508C307.996 41.6508 309.053 41.2149 309.556 40.3431C310.034 39.4277 309.883 38.2944 309.103 36.9431C308.323 35.5917 307.165 34.4584 305.63 33.543C304.094 32.6276 302.521 32.1699 300.911 32.1699C299.35 32.1699 298.331 32.6276 297.853 33.543C297.375 34.4584 297.526 35.5917 298.306 36.9431C299.061 38.2508 300.206 39.3623 301.742 40.2777C303.327 41.1931 304.875 41.6508 306.385 41.6508Z" fill="black"/>
<path d="M22.3126 18.1121L28.9569 18.1121C33.9905 18.1121 38.999 19.4198 43.9824 22.0352C48.9407 24.6071 52.7413 28.1815 55.3842 32.7585C58.0271 37.3355 58.3168 40.9318 56.2532 43.5472C54.2399 46.1626 50.6158 47.4704 45.3809 47.4704C41.1023 47.4704 36.8866 46.6203 32.7338 44.9203C28.581 43.2203 24.9189 40.801 21.7475 37.6625L27.0703 33.9355C30.9213 38.0766 35.6152 40.1471 41.1522 40.1471C44.122 40.1471 46.1103 39.4933 47.1169 38.1856C48.1487 36.8343 48.0101 35.0252 46.7013 32.7585C45.4176 30.5354 43.5173 28.77 41.0004 27.4623C38.4583 26.111 35.7276 25.4353 32.8081 25.4353L17.4053 25.4353L5.24758 0.850201L34.6941 0.850201L38.7718 7.91188L17.3287 7.91188L22.3126 18.1121Z" fill="black"/>
<path d="M64.057 3.00794C67.6058 5.0567 70.2235 7.54136 71.9099 10.4619C73.5963 13.3825 73.8482 15.8672 72.6654 17.9159C71.5078 19.9211 69.1673 20.9237 65.6437 20.9237C62.0699 20.9237 58.5463 19.9211 55.073 17.9159C51.5242 15.8672 48.9066 13.3825 47.2201 10.4619C45.5588 7.58495 45.3196 5.12208 46.5024 3.07332C47.6851 1.02456 50.0383 0.000183105 53.5618 0.000183105C57.0853 0.000183105 60.5837 1.00277 64.057 3.00794ZM62.2457 15.1697C63.8564 15.1697 64.9135 14.7338 65.4168 13.862C65.8949 12.9466 65.7438 11.8132 64.9635 10.4619C64.1832 9.11062 63.0254 7.97727 61.4901 7.06187C59.9548 6.14646 58.3818 5.68876 56.7711 5.68876C55.2106 5.68876 54.1914 6.14646 53.7132 7.06187C53.2351 7.97727 53.3862 9.11062 54.1665 10.4619C54.9216 11.7697 56.0668 12.8812 57.6021 13.7966C59.1878 14.712 60.7356 15.1697 62.2457 15.1697ZM73.9505 41.978L68.6651 39.8856L84.1035 6.34262L89.3512 8.36958L73.9505 41.978ZM105.096 47.405C101.522 47.405 97.9988 46.4024 94.5255 44.3972C90.9767 42.3485 88.359 39.8638 86.6726 36.9432C85.0113 34.0663 84.7721 31.6034 85.9548 29.5546C87.1376 27.5059 89.4908 26.4815 93.0143 26.4815C96.4875 26.4815 99.9985 27.5059 103.547 29.5546C107.096 31.6034 109.701 34.0663 111.362 36.9432C113.049 39.8638 113.301 42.3485 112.118 44.3972C110.96 46.4024 108.62 47.405 105.096 47.405ZM101.698 41.651C103.309 41.651 104.366 41.2151 104.869 40.3433C105.347 39.4279 105.196 38.2945 104.416 36.9432C103.636 35.5919 102.478 34.4586 100.943 33.5432C99.4073 32.6278 97.8343 32.1701 96.2236 32.1701C94.6631 32.1701 93.6439 32.6278 93.1657 33.5432C92.6876 34.4586 92.8387 35.5919 93.619 36.9432C94.3741 38.251 95.5193 39.3625 97.0546 40.2779C98.6403 41.1933 100.188 41.651 101.698 41.651Z" fill="black"/>
</svg>
