<svg width="40" height="40" viewBox="0 0 40 40" fill="none" xmlns="http://www.w3.org/2000/svg">
<g clip-path="url(#clip0_2020_90)">
<circle cx="20" cy="20" r="20" fill="rgba(255, 255, 255, 1)"/>
<path d="M21.9411 10.4337C20.8671 9.81326 19.1252 9.81311 18.0509 10.4333L7.00331 16.8113C6.46512 17.122 6.1966 17.5294 6.19776 17.9366L6.20005 22.3049C6.1959 22.7144 6.4644 23.1246 7.00556 23.437L18.0515 29.814C19.1256 30.4341 20.867 30.4341 21.9411 29.814L32.987 23.437C33.5373 23.1289 33.8058 22.7225 33.8024 22.3156L33.791 17.9366C33.7911 17.5303 33.5227 17.124 32.9859 16.8139L21.9411 10.4337Z" fill="#D1D1D1"/>
<path d="M21.8679 10.8797C20.7946 10.2596 19.0537 10.2595 17.98 10.8793L8.37552 16.4241C7.30207 17.0438 7.30207 18.0486 8.37552 18.6683L17.9806 24.2134C19.0541 24.8331 20.7945 24.8331 21.8679 24.2134L31.4695 18.6703C32.5427 18.0507 32.543 17.0462 31.4701 16.4264L21.8679 10.8797Z" fill="#F8F8F8"/>
<path d="M23.7612 19.3018C22.8058 19.8533 21.658 20.151 20.3179 20.1948L20.297 21.0874L18.7096 21.04L18.7305 20.1116C17.7685 19.961 16.9508 19.6913 16.2774 19.3026C15.2468 18.7076 14.7248 17.9896 14.7113 17.1485C14.7116 16.3074 15.2341 15.5853 16.2788 14.9822C17.3236 14.379 18.571 14.0793 20.021 14.0831C21.4779 14.083 22.7251 14.3824 23.7626 14.9813C24.8001 15.5803 25.3187 16.3003 25.3184 17.1414C25.325 17.9785 24.8059 18.6986 23.7612 19.3018ZM17.4322 18.6359C17.8032 18.8501 18.2429 19.0127 18.7515 19.1238L18.7829 17.5825L20.3703 17.6299L20.3389 19.2426C21.2048 19.187 21.9505 18.9786 22.5759 18.6175C23.3114 18.1929 23.6792 17.695 23.6794 17.1237C23.6796 16.5524 23.3224 16.0605 22.6078 15.648C21.8933 15.2354 21.0412 15.0292 20.0516 15.0293C19.062 15.0295 18.1995 15.2418 17.4641 15.6664C16.7286 16.091 16.3608 16.5889 16.3606 17.1602C16.3604 17.7315 16.7176 18.2234 17.4322 18.6359Z" fill="#232323"/>
</g>
<defs>
<clipPath id="clip0_2020_90">
<rect width="40" height="40" fill="white"/>
</clipPath>
</defs>
</svg>
