<svg width="360" height="274" viewBox="0 0 360 274" fill="none" xmlns="http://www.w3.org/2000/svg">
<rect width="148.046" height="58.1609" rx="10" transform="matrix(0.866041 0.499972 -0.866041 0.499972 54.8262 100.204)" fill="#232323"/>
<path d="M58.4139 120.686L66.5754 122.966L69.2082 124.486L46.1715 137.785L43.1438 136.038L62.8896 124.638L56.538 122.643L58.4139 120.686ZM84.4929 136.426L72.7442 137.433C74.2141 138.662 74.8943 139.941 74.7846 141.271C74.6749 142.601 73.7315 143.779 71.9544 144.805C69.6946 146.109 67.1605 146.685 64.3522 146.533C61.5001 146.381 58.988 145.679 56.816 144.425C55.0169 143.386 53.8541 142.246 53.3275 141.005C52.801 139.763 52.9984 138.548 53.9199 137.357L58.0007 137.965C56.5527 139.586 57.156 141.163 59.8107 142.696C61.2587 143.532 62.7945 143.988 64.4181 144.064C66.0855 144.14 67.5774 143.798 68.8938 143.038C70.2102 142.278 70.8025 141.416 70.6709 140.454C70.5612 139.504 69.7823 138.611 68.3343 137.775L67.5445 137.319L68.2027 135.533L80.7412 134.45L70.5063 128.541L73.3695 126.889L87.1915 134.868L84.4929 136.426ZM87.0979 138.158L89.9939 136.486L104.375 144.789L101.644 146.365L72.9468 153.243L69.7546 151.4L98.2213 144.58L87.0979 138.158ZM97.594 167.472L82.7189 158.885L85.22 157.441L101.642 157.346C105.986 157.346 108.937 156.896 110.495 155.997C111.767 155.262 112.37 154.458 112.305 153.584C112.283 152.71 111.69 151.937 110.527 151.266C108.355 150.012 105.745 149.695 102.695 150.316L101.642 147.96C103.814 147.517 105.92 147.441 107.961 147.732C110.023 148.011 111.855 148.612 113.456 149.537C115.409 150.664 116.451 152.001 116.583 153.546C116.714 155.116 115.716 156.516 113.588 157.745C111.262 159.087 107.357 159.759 101.872 159.759L90.1235 159.74L100.556 165.762L97.594 167.472ZM127.652 174.641L122.353 171.582L119.688 173.121L127.849 177.833L125.611 179.125L117.45 174.413L113.534 176.674L110.506 174.926L114.422 172.665L111.625 171.05L113.863 169.758L116.66 171.373L119.326 169.834L116.528 168.22L119.293 166.624L122.09 168.239L133.543 161.627L141.869 166.434C143.865 167.586 144.863 168.973 144.863 170.594C144.885 172.203 143.909 173.577 141.935 174.717C139.96 175.857 137.579 176.421 134.793 176.408C132.029 176.383 129.648 175.794 127.652 174.641ZM139.006 168.087L133.707 165.028L125.118 169.986L130.416 173.045C131.535 173.691 132.928 174.014 134.596 174.014C136.307 173.989 137.744 173.641 138.907 172.969C140.114 172.273 140.717 171.456 140.717 170.518C140.717 169.556 140.146 168.745 139.006 168.087Z" fill="white"/>
<rect width="115.264" height="58.1609" rx="10" transform="matrix(0.866041 0.499972 -0.866041 0.499972 140.407 0)" fill="#232323"/>
<path d="M154.347 32.4626C152.548 33.5012 150.529 34.1218 148.292 34.3245L148.324 34.3435L129.796 36.4523L126.341 34.4575L139.867 32.9565C139.165 32.6019 138.77 32.3992 138.682 32.3486C136.356 31.006 135.161 29.4924 135.095 27.8078C135.073 26.1233 136.203 24.6223 138.484 23.3051C140.788 21.9751 143.377 21.3292 146.251 21.3672C149.169 21.3798 151.802 22.0638 154.149 23.4191C156.453 24.749 157.627 26.2626 157.671 27.9598C157.737 29.6444 156.629 31.1453 154.347 32.4626ZM151.22 25.11C149.772 24.274 148.149 23.8434 146.35 23.818C144.573 23.8054 142.96 24.217 141.512 25.053C140.064 25.8889 139.34 26.8262 139.34 27.8648C139.384 28.9034 140.13 29.8407 141.578 30.6767C143.026 31.5126 144.639 31.9369 146.416 31.9496C148.237 31.9623 149.871 31.5506 151.319 30.7147C152.767 29.8787 153.48 28.9478 153.458 27.9218C153.436 26.8959 152.69 25.9586 151.22 25.11ZM172.055 42.6856C170.256 43.7242 168.238 44.3449 166 44.5475L166.033 44.5665L147.505 46.6754L144.049 44.6805L157.575 43.1796C156.873 42.825 156.478 42.6223 156.39 42.5716C154.064 41.2291 152.869 39.7155 152.803 38.0309C152.781 36.3463 153.911 34.8454 156.193 33.5281C158.496 32.1982 161.085 31.5523 163.959 31.5902C166.877 31.6029 169.51 32.2869 171.858 33.6421C174.161 34.9721 175.335 36.4856 175.379 38.1829C175.445 39.8675 174.337 41.3684 172.055 42.6856ZM168.929 35.333C167.481 34.4971 165.857 34.0664 164.058 34.0411C162.281 34.0284 160.668 34.4401 159.22 35.276C157.772 36.112 157.048 37.0493 157.048 38.0879C157.092 39.1265 157.838 40.0638 159.286 40.8997C160.734 41.7357 162.347 42.16 164.124 42.1727C165.945 42.1853 167.579 41.7737 169.027 40.9377C170.475 40.1018 171.188 39.1708 171.166 38.1449C171.145 37.1189 170.399 36.1817 168.929 35.333ZM186.012 58.7224L180.713 55.6636L178.047 57.2025L186.209 61.9142L183.971 63.2061L175.81 58.4944L171.893 60.7553L168.866 59.0074L172.782 56.7465L169.985 55.1316L172.222 53.8397L175.02 55.4546L177.685 53.9157L174.888 52.3007L177.653 50.7048L180.45 52.3197L191.902 45.7081L200.228 50.5148C202.225 51.6674 203.223 53.0544 203.223 54.6756C203.245 56.2842 202.269 57.6584 200.294 58.7984C198.32 59.9383 195.939 60.502 193.153 60.4893C190.389 60.464 188.008 59.875 186.012 58.7224ZM197.365 52.1677L192.067 49.1089L183.478 54.0676L188.776 57.1265C189.895 57.7724 191.288 58.0954 192.955 58.0954C194.667 58.0701 196.104 57.7218 197.267 57.0505C198.473 56.3539 199.077 55.5369 199.077 54.5996C199.077 53.637 198.506 52.8264 197.365 52.1677Z" fill="white"/>
<rect width="135.356" height="58.1609" rx="10" transform="matrix(0.866041 0.499972 -0.866041 0.499972 -30.6304 5.02271)" fill="#232323"/>
<path d="M-29.1515 32.2295L-25.7948 34.1674C-23.6227 35.4214 -22.438 36.8526 -22.2405 38.4612C-22.0211 40.0824 -23.0303 41.539 -25.2682 42.8309C-27.528 44.1355 -30.062 44.7118 -32.8703 44.5598C-35.7225 44.4079 -38.2346 43.7049 -40.4066 42.451C-42.2057 41.4124 -43.3685 40.2471 -43.895 38.9552C-44.3777 37.6632 -44.1034 36.4156 -43.0723 35.2124L-38.9915 35.8583C-39.7813 36.6689 -40.0336 37.4986 -39.7484 38.3472C-39.4632 39.1958 -38.6843 39.9874 -37.4118 40.7221C-35.9419 41.5707 -34.3951 42.033 -32.7716 42.109C-31.1042 42.185 -29.6123 41.843 -28.2959 41.083C-26.9795 40.3231 -26.3871 39.4618 -26.5188 38.4992C-26.6285 37.5492 -27.3964 36.6626 -28.8224 35.8393L-35.3385 32.0775L-22.5367 25.6749L-9.93234 32.9515L-12.7955 34.6044L-22.6354 28.9237L-29.1515 32.2295ZM-15.961 56.0697L-30.8361 47.4821L-28.335 46.0382L-11.9131 45.9432C-7.56902 45.9432 -4.61813 45.4936 -3.06041 44.5943C-1.7879 43.8597 -1.18456 43.0554 -1.25038 42.1814C-1.27232 41.3075 -1.86469 40.5348 -3.0275 39.8635C-5.19953 38.6096 -7.81036 38.293 -10.86 38.9136L-11.9131 36.5577C-9.74105 36.1144 -7.63484 36.0384 -5.59445 36.3297C-3.53211 36.6084 -1.70014 37.21 -0.098546 38.1346C1.85409 39.2619 2.89623 40.5982 3.02786 42.1434C3.1595 43.714 2.16124 45.1136 0.0330916 46.3422C-2.29252 47.6848 -6.19779 48.3561 -11.6827 48.3561L-23.4314 48.3371L-12.9991 54.3597L-15.961 56.0697ZM8.6806 52.8924C10.9843 54.2223 12.158 55.7359 12.2019 57.4331C12.2677 59.1177 11.1598 60.6186 8.87805 61.9359C6.59632 63.2531 3.9855 63.8991 1.04558 63.8738C-1.89435 63.8484 -4.51614 63.1708 -6.81981 61.8409C-9.16736 60.4856 -10.3521 58.9657 -10.374 57.2811C-10.396 55.5966 -9.26609 54.0956 -6.98436 52.7784C-5.18531 51.7398 -3.18879 51.1191 -0.994819 50.9165L17.5004 48.7886L20.9888 50.8025L7.52876 52.3034C8.23083 52.6581 8.61478 52.8544 8.6806 52.8924ZM5.75164 54.5833C4.28168 53.7347 2.65814 53.304 0.881027 53.2914C-0.89609 53.2787 -2.50866 53.6903 -3.95668 54.5263C-5.4047 55.3622 -6.12871 56.2995 -6.12871 57.3381C-6.08483 58.3767 -5.33888 59.314 -3.89086 60.15C-2.44284 60.9859 -0.830271 61.4102 0.946846 61.4229C2.76784 61.4356 4.40235 61.0239 5.85037 60.188C7.29839 59.352 8.00046 58.4147 7.95659 57.3761C7.93465 56.3502 7.19967 55.4192 5.75164 54.5833ZM31.2265 73.1279L25.928 70.0691L23.2624 71.608L31.4239 76.3197L29.1861 77.6116L21.0245 72.8999L17.1083 75.1608L14.0806 73.4129L17.9968 71.152L15.1995 69.5371L17.4374 68.2452L20.2347 69.8601L22.9004 68.3212L20.103 66.7062L22.8675 65.1103L25.6648 66.7252L37.1173 60.1136L45.4434 64.9203C47.4399 66.0729 48.4382 67.4599 48.4382 69.0811C48.4601 70.6897 47.4838 72.0639 45.5092 73.2039C43.5347 74.3438 41.1542 74.9075 38.3679 74.8948C35.6035 74.8695 33.223 74.2805 31.2265 73.1279ZM42.5803 66.5733L37.2818 63.5144L28.6924 68.4731L33.9909 71.532C35.1098 72.1779 36.503 72.5009 38.1704 72.5009C39.8817 72.4756 41.3188 72.1273 42.4816 71.456C43.6882 70.7594 44.2916 69.9424 44.2916 69.0051C44.2916 68.0425 43.7212 67.2319 42.5803 66.5733Z" fill="white"/>
<rect width="140.644" height="58.1609" rx="10" transform="matrix(0.866041 0.499972 -0.866041 0.499972 227.771 126.908)" fill="#232323"/>
<path d="M245.533 156.257L233.785 157.264C235.255 158.493 235.935 159.772 235.825 161.102C235.715 162.432 234.772 163.61 232.995 164.636C230.735 165.94 228.201 166.517 225.393 166.365C222.541 166.213 220.029 165.51 217.856 164.256C216.057 163.217 214.895 162.077 214.368 160.836C213.842 159.595 214.039 158.379 214.96 157.188L219.041 157.796C217.593 159.417 218.197 160.994 220.851 162.527C222.299 163.363 223.835 163.819 225.459 163.895C227.126 163.971 228.618 163.629 229.934 162.869C231.251 162.109 231.843 161.248 231.711 160.285C231.602 159.335 230.823 158.442 229.375 157.606L228.585 157.15L229.243 155.364L241.782 154.281L231.547 148.373L234.41 146.72L248.232 154.699L245.533 156.257ZM247.151 177.406C243.443 177.773 240.174 177.14 237.344 175.506C234.514 173.872 233.417 171.985 234.053 169.844C234.689 167.679 236.807 165.557 240.405 163.48C244.003 161.403 247.678 160.18 251.429 159.813C255.137 159.446 258.406 160.079 261.236 161.713C264.067 163.347 265.164 165.234 264.527 167.375C263.891 169.54 261.774 171.662 258.176 173.739C254.578 175.816 250.903 177.039 247.151 177.406ZM243.465 165.247C240.613 166.893 238.913 168.457 238.364 169.939C237.816 171.421 238.474 172.701 240.339 173.777C242.204 174.854 244.42 175.234 246.987 174.917C249.575 174.613 252.296 173.638 255.148 171.991C258 170.345 259.69 168.774 260.216 167.28C260.787 165.785 260.139 164.499 258.275 163.423C256.41 162.346 254.194 161.966 251.627 162.283C249.06 162.599 246.339 163.587 243.465 165.247ZM280.649 181.85C278.85 182.888 276.832 183.509 274.594 183.711L274.627 183.73L256.099 185.839L252.643 183.844L266.169 182.344C265.467 181.989 265.072 181.786 264.984 181.736C262.659 180.393 261.463 178.879 261.397 177.195C261.375 175.51 262.505 174.009 264.787 172.692C267.09 171.362 269.679 170.716 272.553 170.754C275.471 170.767 278.104 171.451 280.452 172.806C282.755 174.136 283.929 175.65 283.973 177.347C284.039 179.031 282.931 180.532 280.649 181.85ZM277.523 174.497C276.075 173.661 274.451 173.23 272.652 173.205C270.875 173.192 269.263 173.604 267.815 174.44C266.366 175.276 265.642 176.213 265.642 177.252C265.686 178.29 266.432 179.228 267.88 180.064C269.328 180.9 270.941 181.324 272.718 181.337C274.539 181.349 276.174 180.938 277.622 180.102C279.07 179.266 279.783 178.335 279.761 177.309C279.739 176.283 278.993 175.346 277.523 174.497ZM294.606 197.886L289.307 194.827L286.642 196.366L294.803 201.078L292.565 202.37L284.404 197.658L280.488 199.919L277.46 198.171L281.376 195.91L278.579 194.295L280.817 193.004L283.614 194.618L286.28 193.08L283.482 191.465L286.247 189.869L289.044 191.484L300.497 184.872L308.823 189.679C310.819 190.831 311.817 192.218 311.817 193.84C311.839 195.448 310.863 196.822 308.888 197.962C306.914 199.102 304.533 199.666 301.747 199.653C298.983 199.628 296.602 199.039 294.606 197.886ZM305.96 191.332L300.661 188.273L292.072 193.232L297.37 196.29C298.489 196.936 299.882 197.259 301.55 197.259C303.261 197.234 304.698 196.886 305.861 196.214C307.067 195.518 307.671 194.701 307.671 193.764C307.671 192.801 307.1 191.99 305.96 191.332Z" fill="white"/>
<rect width="138.529" height="58.1609" rx="10" transform="matrix(0.866041 0.499972 -0.866041 0.499972 10.8276 186.661)" fill="#232323"/>
<path d="M8.85986 228.103L-6.01527 219.515L-3.51414 218.071L12.9077 217.976C17.2518 217.976 20.2027 217.527 21.7604 216.627C23.0329 215.893 23.6363 215.088 23.5704 214.215C23.5485 213.341 22.9561 212.568 21.7933 211.897C19.6213 210.643 17.0105 210.326 13.9608 210.947L12.9077 208.591C15.0798 208.148 17.186 208.072 19.2264 208.363C21.2887 208.642 23.1207 209.243 24.7223 210.168C26.6749 211.295 27.717 212.631 27.8487 214.177C27.9803 215.747 26.9821 217.147 24.8539 218.375C22.5283 219.718 18.623 220.389 13.1381 220.389L1.38939 220.37L11.8217 226.393L8.85986 228.103ZM32.4154 233.342L35.2127 234.957L32.3496 236.61L29.5523 234.995L25.1753 237.522L22.1147 235.755L26.4917 233.228L14.743 226.445L17.6061 224.793L41.663 220.442L44.9539 222.342L20.8971 226.692L29.3548 231.575L35.8709 227.813L38.9315 229.58L32.4154 233.342ZM48.2475 234.616L51.6043 236.554C53.7763 237.808 54.961 239.24 55.1585 240.848C55.3779 242.469 54.3687 243.926 52.1308 245.218C49.871 246.522 47.337 247.099 44.5287 246.947C41.6765 246.795 39.1644 246.092 36.9924 244.838C35.1933 243.799 34.0305 242.634 33.504 241.342C33.0213 240.05 33.2956 238.803 34.3267 237.599L38.4075 238.245C37.6177 239.056 37.3654 239.885 37.6506 240.734C37.9358 241.583 38.7147 242.374 39.9872 243.109C41.4571 243.958 43.0039 244.42 44.6274 244.496C46.2948 244.572 47.7867 244.23 49.1031 243.47C50.4195 242.71 51.0119 241.849 50.8802 240.886C50.7705 239.936 50.0027 239.05 48.5766 238.226L42.0605 234.464L54.8623 228.062L67.4667 235.338L64.6035 236.991L54.7636 231.311L48.2475 234.616ZM75.2981 256.275L69.9997 253.216L67.334 254.755L75.4956 259.466L73.2577 260.758L65.0961 256.047L61.1799 258.308L58.1522 256.56L62.0685 254.299L59.2712 252.684L61.509 251.392L64.3063 253.007L66.972 251.468L64.1747 249.853L66.9391 248.257L69.7364 249.872L81.1889 243.26L89.5151 248.067C91.5116 249.22 92.5098 250.607 92.5098 252.228C92.5318 253.836 91.5554 255.211 89.5809 256.351C87.6063 257.491 85.2258 258.054 82.4395 258.042C79.6751 258.016 77.2946 257.427 75.2981 256.275ZM86.6519 249.72L81.3535 246.661L72.7641 251.62L78.0625 254.679C79.1814 255.325 80.5746 255.648 82.242 255.648C83.9533 255.622 85.3904 255.274 86.5532 254.603C87.7599 253.906 88.3632 253.089 88.3632 252.152C88.3632 251.189 87.7928 250.379 86.6519 249.72Z" fill="white"/>
<rect width="140.644" height="58.1609" rx="10" transform="matrix(0.866041 0.499972 -0.866041 0.499972 237.37 232)" fill="#232323"/>
<path d="M243.963 270.025L246.76 271.64L243.897 273.293L241.1 271.678L236.723 274.205L233.662 272.438L238.039 269.911L226.291 263.128L229.154 261.476L253.211 257.125L256.502 259.025L232.445 263.375L240.902 268.258L247.418 264.496L250.479 266.263L243.963 270.025ZM259.795 271.299L263.152 273.237C265.324 274.491 266.509 275.923 266.706 277.531C266.925 279.152 265.916 280.609 263.678 281.901C261.419 283.205 258.885 283.782 256.076 283.63C253.224 283.478 250.712 282.775 248.54 281.521C246.741 280.482 245.578 279.317 245.052 278.025C244.569 276.733 244.843 275.486 245.874 274.282L249.955 274.928C249.165 275.739 248.913 276.569 249.198 277.417C249.483 278.266 250.262 279.057 251.535 279.792C253.005 280.641 254.551 281.103 256.175 281.179C257.842 281.255 259.334 280.913 260.651 280.153C261.967 279.393 262.559 278.532 262.428 277.569C262.318 276.619 261.55 275.733 260.124 274.909L253.608 271.147L266.41 264.745L279.014 272.021L276.151 273.674L266.311 267.994L259.795 271.299ZM288.605 285.994C286.806 287.032 284.787 287.653 282.549 287.856L282.582 287.875L264.054 289.983L260.599 287.989L274.125 286.488C273.423 286.133 273.028 285.93 272.94 285.88C270.614 284.537 269.419 283.024 269.353 281.339C269.331 279.654 270.461 278.153 272.742 276.836C275.046 275.506 277.635 274.86 280.509 274.898C283.427 274.911 286.06 275.595 288.407 276.95C290.711 278.28 291.885 279.794 291.929 281.491C291.994 283.176 290.887 284.676 288.605 285.994ZM285.478 278.641C284.03 277.805 282.407 277.374 280.608 277.349C278.831 277.336 277.218 277.748 275.77 278.584C274.322 279.42 273.598 280.357 273.598 281.396C273.642 282.435 274.388 283.372 275.836 284.208C277.284 285.044 278.896 285.468 280.674 285.481C282.495 285.493 284.129 285.082 285.577 284.246C287.025 283.41 287.738 282.479 287.716 281.453C287.694 280.427 286.948 279.49 285.478 278.641ZM302.561 302.03L297.263 298.972L294.597 300.511L302.759 305.222L300.521 306.514L292.359 301.802L288.443 304.063L285.415 302.315L289.332 300.055L286.534 298.44L288.772 297.148L291.569 298.763L294.235 297.224L291.438 295.609L294.202 294.013L297 295.628L308.452 289.016L316.778 293.823C318.775 294.975 319.773 296.362 319.773 297.984C319.795 299.592 318.819 300.966 316.844 302.106C314.869 303.246 312.489 303.81 309.703 303.797C306.938 303.772 304.558 303.183 302.561 302.03ZM313.915 295.476L308.617 292.417L300.027 297.376L305.326 300.435C306.445 301.08 307.838 301.403 309.505 301.403C311.217 301.378 312.654 301.03 313.816 300.359C315.023 299.662 315.626 298.845 315.626 297.908C315.626 296.945 315.056 296.134 313.915 295.476Z" fill="white"/>
</svg>
