<svg width="359" height="286" viewBox="0 0 359 286" fill="none" xmlns="http://www.w3.org/2000/svg">
<rect width="161.54" height="58.1609" rx="10" transform="matrix(0.866041 0.499972 -0.866041 0.499972 135.826 100.204)" fill="#232323"/>
<path d="M134.729 142.149L119.854 133.561L122.355 132.117L138.777 132.022C143.121 132.022 146.072 131.573 147.63 130.673C148.903 129.939 149.506 129.135 149.44 128.261C149.418 127.387 148.826 126.614 147.663 125.943C145.491 124.689 142.88 124.372 139.83 124.993L138.777 122.637C140.949 122.194 143.056 122.118 145.096 122.409C147.158 122.688 148.99 123.289 150.592 124.214C152.545 125.341 153.587 126.677 153.718 128.223C153.85 129.793 152.852 131.193 150.724 132.421C148.398 133.764 144.493 134.435 139.008 134.435L127.259 134.416L137.691 140.439L134.729 142.149ZM155.348 137.827L158.705 139.765C160.877 141.019 162.062 142.45 162.259 144.059C162.479 145.68 161.47 147.137 159.232 148.429C156.972 149.733 154.438 150.309 151.63 150.157C148.777 150.005 146.265 149.302 144.093 148.049C142.294 147.01 141.131 145.845 140.605 144.553C140.122 143.261 140.396 142.013 141.428 140.81L145.508 141.456C144.719 142.267 144.466 143.096 144.751 143.945C145.037 144.793 145.816 145.585 147.088 146.32C148.558 147.168 150.105 147.631 151.728 147.707C153.396 147.783 154.888 147.441 156.204 146.681C157.52 145.921 158.113 145.059 157.981 144.097C157.871 143.147 157.104 142.26 155.677 141.437L149.161 137.675L161.963 131.272L174.568 138.549L171.704 140.202L161.864 134.521L155.348 137.827ZM176.475 157.889L179.273 159.504L176.409 161.157L173.612 159.542L169.235 162.069L166.175 160.302L170.552 157.775L158.803 150.993L161.666 149.34L185.723 144.989L189.014 146.889L164.957 151.24L173.415 156.123L179.931 152.361L182.991 154.128L176.475 157.889ZM192.307 159.164L195.664 161.102C197.836 162.356 199.021 163.787 199.218 165.395C199.438 167.017 198.429 168.473 196.191 169.765C193.931 171.07 191.397 171.646 188.589 171.494C185.736 171.342 183.224 170.639 181.052 169.385C179.253 168.347 178.09 167.181 177.564 165.889C177.081 164.598 177.355 163.35 178.387 162.147L182.467 162.793C181.678 163.603 181.425 164.433 181.71 165.282C181.996 166.13 182.775 166.922 184.047 167.656C185.517 168.505 187.064 168.967 188.687 169.043C190.355 169.119 191.847 168.777 193.163 168.017C194.479 167.257 195.072 166.396 194.94 165.433C194.83 164.484 194.063 163.597 192.636 162.774L186.12 159.012L198.922 152.609L211.527 159.886L208.663 161.539L198.823 155.858L192.307 159.164ZM219.358 180.822L214.06 177.763L211.394 179.302L219.555 184.014L217.318 185.306L209.156 180.594L205.24 182.855L202.212 181.107L206.128 178.846L203.331 177.231L205.569 175.939L208.366 177.554L211.032 176.015L208.235 174.4L210.999 172.804L213.796 174.419L225.249 167.808L233.575 172.615C235.571 173.767 236.57 175.154 236.57 176.775C236.592 178.384 235.615 179.758 233.641 180.898C231.666 182.038 229.286 182.602 226.499 182.589C223.735 182.564 221.355 181.975 219.358 180.822ZM230.712 174.267L225.413 171.209L216.824 176.167L222.122 179.226C223.241 179.872 224.635 180.195 226.302 180.195C228.013 180.17 229.45 179.821 230.613 179.15C231.82 178.454 232.423 177.637 232.423 176.699C232.423 175.737 231.853 174.926 230.712 174.267Z" fill="white"/>
<rect width="115.264" height="58.1609" rx="10" transform="matrix(0.866041 0.499972 -0.866041 0.499972 221.407 0)" fill="#232323"/>
<path d="M226.873 31.9786C228.036 34.0684 227.367 35.8353 224.866 37.2793C222.76 38.4952 220.368 39.0272 217.691 38.8752C215.015 38.6979 212.525 37.9442 210.221 36.6143C207.917 35.2844 206.623 33.8531 206.338 32.3205C206.074 30.7753 206.996 29.3947 209.102 28.1788C211.603 26.7348 214.664 26.3485 218.284 27.0198C217.582 25.2466 218.317 23.733 220.489 22.4791C222.573 21.2758 224.866 20.7502 227.367 20.9022C229.912 21.0542 232.161 21.6938 234.113 22.8211C236.11 23.9737 237.218 25.2719 237.437 26.7158C237.722 28.1724 236.823 29.5024 234.739 30.7056C232.567 31.9596 229.945 32.3839 226.873 31.9786ZM231.184 24.512C229.978 23.8153 228.672 23.429 227.268 23.353C225.886 23.2897 224.613 23.5937 223.451 24.265C222.31 24.9236 221.794 25.6646 221.904 26.4879C222.014 27.3111 222.661 28.0648 223.846 28.7487C225.03 29.4327 226.336 29.8063 227.762 29.8697C229.188 29.933 230.471 29.6354 231.612 28.9767C232.775 28.3054 233.302 27.5708 233.192 26.7728C233.082 25.9749 232.413 25.2213 231.184 24.512ZM213.15 34.9234C214.642 35.7847 216.178 36.266 217.757 36.3673C219.337 36.4686 220.763 36.152 222.036 35.4174C223.286 34.6954 223.824 33.8784 223.648 32.9665C223.473 32.0546 222.639 31.1679 221.147 30.3066C219.677 29.458 218.152 28.9831 216.573 28.8817C214.993 28.7804 213.578 29.0907 212.327 29.8127C211.055 30.5473 210.506 31.3706 210.682 32.2825C210.857 33.1945 211.68 34.0748 213.15 34.9234ZM243.269 46.8399L246.067 48.4548L243.204 50.1077L240.406 48.4928L236.029 51.0197L232.969 49.2528L237.346 46.7259L225.597 39.9433L228.46 38.2904L252.517 33.9396L255.808 35.8395L231.751 40.1903L240.209 45.073L246.725 41.3112L249.786 43.0781L243.269 46.8399ZM268.283 59.4567L262.985 56.3978L260.319 57.9368L268.481 62.6485L266.243 63.9404L258.081 59.2287L254.165 61.4896L251.137 59.7417L255.054 57.4808L252.256 55.8659L254.494 54.5739L257.291 56.1889L259.957 54.6499L257.16 53.035L259.924 51.4391L262.722 53.054L274.174 46.4424L282.5 51.2491C284.497 52.4017 285.495 53.7887 285.495 55.4099C285.517 57.0185 284.541 58.3927 282.566 59.5327C280.591 60.6726 278.211 61.2362 275.425 61.2236C272.66 61.1983 270.28 60.6093 268.283 59.4567ZM279.637 52.902L274.339 49.8432L265.749 54.8019L271.048 57.8608C272.167 58.5067 273.56 58.8297 275.227 58.8297C276.938 58.8044 278.376 58.4561 279.538 57.7848C280.745 57.0881 281.348 56.2712 281.348 55.3339C281.348 54.3713 280.778 53.5607 279.637 52.902Z" fill="white"/>
<rect width="135.356" height="58.1609" rx="10" transform="matrix(0.866041 0.499972 -0.866041 0.499972 50.3696 5.02271)" fill="#232323"/>
<path d="M54.4606 32.5595C56.7643 33.8894 57.938 35.403 57.9819 37.1002C58.0477 38.7848 56.9398 40.2857 54.6581 41.603C52.3763 42.9202 49.7655 43.5662 46.8256 43.5408C43.8857 43.5155 41.2639 42.8379 38.9602 41.508C36.6126 40.1527 35.4279 38.6328 35.406 36.9482C35.384 35.2636 36.5139 33.7627 38.7956 32.4455C40.5947 31.4069 42.5912 30.7862 44.7852 30.5836L63.2804 28.4557L66.7688 30.4696L53.3088 31.9705C54.0108 32.3251 54.3948 32.5215 54.4606 32.5595ZM51.5316 34.2504C50.0617 33.4017 48.4381 32.9711 46.661 32.9584C44.8839 32.9458 43.2713 33.3574 41.8233 34.1934C40.3753 35.0293 39.6513 35.9666 39.6513 37.0052C39.6952 38.0438 40.4411 38.9811 41.8891 39.8171C43.3372 40.653 44.9497 41.0773 46.7268 41.09C48.5478 41.1027 50.1824 40.691 51.6304 39.8551C53.0784 39.0191 53.7805 38.0818 53.7366 37.0432C53.7146 36.0173 52.9797 35.0863 51.5316 34.2504ZM71.7255 51.5701L74.5228 53.185L71.6597 54.838L68.8624 53.223L64.4854 55.7499L61.4248 53.983L65.8018 51.4561L54.0531 44.6735L56.9162 43.0206L80.9731 38.6698L84.2641 40.5697L60.2072 44.9205L68.6649 49.8032L75.181 46.0414L78.2416 47.8083L71.7255 51.5701ZM83.8756 66.944L69.0005 58.3565L71.5016 56.9125L87.9235 56.8176C92.2675 56.8176 95.2184 56.3679 96.7761 55.4686C98.0486 54.734 98.652 53.9297 98.5862 53.0558C98.5642 52.1818 97.9719 51.4092 96.8091 50.7379C94.637 49.484 92.0262 49.1673 88.9766 49.7879L87.9235 47.4321C90.0955 46.9888 92.2017 46.9128 94.2421 47.2041C96.3044 47.4827 98.1364 48.0844 99.738 49.009C101.691 50.1363 102.733 51.4725 102.864 53.0178C102.996 54.5883 101.998 55.9879 99.8696 57.2165C97.544 58.5591 93.6388 59.2304 88.1538 59.2304L76.4051 59.2114L86.8375 65.2341L83.8756 66.944ZM113.933 74.1131L108.635 71.0543L105.969 72.5932L114.131 77.305L111.893 78.5969L103.731 73.8851L99.8151 76.146L96.7875 74.3981L100.704 72.1372L97.9064 70.5223L100.144 69.2304L102.942 70.8453L105.607 69.3064L102.81 67.6915L105.574 66.0956L108.372 67.7105L119.824 61.0988L128.15 65.9056C130.147 67.0582 131.145 68.4451 131.145 70.0664C131.167 71.6749 130.191 73.0492 128.216 74.1891C126.242 75.3291 123.861 75.8927 121.075 75.88C118.31 75.8547 115.93 75.2657 113.933 74.1131ZM125.287 67.5585L119.989 64.4997L111.399 69.4584L116.698 72.5172C117.817 73.1632 119.21 73.4862 120.877 73.4862C122.589 73.4608 124.026 73.1125 125.188 72.4412C126.395 71.7446 126.998 70.9276 126.998 69.9904C126.998 69.0277 126.428 68.2171 125.287 67.5585Z" fill="white"/>
<rect width="140.644" height="58.1609" rx="10" transform="matrix(0.866041 0.499972 -0.866041 0.499972 308.771 126.908)" fill="#232323"/>
<path d="M308.585 169.379L293.71 160.791L296.211 159.347L312.633 159.252C316.977 159.252 319.928 158.802 321.486 157.903C322.759 157.169 323.362 156.364 323.296 155.49C323.274 154.616 322.682 153.844 321.519 153.172C319.347 151.918 316.736 151.602 313.686 152.222L312.633 149.867C314.805 149.423 316.912 149.347 318.952 149.639C321.014 149.917 322.846 150.519 324.448 151.444C326.4 152.571 327.443 153.907 327.574 155.452C327.706 157.023 326.708 158.422 324.579 159.651C322.254 160.994 318.349 161.665 312.864 161.665L301.115 161.646L311.547 167.669L308.585 169.379ZM325.94 179.398L311.065 170.81L313.566 169.366L329.988 169.271C334.332 169.271 337.283 168.821 338.841 167.922C340.113 167.188 340.717 166.383 340.651 165.509C340.629 164.635 340.036 163.863 338.874 163.191C336.702 161.937 334.091 161.621 331.041 162.241L329.988 159.886C332.16 159.442 334.266 159.366 336.307 159.658C338.369 159.936 340.201 160.538 341.803 161.463C343.755 162.59 344.797 163.926 344.929 165.471C345.061 167.042 344.062 168.441 341.934 169.67C339.609 171.013 335.703 171.684 330.218 171.684L318.47 171.665L328.902 177.688L325.94 179.398ZM343.295 189.416L328.42 180.829L330.921 179.385L347.343 179.29C351.687 179.29 354.638 178.84 356.195 177.941C357.468 177.206 358.071 176.402 358.005 175.528C357.983 174.654 357.391 173.882 356.228 173.21C354.056 171.956 351.445 171.64 348.396 172.26L347.343 169.905C349.515 169.461 351.621 169.385 353.661 169.677C355.724 169.955 357.556 170.557 359.157 171.481C361.11 172.609 362.152 173.945 362.284 175.49C362.415 177.061 361.417 178.46 359.289 179.689C356.963 181.032 353.058 181.703 347.573 181.703L335.824 181.684L346.257 187.707L343.295 189.416ZM373.353 196.586L368.054 193.527L365.388 195.066L373.55 199.777L371.312 201.069L363.151 196.358L359.234 198.619L356.207 196.871L360.123 194.61L357.326 192.995L359.563 191.703L362.361 193.318L365.026 191.779L362.229 190.164L364.993 188.568L367.791 190.183L379.243 183.571L387.569 188.378C389.566 189.531 390.564 190.918 390.564 192.539C390.586 194.147 389.61 195.522 387.635 196.662C385.661 197.802 383.28 198.365 380.494 198.353C377.729 198.327 375.349 197.738 373.353 196.586ZM384.706 190.031L379.408 186.972L370.818 191.931L376.117 194.99C377.236 195.636 378.629 195.959 380.296 195.959C382.008 195.933 383.445 195.585 384.608 194.914C385.814 194.217 386.418 193.4 386.418 192.463C386.418 191.5 385.847 190.69 384.706 190.031Z" fill="white"/>
<rect width="138.529" height="58.1609" rx="10" transform="matrix(0.866041 0.499972 -0.866041 0.499972 91.8276 186.661)" fill="#232323"/>
<path d="M89.4268 227.853L74.5516 219.265L77.0528 217.821L93.4746 217.726C97.8187 217.726 100.77 217.277 102.327 216.377C103.6 215.643 104.203 214.838 104.137 213.965C104.115 213.091 103.523 212.318 102.36 211.647C100.188 210.393 97.5774 210.076 94.5277 210.697L93.4746 208.341C95.6467 207.898 97.7529 207.822 99.7933 208.113C101.856 208.392 103.688 208.993 105.289 209.918C107.242 211.045 108.284 212.381 108.416 213.927C108.547 215.497 107.549 216.897 105.421 218.125C103.095 219.468 99.1899 220.139 93.705 220.139L81.9563 220.12L92.3886 226.143L89.4268 227.853ZM115.901 229.381C117.064 231.471 116.395 233.238 113.894 234.682C111.788 235.898 109.396 236.43 106.719 236.278C104.043 236.101 101.553 235.347 99.249 234.017C96.9453 232.687 95.6509 231.256 95.3656 229.723C95.1024 228.178 96.0238 226.798 98.1301 225.582C100.631 224.138 103.692 223.751 107.312 224.423C106.61 222.649 107.345 221.136 109.517 219.882C111.601 218.679 113.894 218.153 116.395 218.305C118.94 218.457 121.189 219.097 123.141 220.224C125.138 221.377 126.246 222.675 126.465 224.119C126.75 225.575 125.851 226.905 123.767 228.109C121.595 229.362 118.973 229.787 115.901 229.381ZM120.212 221.915C119.006 221.218 117.7 220.832 116.296 220.756C114.914 220.693 113.641 220.997 112.479 221.668C111.338 222.327 110.822 223.067 110.932 223.891C111.042 224.714 111.689 225.468 112.874 226.152C114.058 226.836 115.364 227.209 116.79 227.273C118.216 227.336 119.499 227.038 120.64 226.38C121.803 225.708 122.33 224.974 122.22 224.176C122.11 223.378 121.441 222.624 120.212 221.915ZM102.178 232.326C103.67 233.188 105.206 233.669 106.785 233.77C108.365 233.872 109.791 233.555 111.064 232.82C112.314 232.098 112.852 231.281 112.676 230.369C112.501 229.457 111.667 228.571 110.175 227.71C108.705 226.861 107.18 226.386 105.601 226.285C104.021 226.183 102.606 226.494 101.355 227.216C100.083 227.95 99.5342 228.773 99.7097 229.685C99.8852 230.597 100.708 231.478 102.178 232.326ZM132.297 244.243L135.095 245.858L132.232 247.511L129.434 245.896L125.057 248.423L121.997 246.656L126.374 244.129L114.625 237.346L117.488 235.693L141.545 231.342L144.836 233.242L120.779 237.593L129.237 242.476L135.753 238.714L138.813 240.481L132.297 244.243ZM157.311 256.86L152.013 253.801L149.347 255.34L157.509 260.051L155.271 261.343L147.109 256.632L143.193 258.892L140.165 257.145L144.082 254.884L141.284 253.269L143.522 251.977L146.319 253.592L148.985 252.053L146.188 250.438L148.952 248.842L151.75 250.457L163.202 243.845L171.528 248.652C173.525 249.805 174.523 251.192 174.523 252.813C174.545 254.421 173.569 255.796 171.594 256.936C169.619 258.076 167.239 258.639 164.453 258.626C161.688 258.601 159.308 258.012 157.311 256.86ZM168.665 250.305L163.367 247.246L154.777 252.205L160.076 255.264C161.195 255.91 162.588 256.233 164.255 256.233C165.966 256.207 167.403 255.859 168.566 255.188C169.773 254.491 170.376 253.674 170.376 252.737C170.376 251.774 169.806 250.964 168.665 250.305Z" fill="white"/>
<rect width="140.644" height="58.1609" rx="10" transform="matrix(0.866041 0.499972 -0.866041 0.499972 318.37 232)" fill="#232323"/>
<path d="M325.299 264.823C326.462 266.913 325.793 268.68 323.292 270.124C321.185 271.34 318.794 271.872 316.117 271.72C313.441 271.543 310.95 270.789 308.647 269.459C306.343 268.129 305.049 266.698 304.763 265.165C304.5 263.62 305.422 262.239 307.528 261.024C310.029 259.58 313.09 259.193 316.71 259.865C316.008 258.091 316.743 256.578 318.915 255.324C320.999 254.121 323.292 253.595 325.793 253.747C328.338 253.899 330.587 254.539 332.539 255.666C334.536 256.818 335.644 258.117 335.863 259.561C336.148 261.017 335.249 262.347 333.164 263.55C330.992 264.804 328.371 265.229 325.299 264.823ZM329.61 257.357C328.404 256.66 327.098 256.274 325.694 256.198C324.312 256.134 323.039 256.438 321.876 257.11C320.736 257.768 320.22 258.509 320.33 259.333C320.439 260.156 321.087 260.91 322.271 261.594C323.456 262.277 324.762 262.651 326.188 262.714C327.614 262.778 328.897 262.48 330.038 261.822C331.201 261.15 331.727 260.416 331.618 259.618C331.508 258.82 330.839 258.066 329.61 257.357ZM311.576 267.768C313.068 268.629 314.603 269.111 316.183 269.212C317.763 269.313 319.189 268.997 320.461 268.262C321.712 267.54 322.249 266.723 322.074 265.811C321.898 264.899 321.065 264.013 319.573 263.151C318.103 262.303 316.578 261.828 314.998 261.727C313.419 261.625 312.004 261.936 310.753 262.657C309.481 263.392 308.932 264.215 309.108 265.127C309.283 266.039 310.106 266.92 311.576 267.768ZM342.781 271.268C345.085 272.598 346.259 274.112 346.303 275.809C346.368 277.493 345.26 278.994 342.979 280.312C340.697 281.629 338.086 282.275 335.146 282.25C332.206 282.224 329.584 281.547 327.281 280.217C324.933 278.861 323.749 277.341 323.727 275.657C323.705 273.972 324.835 272.471 327.116 271.154C328.915 270.116 330.912 269.495 333.106 269.292L351.601 267.164L355.089 269.178L341.629 270.679C342.331 271.034 342.715 271.23 342.781 271.268ZM339.852 272.959C338.382 272.11 336.759 271.68 334.982 271.667C333.205 271.654 331.592 272.066 330.144 272.902C328.696 273.738 327.972 274.675 327.972 275.714C328.016 276.753 328.762 277.69 330.21 278.526C331.658 279.362 333.27 279.786 335.047 279.799C336.868 279.811 338.503 279.4 339.951 278.564C341.399 277.728 342.101 276.791 342.057 275.752C342.035 274.726 341.3 273.795 339.852 272.959ZM360.046 290.279L362.843 291.894L359.98 293.547L357.183 291.932L352.806 294.459L349.745 292.692L354.122 290.165L342.374 283.382L345.237 281.729L369.294 277.379L372.585 279.278L348.528 283.629L356.986 288.512L363.502 284.75L366.562 286.517L360.046 290.279ZM385.06 302.896L379.762 299.837L377.096 301.376L385.257 306.087L383.02 307.379L374.858 302.668L370.942 304.929L367.914 303.181L371.83 300.92L369.033 299.305L371.271 298.013L374.068 299.628L376.734 298.089L373.937 296.474L376.701 294.878L379.498 296.493L390.951 289.881L399.277 294.688C401.273 295.841 402.272 297.228 402.272 298.849C402.294 300.457 401.317 301.832 399.343 302.972C397.368 304.112 394.988 304.675 392.201 304.663C389.437 304.637 387.057 304.048 385.06 302.896ZM396.414 296.341L391.115 293.282L382.526 298.241L387.824 301.3C388.943 301.946 390.337 302.269 392.004 302.269C393.715 302.243 395.152 301.895 396.315 301.224C397.522 300.527 398.125 299.71 398.125 298.773C398.125 297.81 397.555 297 396.414 296.341Z" fill="white"/>
</svg>
