<svg width="325" height="121" viewBox="0 0 325 121" fill="none" xmlns="http://www.w3.org/2000/svg">
<path d="M296.193 18.2673C299.338 23.6578 301.946 30.3503 303.648 37.3934C301.92 30.2407 299.386 23.7417 296.193 18.2673ZM296.193 18.2673C293.049 12.8767 289.145 8.40494 285.036 5.48761M296.193 18.2673C293 12.7929 289.209 8.45034 285.036 5.48761M285.036 5.48761C280.928 2.57029 276.323 1 271.876 1M285.036 5.48761C280.864 2.52489 276.392 1 271.876 1M271.876 1C267.429 1 262.824 2.57029 258.715 5.48762M271.876 1C267.36 1 262.888 2.52489 258.715 5.48762M258.715 5.48762C254.607 8.40494 250.703 12.8768 247.558 18.2673M258.715 5.48762C254.543 8.45034 250.752 12.7929 247.558 18.2673M247.558 18.2673C244.414 23.6578 241.805 30.3503 240.104 37.3934M247.558 18.2673C244.365 23.7417 241.832 30.2407 240.104 37.3934M240.104 37.3934C238.402 44.4364 237.486 52.3308 237.486 59.9541C237.486 52.2122 238.375 44.546 240.104 37.3934ZM277.334 99.4246C278.357 98.1949 278.972 96.6143 278.972 94.8899C278.972 90.9708 275.795 87.7936 271.876 87.7936C267.957 87.7936 264.779 90.9708 264.779 94.8899C264.779 96.6143 265.394 98.1949 266.417 99.4246M277.334 99.4246V106.353M277.334 99.4246C276.187 100.804 274 101.986 271.876 101.986C269.625 102.062 267.584 100.828 266.417 99.4246M266.417 99.4246V106.353M266.417 106.353C266.417 109.368 269.853 110.981 271.876 110.981M266.417 106.353C266.417 108.909 269.32 110.981 271.876 110.981M271.876 110.981C273.707 110.981 277.334 109.368 277.334 106.353M271.876 110.981C274.432 110.981 277.334 108.909 277.334 106.353M227.779 60.7848C223.65 60.7848 220.303 64.1321 220.303 68.2611V111.693C220.303 115.822 223.65 119.169 227.779 119.169H316.518C320.647 119.169 323.995 115.822 323.995 111.693V68.2611C323.995 64.1321 320.647 60.7848 316.518 60.7848H227.779Z" stroke="white" stroke-width="2"/>
<path fill-rule="evenodd" clip-rule="evenodd" d="M61.6406 1L68.8841 5.51456C84.2862 15.1279 101.324 21.8214 119.147 25.2606L122.281 25.8653V33.0995C122.281 67.6218 102.796 99.1811 71.9495 114.62L61.6406 119.78L51.3317 114.62C20.4851 99.1811 1 67.6218 1 33.0995V25.8653L4.13411 25.2606C21.9568 21.8214 38.995 15.1279 54.3971 5.51456L61.6406 1ZM61.6406 1.84254L54.7779 6.12594C39.3009 15.786 22.1798 22.5121 4.27035 25.968L1.71977 26.4602V33.0995C1.71977 67.3489 21.0509 98.6587 51.6536 113.975L61.6406 118.974L71.6276 113.975C102.23 98.6587 121.561 67.3489 121.561 33.0995V26.4602L119.011 25.968C101.101 22.5121 83.9803 15.786 68.5033 6.12594L61.6406 1.84254Z" fill="white" stroke="white" stroke-width="1.7"/>
<path d="M193.386 69.25L192.624 69.988L194.937 72.2282H192.624H144.5V73.2718H192.624H194.937L192.624 75.512L193.386 76.25L197 72.75L193.386 69.25Z" fill="white"/>
<path d="M194.937 72.2282L192.624 69.988V72.2282H194.937Z" fill="white"/>
<path d="M194.937 73.2718H192.624V75.512L194.937 73.2718Z" fill="white"/>
</svg>
