<svg width="106" height="121" viewBox="0 0 106 121" fill="none" xmlns="http://www.w3.org/2000/svg">
<path d="M84.6481 37.3934C82.9464 30.3503 80.3378 23.6578 77.1933 18.2673C74.0489 12.8767 70.1449 8.40494 66.0365 5.48761C61.928 2.57029 57.323 1 52.876 1C48.4291 1 43.824 2.57029 39.7156 5.48762C35.6071 8.40494 31.7031 12.8768 28.5587 18.2673C25.4142 23.6578 22.8057 30.3503 21.1039 37.3934C19.4021 44.4364 18.4861 52.3308 18.4861 59.9541C18.4861 52.2122 19.3756 44.546 21.1039 37.3934C22.8321 30.2407 25.3653 23.7417 28.5587 18.2673C31.7521 12.7929 35.5432 8.45034 39.7156 5.48762C43.8879 2.52489 48.3599 1 52.876 1C57.3922 1 61.8641 2.52489 66.0365 5.48761C70.2088 8.45034 73.9999 12.7929 77.1933 18.2673C80.3867 23.7417 82.9199 30.2407 84.6481 37.3934Z" fill="white"/>
<path fill-rule="evenodd" clip-rule="evenodd" d="M58.3347 99.4246C59.3573 98.1949 59.9723 96.6143 59.9723 94.8899C59.9723 90.9707 56.7952 87.7936 52.876 87.7936C48.9568 87.7936 45.7796 90.9707 45.7796 94.8899C45.7796 96.6143 46.3946 98.1949 47.4172 99.4246V106.353C47.4172 109.368 50.8534 110.981 52.8759 110.981C54.7069 110.981 58.3347 109.368 58.3347 106.353V99.4246ZM52.876 101.986C55.0001 101.986 57.1876 100.804 58.3347 99.4246V106.353C58.3347 108.909 55.4319 110.981 52.8759 110.981C50.32 110.981 47.4172 108.909 47.4172 106.353V99.4246C48.5847 100.828 50.6251 102.062 52.876 101.986Z" fill="white"/>
<path fill-rule="evenodd" clip-rule="evenodd" d="M1.30298 68.2611C1.30298 64.1321 4.6502 60.7848 8.77921 60.7848H97.5185C101.648 60.7848 104.995 64.1321 104.995 68.2611V111.693C104.995 115.822 101.648 119.169 97.5185 119.169H8.77921C4.6502 119.169 1.30298 115.822 1.30298 111.693V68.2611Z" fill="white"/>
<path d="M77.1933 18.2673C80.3378 23.6578 82.9464 30.3503 84.6481 37.3934C82.9199 30.2407 80.3867 23.7417 77.1933 18.2673ZM77.1933 18.2673C74.0489 12.8767 70.1449 8.40494 66.0365 5.48761M77.1933 18.2673C73.9999 12.7929 70.2088 8.45034 66.0365 5.48761M66.0365 5.48761C61.928 2.57029 57.323 1 52.876 1M66.0365 5.48761C61.8641 2.52489 57.3922 1 52.876 1M52.876 1C48.4291 1 43.824 2.57029 39.7156 5.48762M52.876 1C48.3599 1 43.8879 2.52489 39.7156 5.48762M39.7156 5.48762C35.6071 8.40494 31.7031 12.8768 28.5587 18.2673M39.7156 5.48762C35.5432 8.45034 31.7521 12.7929 28.5587 18.2673M28.5587 18.2673C25.4142 23.6578 22.8057 30.3503 21.1039 37.3934M28.5587 18.2673C25.3653 23.7417 22.8321 30.2407 21.1039 37.3934M21.1039 37.3934C19.4021 44.4364 18.4861 52.3308 18.4861 59.9541C18.4861 52.2122 19.3756 44.546 21.1039 37.3934ZM58.3347 99.4246C59.3573 98.1949 59.9723 96.6143 59.9723 94.8899C59.9723 90.9708 56.7952 87.7936 52.876 87.7936C48.9568 87.7936 45.7796 90.9708 45.7796 94.8899C45.7796 96.6143 46.3946 98.1949 47.4172 99.4246M58.3347 99.4246V106.353M58.3347 99.4246C57.1876 100.804 55.0001 101.986 52.876 101.986C50.6251 102.062 48.5847 100.828 47.4172 99.4246M47.4172 99.4246V106.353M47.4172 106.353C47.4172 109.368 50.8534 110.981 52.8759 110.981M47.4172 106.353C47.4172 108.909 50.32 110.981 52.8759 110.981M52.8759 110.981C54.7069 110.981 58.3347 109.368 58.3347 106.353M52.8759 110.981C55.4319 110.981 58.3347 108.909 58.3347 106.353M8.77921 60.7848C4.6502 60.7848 1.30298 64.1321 1.30298 68.2611V111.693C1.30298 115.822 4.6502 119.169 8.77921 119.169H97.5185C101.648 119.169 104.995 115.822 104.995 111.693V68.2611C104.995 64.1321 101.648 60.7848 97.5185 60.7848H8.77921Z" stroke="#222525" stroke-width="2"/>
</svg>
