<svg width="39" height="39" viewBox="0 0 39 39" fill="none" xmlns="http://www.w3.org/2000/svg">
<path d="M26.1653 11.4258C24.8698 10.7018 24.4518 9.06384 25.1745 7.76953C25.6693 6.89325 26.5834 6.43622 27.4974 6.43622C27.9545 6.43622 28.4115 6.55078 28.8307 6.77869C30.1263 7.54041 30.5443 9.17841 29.8216 10.4349C29.3268 11.3112 28.4127 11.7682 27.4987 11.7682C27.0416 11.7682 26.5846 11.6537 26.1653 11.4258ZM32.8307 19.0052H28.4127C28.2604 16.9479 27.2317 15.1198 25.6705 13.9401C25.4036 13.7499 25.1367 13.5586 24.832 13.3685C23.8412 12.8347 22.6992 12.53 21.4805 12.53C20.2239 12.53 19.0807 12.8347 18.0521 13.4062L15.6146 9.71222C17.3282 8.68359 19.3087 8.112 21.4805 8.112C22.319 8.112 23.1562 8.18878 23.9947 8.37891C23.6901 9.86456 24.3372 11.4258 25.7083 12.2253C26.2421 12.53 26.8515 12.6823 27.4987 12.6823C28.3749 12.6823 29.2122 12.3776 29.8606 11.806C31.6132 13.7109 32.7173 16.224 32.8319 19.004L32.8307 19.0052ZM14.7773 10.2838L17.2148 13.9778C15.6914 15.1588 14.6628 16.9492 14.5482 19.0052C14.5104 19.1575 14.5104 19.3099 14.5104 19.5C14.5104 19.6523 14.5104 19.8425 14.5482 19.9948C14.7006 22.1654 15.8437 24.0325 17.5195 25.2123L15.1966 28.9831C12.987 27.5352 11.3112 25.3268 10.5495 22.737C11.6159 22.1276 12.3776 20.9467 12.3776 19.6133C12.3776 18.28 11.6159 17.0613 10.4727 16.4519C11.1967 13.9376 12.7201 11.767 14.7761 10.2814L14.7773 10.2838ZM8.76037 16.9479C10.246 16.9479 11.4648 18.1289 11.4648 19.6146C11.4648 21.1002 10.246 22.319 8.76037 22.319C7.27472 22.319 6.09375 21.1002 6.09375 19.6146C6.09375 18.1289 7.27472 16.9479 8.76037 16.9479ZM16.0729 29.5169L18.3958 25.7083C19.3099 26.1653 20.3763 26.4322 21.4805 26.4322C22.6992 26.4322 23.8424 26.1276 24.8698 25.556C25.1745 25.4036 25.4414 25.2135 25.7083 24.9844C27.2317 23.8412 28.2604 22.0521 28.4127 19.9948H32.8307C32.7161 22.8893 31.4974 25.517 29.5937 27.4597C29.0221 27.0404 28.2982 26.8125 27.5754 26.8125C26.9283 26.8125 26.3189 26.9648 25.7851 27.2695C24.5663 27.9935 23.9192 29.2878 23.9947 30.5833C23.1562 30.7734 22.319 30.888 21.4805 30.888C19.5 30.888 17.6731 30.3932 16.0729 29.5169ZM27.5742 27.7266C28.4883 27.7266 29.4023 28.1836 29.8972 29.0599C30.6211 30.3554 30.1641 32.0312 28.9063 32.7539C28.4871 32.983 28.03 33.0964 27.573 33.0964C26.6212 33.0964 25.7449 32.6393 25.2501 31.7631C24.4883 30.4675 24.9454 28.8307 26.2409 28.069C26.6602 27.8399 27.1172 27.7266 27.5742 27.7266Z" fill="#222525"/>
</svg>
