<svg width="38" height="38" viewBox="0 0 38 38" fill="none" xmlns="http://www.w3.org/2000/svg">
<path d="M30.8801 21.1561C32.1285 21.0575 33.1359 21.8788 33.2235 23.1162C33.3221 24.4084 32.4132 25.4597 31.1648 25.5582C29.9712 25.6568 28.909 24.7479 28.8214 23.5433C28.7228 22.2511 29.5879 21.2875 30.8801 21.1451V21.1561Z" fill="#85DA2F"/>
<path d="M15.7461 31.3512C15.7461 30.1028 16.6988 29.1501 17.8486 29.1501C18.9985 29.1501 20.1045 30.2014 20.1045 31.4059C20.1045 32.5558 19.1518 33.5632 18.0457 33.607C16.655 33.607 15.7461 32.7419 15.7461 31.3512Z" fill="#23C1FF"/>
<path d="M19.1408 17.3672C18.9436 17.4657 18.856 17.3234 18.8013 17.181C17.0273 13.8739 17.5529 9.71261 20.6739 7.2268C21.4842 6.55881 23.0173 6.41645 23.6853 7.08444C23.97 7.32536 24.0248 7.61008 24.0686 7.94955C24.1671 8.6723 24.3095 9.38409 24.7913 9.96448C25.317 10.5887 25.985 10.8296 26.7515 10.7748C27.4195 10.7748 28.0875 10.6763 28.5255 11.4428C28.7664 11.8699 28.6679 13.5454 28.2846 13.8848C28.0984 14.0272 27.9451 13.9286 27.8028 13.8848C26.6967 13.4578 25.5469 13.4578 24.4081 13.6439C24.0248 13.6877 23.8386 13.6001 23.8386 13.1621C23.7948 12.4393 23.6525 11.7713 23.2692 11.1472C22.5464 9.85497 21.2104 9.81117 20.3453 11.0048C19.6226 11.9575 19.4364 13.1073 19.2393 14.2572C19.0532 15.2646 19.097 16.3159 19.1408 17.3672Z" fill="#FFCA11"/>
<path d="M20.3454 18.0899C20.2468 17.9475 20.3016 17.8052 20.4439 17.7066C23.1707 15.2208 27.2443 14.739 30.3981 17.181C31.2085 17.849 31.7341 19.2397 31.307 20.05C31.1209 20.3895 30.88 20.5319 30.5843 20.6195C29.9163 20.9042 29.2921 21.1889 28.865 21.8131C28.4379 22.4373 28.3394 23.1491 28.5255 23.9156C28.6679 24.5398 28.9088 25.2078 28.2846 25.7882C27.9452 26.1277 26.3245 26.4124 25.8864 26.1277C25.7003 25.9853 25.7441 25.843 25.7879 25.6459C25.9302 24.4522 25.6455 23.3462 25.2184 22.2949C25.0761 21.9117 25.1199 21.7255 25.5032 21.627C26.1711 21.4298 26.7953 21.1013 27.2772 20.6195C28.3284 19.612 28.0875 18.3198 26.7077 17.7504C25.6017 17.2686 24.4519 17.3671 23.3568 17.4657C22.3055 17.5095 21.2981 17.8052 20.3454 18.0899Z" fill="#85DA2F"/>
<path d="M19.7213 19.3383C19.8637 19.1959 19.9622 19.2397 20.1046 19.3383C23.2693 21.2546 24.89 25.0326 23.4555 28.723C23.0722 29.6757 21.8238 30.6394 20.9149 30.3985C20.5316 30.2999 20.3455 30.1138 20.1484 29.8728C19.7213 29.3034 19.2395 28.7668 18.5167 28.5369C17.7502 28.2959 17.0822 28.4383 16.4142 28.8216C15.8447 29.161 15.2644 29.5881 14.5416 29.161C14.1145 28.9201 13.3918 27.4418 13.5341 26.96C13.6327 26.7738 13.8189 26.7738 14.016 26.7738C15.2096 26.5876 16.1733 26.0072 17.0822 25.2407C17.3669 24.9998 17.6078 24.9998 17.8487 25.3392C18.232 25.9087 18.7138 26.3905 19.338 26.73C20.5864 27.4527 21.78 26.8285 21.9224 25.394C22.0647 24.2004 21.6377 23.1382 21.2544 22.0869C20.8273 21.1342 20.3017 20.2143 19.7213 19.3602V19.3383Z" fill="#23C1FF"/>
<path d="M18.1881 19.623C18.0019 20.5757 17.5639 21.4955 16.9944 22.3059C15.2752 24.8903 12.7784 25.9415 9.71221 25.6568C8.60619 25.5582 7.69728 24.6493 7.60967 23.7404C7.56587 23.3572 7.65347 23.0724 7.89439 22.7877C8.23386 22.3606 8.51858 21.9774 8.66094 21.4517C8.94566 20.4005 8.56238 19.5354 7.79583 18.7688C6.74457 17.7175 6.88693 16.7539 8.13531 15.9873C8.27767 15.8888 8.47478 15.8012 8.66094 15.7026C8.94566 15.5602 9.18657 15.5602 9.28513 15.8888C9.71221 16.9948 10.5773 17.8051 11.541 18.4731C11.8804 18.7579 11.8804 18.955 11.5848 19.2835C11.0153 19.9077 10.6759 20.6742 10.6321 21.5393C10.5335 22.5906 11.1577 23.2586 12.209 23.2586C12.877 23.2586 13.5012 23.0177 14.0815 22.733C15.5708 21.9664 16.7097 20.8604 17.8157 19.7215C17.9581 19.6777 18.0019 19.5792 18.199 19.623H18.1881Z" fill="#0069DA"/>
<path d="M10.3364 9.5702C10.4349 9.5702 10.6759 9.614 10.9058 9.66876C12.6798 10.0082 13.7749 9.38404 14.3553 7.70858C14.7386 6.60256 15.5489 6.27404 16.6111 6.84347C16.6549 6.84347 16.6549 6.88728 16.7097 6.88728C17.8157 7.51147 17.8157 7.61002 17.1368 8.56273C16.5673 9.32928 16.2717 10.1944 16.1293 11.1033C16.0308 11.6289 15.8446 11.7275 15.3628 11.5304C14.5962 11.2457 13.7859 11.2457 12.9646 11.5304C12.0556 11.8151 11.6724 12.6364 11.9571 13.5453C12.3404 14.7389 13.3916 15.2646 14.3005 15.8888C15.2095 16.5129 16.2607 16.8415 17.2682 17.2795C17.4105 17.3233 17.6515 17.3233 17.6077 17.5642C17.5639 17.7066 17.3667 17.7066 17.1806 17.7066C15.0233 17.8051 12.9646 17.4657 11.2891 16.0311C9.7122 14.7389 8.56237 13.162 8.74853 10.95C8.89089 10.2272 9.41653 9.70161 10.3254 9.55925L10.3364 9.5702Z" fill="#FF4649"/>
<path d="M6.40516 23.0177C5.25533 23.1601 4.10551 22.2074 4.00695 21.0028C3.9084 19.853 4.87206 18.7031 5.96713 18.6046C7.21551 18.4622 8.36534 19.3273 8.45294 20.4772C8.49674 21.5832 7.78495 22.9192 6.39421 23.0177H6.40516Z" fill="#0069DA"/>
<path d="M26.5216 5.9784C27.7152 5.87984 28.865 6.8435 28.9636 8.03713C29.0622 9.18695 28.0985 10.293 26.9487 10.3806C25.7003 10.4791 24.6052 9.57023 24.5067 8.36565C24.4081 7.17202 25.2732 6.066 26.5216 5.96745V5.9784Z" fill="#FFCA11"/>
<path d="M14.016 6.88731C14.1583 8.13569 13.2932 9.18695 12.0011 9.37312C10.895 9.51548 9.74521 8.60657 9.60285 7.5553C9.46049 6.16456 10.227 5.15709 11.5192 5.01474C12.7128 4.87238 13.8627 5.78128 14.005 6.88731H14.016Z" fill="#FF4649"/>
<path d="M30.8801 21.1561C32.1285 21.0575 33.1359 21.8788 33.2235 23.1162C33.3221 24.4084 32.4132 25.4597 31.1648 25.5583C29.9712 25.6568 28.909 24.7479 28.8214 23.5433C28.7228 22.2511 29.5879 21.2875 30.8801 21.1451V21.1561Z" fill="#222525"/>
<path d="M15.7461 31.3512C15.7461 30.1028 16.6988 29.1501 17.8486 29.1501C18.9985 29.1501 20.1045 30.2013 20.1045 31.4059C20.1045 32.5557 19.1518 33.5632 18.0457 33.607C16.655 33.607 15.7461 32.7419 15.7461 31.3512Z" fill="#222525"/>
<path d="M19.1408 17.3671C18.9436 17.4657 18.856 17.3233 18.8013 17.181C17.0273 13.8739 17.5529 9.71259 20.6739 7.22678C21.4842 6.55879 23.0173 6.41643 23.6853 7.08442C23.97 7.32534 24.0248 7.61006 24.0686 7.94953C24.1671 8.67227 24.3095 9.38407 24.7913 9.96446C25.317 10.5886 25.985 10.8296 26.7515 10.7748C27.4195 10.7748 28.0875 10.6763 28.5255 11.4428C28.7664 11.8699 28.6679 13.5453 28.2846 13.8848C28.0984 14.0272 27.9451 13.9286 27.8028 13.8848C26.6967 13.4577 25.5469 13.4577 24.4081 13.6439C24.0248 13.6877 23.8386 13.6001 23.8386 13.1621C23.7948 12.4393 23.6525 11.7713 23.2692 11.1471C22.5464 9.85495 21.2104 9.81115 20.3453 11.0048C19.6226 11.9575 19.4364 13.1073 19.2393 14.2571C19.0532 15.2646 19.097 16.3159 19.1408 17.3671Z" fill="#222525"/>
<path d="M20.3454 18.0899C20.2468 17.9475 20.3016 17.8052 20.4439 17.7066C23.1707 15.2208 27.2443 14.739 30.3981 17.181C31.2085 17.849 31.7341 19.2397 31.307 20.05C31.1209 20.3895 30.88 20.5319 30.5843 20.6195C29.9163 20.9042 29.2921 21.1889 28.865 21.8131C28.4379 22.4373 28.3394 23.1491 28.5256 23.9156C28.6679 24.5398 28.9088 25.2078 28.2846 25.7882C27.9452 26.1277 26.3245 26.4124 25.8864 26.1277C25.7003 25.9853 25.7441 25.843 25.7879 25.6459C25.9302 24.4522 25.6455 23.3462 25.2184 22.2949C25.0761 21.9117 25.1199 21.7255 25.5032 21.627C26.1711 21.4298 26.7953 21.1013 27.2772 20.6195C28.3284 19.612 28.0875 18.3198 26.7077 17.7504C25.6017 17.2686 24.4519 17.3671 23.3568 17.4657C22.3055 17.5095 21.2981 17.8052 20.3454 18.0899Z" fill="#222525"/>
<path d="M19.7213 19.3383C19.8637 19.1959 19.9622 19.2397 20.1046 19.3383C23.2693 21.2546 24.89 25.0326 23.4555 28.723C23.0722 29.6757 21.8238 30.6394 20.9149 30.3985C20.5316 30.2999 20.3455 30.1138 20.1484 29.8728C19.7213 29.3034 19.2395 28.7668 18.5167 28.5369C17.7502 28.2959 17.0822 28.4383 16.4142 28.8216C15.8447 29.1611 15.2644 29.5881 14.5416 29.1611C14.1145 28.9201 13.3918 27.4418 13.5341 26.96C13.6327 26.7738 13.8189 26.7738 14.016 26.7738C15.2096 26.5876 16.1733 26.0072 17.0822 25.2407C17.3669 24.9998 17.6078 24.9998 17.8487 25.3393C18.232 25.9087 18.7138 26.3905 19.338 26.73C20.5864 27.4527 21.78 26.8286 21.9224 25.394C22.0647 24.2004 21.6377 23.1382 21.2544 22.0869C20.8273 21.1342 20.3017 20.2143 19.7213 19.3602V19.3383Z" fill="#222525"/>
<path d="M18.1881 19.623C18.0019 20.5757 17.5639 21.4955 16.9944 22.3059C15.2752 24.8903 12.7784 25.9415 9.71221 25.6568C8.60619 25.5583 7.69728 24.6493 7.60967 23.7404C7.56587 23.3572 7.65348 23.0724 7.89439 22.7877C8.23386 22.3606 8.51858 21.9774 8.66094 21.4517C8.94566 20.4005 8.56238 19.5354 7.79583 18.7688C6.74457 17.7176 6.88693 16.7539 8.13531 15.9873C8.27767 15.8888 8.47478 15.8012 8.66094 15.7026C8.94566 15.5603 9.18657 15.5603 9.28513 15.8888C9.71221 16.9948 10.5773 17.8052 11.541 18.4731C11.8804 18.7579 11.8804 18.955 11.5848 19.2835C11.0153 19.9077 10.6759 20.6742 10.6321 21.5393C10.5335 22.5906 11.1577 23.2586 12.209 23.2586C12.877 23.2586 13.5012 23.0177 14.0815 22.733C15.5708 21.9664 16.7097 20.8604 17.8157 19.7215C17.9581 19.6777 18.0019 19.5792 18.199 19.623H18.1881Z" fill="#222525"/>
<path d="M10.3364 9.57023C10.4349 9.57023 10.6759 9.61403 10.9058 9.66878C12.6798 10.0083 13.7749 9.38406 14.3553 7.70861C14.7386 6.60258 15.5489 6.27406 16.6111 6.8435C16.6549 6.8435 16.6549 6.8873 16.7097 6.8873C17.8157 7.51149 17.8157 7.61005 17.1368 8.56276C16.5673 9.32931 16.2717 10.1944 16.1293 11.1033C16.0308 11.629 15.8446 11.7275 15.3628 11.5304C14.5962 11.2457 13.7859 11.2457 12.9646 11.5304C12.0556 11.8151 11.6724 12.6364 11.9571 13.5453C12.3404 14.739 13.3916 15.2646 14.3005 15.8888C15.2095 16.513 16.2607 16.8415 17.2682 17.2795C17.4105 17.3233 17.6515 17.3233 17.6077 17.5642C17.5639 17.7066 17.3667 17.7066 17.1806 17.7066C15.0233 17.8052 12.9646 17.4657 11.2891 16.0311C9.7122 14.739 8.56237 13.1621 8.74853 10.95C8.89089 10.2273 9.41653 9.70163 10.3254 9.55928L10.3364 9.57023Z" fill="#222525"/>
<path d="M6.40516 23.0177C5.25533 23.1601 4.10551 22.2073 4.00695 21.0028C3.9084 19.8529 4.87206 18.7031 5.96713 18.6046C7.21551 18.4622 8.36534 19.3273 8.45294 20.4771C8.49674 21.5832 7.78495 22.9191 6.39421 23.0177H6.40516Z" fill="#222525"/>
<path d="M26.5216 5.9784C27.7152 5.87984 28.865 6.8435 28.9636 8.03713C29.0622 9.18695 28.0985 10.293 26.9487 10.3806C25.7003 10.4791 24.6052 9.57023 24.5067 8.36565C24.4081 7.17202 25.2732 6.066 26.5216 5.96745V5.9784Z" fill="#222525"/>
<path d="M14.016 6.88731C14.1583 8.13569 13.2932 9.18695 12.0011 9.37312C10.895 9.51548 9.74521 8.60657 9.60285 7.5553C9.46049 6.16456 10.227 5.15709 11.5192 5.01474C12.7128 4.87238 13.8627 5.78128 14.005 6.88731H14.016Z" fill="#222525"/>
</svg>
