<svg width="36" height="36" viewBox="0 0 36 36" fill="none" xmlns="http://www.w3.org/2000/svg">
<path d="M4.46952 12.0994C4.56515 11.7945 4.6619 11.3974 4.73952 10.9924L4.75077 10.9181C4.25915 11.5369 4.51227 11.6629 4.46952 12.0847V12.0994ZM5.35602 8.35875C5.4539 9.15975 4.7519 9.48375 5.51015 8.94937C5.93202 8.02125 5.35602 8.69625 5.36952 8.35875H5.35602ZM18.6321 1.29825C19 1.2285 19.4579 1.16887 19.9214 1.13287L19.9675 1.1295C19.4478 1.17225 18.9269 1.20037 18.4206 1.27012L18.6321 1.29825ZM30.8001 16.3462L30.7023 16.5566C30.5391 17.7165 30.1983 18.765 29.7066 19.7224L29.7325 19.6672C30.2635 18.7065 30.6359 17.5837 30.7821 16.3912L30.7866 16.3462H30.8001ZM15.4135 19.6954C15.2414 19.485 15.0951 19.2443 14.9849 18.9832L14.977 18.9641C15.1278 19.4355 15.3325 19.8461 15.5913 20.2162L15.5811 20.2016L15.4124 19.6954H15.4135ZM14.5416 19.7381L14.4719 20.1319C14.8071 20.6685 15.1784 21.1331 15.5969 21.5516C15.2594 20.8912 15.0063 20.6235 14.5428 19.7235L14.5416 19.7381ZM28.4354 15.714C28.4039 16.4869 28.2104 17.208 27.8875 17.8526L27.901 17.8223L27.4094 18.0765C27.0156 18.8359 27.4521 18.5681 27.1709 19.1734C26.4936 19.8427 25.7489 20.4446 24.9479 20.9689L24.8939 21.0026C24.6115 21.0026 25.0908 20.6516 25.1605 20.5245C24.3291 21.087 24.4844 21.3682 23.2334 21.7192L23.1906 21.6349C22.6641 21.8149 22.0566 21.9195 21.4255 21.9195C18.3216 21.9195 15.805 19.4029 15.805 16.299C15.805 16.2765 15.805 16.2529 15.805 16.2304V16.2338C15.7634 16.4722 15.7071 16.416 15.6363 16.515C15.625 16.389 15.6183 16.2427 15.6183 16.0942C15.6183 14.1232 16.7601 12.4178 18.4195 11.6066L18.4488 11.5931C19.0675 11.2747 19.7988 11.0891 20.5728 11.0891C21.772 11.0891 22.8678 11.5358 23.7003 12.2726L23.6958 12.2681C22.8284 11.151 21.4851 10.4389 19.9765 10.4389C19.9394 10.4389 19.9023 10.4389 19.8651 10.44H19.8708C18.2766 10.4546 16.8906 11.331 16.1549 12.6259L16.1436 12.6472C15.2999 13.1816 15.202 14.7139 14.8364 14.9827C14.7599 15.3619 14.716 15.7972 14.716 16.2427C14.716 18.7459 16.102 20.9239 18.1484 22.0534L18.1821 22.0702C18.5613 22.3369 18.2946 22.365 18.3509 22.5619C17.5049 22.1546 16.7894 21.6056 16.2066 20.9385L16.1999 20.9306C16.5149 21.4245 16.8873 21.8464 17.3159 22.203L17.3249 22.2098C16.552 21.9566 15.5395 20.3816 15.2448 20.3119C16.552 22.6451 20.5593 24.4181 22.6405 23.5451C22.456 23.5586 22.2411 23.5665 22.0251 23.5665C21.0745 23.5665 20.1599 23.4146 19.3038 23.1334L19.3656 23.1514C18.9021 22.9264 18.2834 22.4347 18.3813 22.3504C19.315 22.7542 20.4018 22.9882 21.5436 22.9882C23.4966 22.9882 25.2888 22.302 26.6928 21.1579L26.6781 21.1691C27.2969 20.6775 27.9854 19.8472 28.1823 19.8337C27.901 20.2837 28.2385 20.0588 28.0135 20.4525C28.6323 19.44 27.7323 20.0306 28.6604 18.7087L28.9979 19.1722C28.8719 18.3285 30.0385 17.3149 29.926 15.9919C30.1926 15.57 30.2073 16.4137 29.926 17.3554C30.3333 16.3147 30.0385 16.1606 30.1364 15.3034C30.2489 15.5452 30.3591 15.8389 30.448 16.1415L30.4604 16.1888C30.4435 16.0526 30.4345 15.894 30.4345 15.7331C30.4345 15.0795 30.5898 14.4619 30.8643 13.9162L30.8541 13.9399C30.7281 13.8701 30.4604 14.3617 30.4041 13.1951C30.4041 12.6754 30.5448 12.9139 30.601 12.8014C30.3175 12.4729 30.1251 12.0589 30.0678 11.6021L30.0666 11.5909C30.1791 11.4086 30.376 12.0544 30.5448 12.069C30.4199 11.6347 30.3198 11.1184 30.2669 10.5885L30.2635 10.5503C29.7854 9.594 30.0948 10.6909 29.701 10.1284C29.2229 8.595 30.1229 9.77738 30.1791 9.08775C30.7788 10.0834 31.2546 11.2376 31.5426 12.465L31.5584 12.5471C31.3885 11.6055 31.15 10.7752 30.8384 9.98213L30.8699 10.0732C31.0949 10.1711 30.5043 8.32837 31.1646 9.5535C30.259 6.8805 28.4331 4.72162 26.0729 3.4065L26.0166 3.37837C26.2698 3.61687 26.6073 3.92625 26.4801 3.969C25.426 3.33675 25.6083 3.294 25.4541 3.02737C24.5969 2.67637 24.5406 3.0555 23.9635 3.02737C22.9904 2.52225 21.8519 2.06662 20.6639 1.72462L20.53 1.692L20.5998 2.01487C19.5175 1.66387 19.3341 2.1555 18.1675 2.01487C18.0966 1.95862 18.5466 1.818 18.9123 1.76175C17.8705 1.90237 17.9268 1.56487 16.9008 1.8045C17.119 1.656 17.3721 1.50637 17.6343 1.3725L17.6736 1.3545C16.8299 1.41075 15.6498 1.84612 16.0143 1.45237C14.0163 2.17462 12.2849 3.12075 10.7301 4.28737L10.7819 4.25025L10.7414 3.94087C10.1091 4.70025 7.98627 6.2055 7.81752 7.18987L7.63302 7.2315C7.31015 7.794 7.09865 8.42625 6.83202 9.0045C6.41015 9.73575 6.19977 9.28575 6.26952 9.39825C5.66877 10.62 5.11415 12.0679 4.68552 13.5697L4.6394 13.7599C4.72265 14.5372 4.7699 15.4395 4.7699 16.353C4.7699 16.8053 4.75865 17.2552 4.73502 17.7019L4.73727 17.6389C4.7339 17.7638 4.73165 17.9111 4.73165 18.0596C4.73165 25.65 9.59277 32.1052 16.372 34.4812L16.4935 34.5184C17.4059 34.7468 18.4544 34.8784 19.5333 34.8784C19.6953 34.8784 19.8573 34.875 20.017 34.8694L19.9934 34.8705C18.6018 34.4768 18.4184 34.6601 17.0695 34.182C16.0851 33.732 15.8748 33.1976 15.1851 32.5935L15.4664 33.0851C14.1018 32.607 14.6654 32.4945 13.5528 32.1435L13.8475 31.7644C13.2636 31.5518 12.79 31.1512 12.4908 30.6382L12.484 30.6259L12.0059 30.6394C11.4299 29.9351 11.1205 29.4154 11.1486 29.007L10.9923 29.2882C10.81 28.9935 8.8559 26.6152 9.86727 27.1642C9.57702 26.9629 9.33965 26.7041 9.16977 26.4026L9.16415 26.3914L9.36102 26.1529C8.95152 25.6882 8.6489 25.1201 8.49477 24.4924L8.48915 24.4654C8.63652 24.6881 8.8559 24.8535 9.11352 24.9278L9.1214 24.93C7.8839 21.8767 7.81415 24.7613 6.87027 21.834L7.08065 21.8059C6.96365 21.6101 6.84102 21.375 6.73302 21.132L6.71502 21.0881L6.7994 20.2444C5.91402 19.2038 6.54627 15.8839 6.6734 14.0557C7.05365 12.9713 7.47102 12.0521 7.95815 11.1769L7.90977 11.2702L7.61502 11.214C8.17752 10.2161 10.9056 7.17637 12.1713 7.33275C12.7754 6.55987 12.0453 7.33275 11.9181 7.13587C13.2681 5.74312 13.69 6.1515 14.5911 5.89837C15.5755 5.33475 13.7474 6.12337 14.212 5.68575C15.8995 5.26387 15.4068 4.70137 17.6151 4.491C17.8401 4.63162 17.0673 4.68787 16.8839 4.85662C17.6928 4.59675 18.622 4.446 19.5873 4.446C20.9305 4.446 22.2063 4.73737 23.3549 5.25937L23.2975 5.23575C25.9885 6.67012 27.8774 9.30488 28.2565 12.4054L28.261 12.4504L28.3735 12.4785C28.4005 12.798 28.4163 13.1704 28.4163 13.5461C28.4163 14.517 28.3139 15.4642 28.1193 16.3777L28.135 16.2889L28.4163 15.6982L28.4354 15.714ZM19.1249 1.73475L18.9145 1.77637L19.1114 1.76287V1.73475H19.1249ZM18.5343 1.566C18.8155 1.62225 19.1665 1.66387 19.1249 1.73475C19.4478 1.665 19.5186 1.59412 18.5208 1.566H18.5343ZM24.751 15.336C24.8208 14.3224 24.5541 14.6318 24.4698 15.0255C24.5676 15.0817 24.652 15.7286 24.751 15.3349V15.336ZM23.653 18.2183C23.9613 17.7964 24.1919 17.2957 24.3089 16.7535L24.3134 16.7276C24.202 17.118 24.0434 17.4589 23.8409 17.7682L23.8499 17.7536C22.7958 18.414 23.752 17.3745 23.8499 16.9661C22.7249 18.3859 23.6958 17.811 23.653 18.2183ZM20.6425 18.963C20.08 18.963 20.755 19.2442 21.4874 19.3567C21.6899 19.2049 21.8688 19.053 22.0375 18.891L22.0353 18.8933C21.763 18.9563 21.4503 18.9911 21.1296 18.9911C20.9586 18.9911 20.7899 18.981 20.6234 18.9608L20.6425 18.963Z" fill="#222525"/>
</svg>
