<svg width="237" height="138" viewBox="0 0 237 138" fill="none" xmlns="http://www.w3.org/2000/svg">
<path d="M194.579 117.772H193.579V118.772V135.838C180.617 130.631 165.495 124.18 153.462 114.997C141.024 105.505 132 93.1844 132 76.3861C132 53.5292 150.529 35 173.386 35H194.579C217.436 35 235.965 53.5292 235.965 76.3861C235.965 99.2431 217.436 117.772 194.579 117.772Z" stroke="#222525" stroke-width="2"/>
<path d="M169.271 61.16H210.011" stroke="#222525" stroke-width="2"/>
<path d="M192.11 79.6783H210.011" stroke="#222525" stroke-width="2"/>
<path d="M42.3862 83.7722H43.3862V84.7722V101.838C56.348 96.6309 71.47 90.1803 83.5033 80.997C95.941 71.5051 104.965 59.1844 104.965 42.3861C104.965 19.5292 86.4361 1 63.5792 1H42.3862C19.5291 1 1.00005 19.5292 1.00005 42.3861C1.00005 65.2431 19.5291 83.7722 42.3862 83.7722Z" stroke="#222525" stroke-width="2"/>
<path d="M67.6943 27.16H26.9543" stroke="#222525" stroke-width="2"/>
<path d="M44.8552 45.6783H26.9543" stroke="#222525" stroke-width="2"/>
</svg>
