<svg width="225" height="85" viewBox="0 0 225 85" fill="none" xmlns="http://www.w3.org/2000/svg">
<path fill-rule="evenodd" clip-rule="evenodd" d="M57.7071 85C70.4097 85 80.7071 65.9721 80.7071 42.5C80.7071 19.0279 70.4097 0 57.7071 0C45.0046 0 34.7071 19.0279 34.7071 42.5C34.7071 65.9721 45.0046 85 57.7071 85ZM72.2116 71.6001C76.1869 64.2546 78.7071 53.9698 78.7071 42.5C78.7071 31.0302 76.1869 20.7454 72.2116 13.3999C68.1935 5.97516 62.9753 2 57.7071 2C52.4389 2 47.2207 5.97516 43.2026 13.3999C39.2274 20.7454 36.7071 31.0302 36.7071 42.5C36.7071 53.9698 39.2274 64.2546 43.2026 71.6001C47.2207 79.0248 52.4389 83 57.7071 83C62.9753 83 68.1935 79.0248 72.2116 71.6001Z" fill="#222525"/>
<path d="M23.7071 1.08579V85H21.7071V5.91421L1.41421 26.2071L0 24.7929L23.7071 1.08579Z" fill="#222525"/>
<path fill-rule="evenodd" clip-rule="evenodd" d="M135.707 42.5C135.707 65.9721 125.41 85 112.707 85C100.005 85 89.7071 65.9721 89.7071 42.5C89.7071 19.0279 100.005 0 112.707 0C125.41 0 135.707 19.0279 135.707 42.5ZM133.707 42.5C133.707 53.9698 131.187 64.2546 127.212 71.6001C123.194 79.0248 117.975 83 112.707 83C107.439 83 102.221 79.0248 98.2026 71.6001C94.2274 64.2546 91.7071 53.9698 91.7071 42.5C91.7071 31.0302 94.2274 20.7454 98.2026 13.3999C102.221 5.97516 107.439 2 112.707 2C117.975 2 123.194 5.97516 127.212 13.3999C131.187 20.7454 133.707 31.0302 133.707 42.5Z" fill="#222525"/>
<path fill-rule="evenodd" clip-rule="evenodd" d="M180.273 8.22808C176.479 6.03715 171.628 6.92979 167.024 9.70154C162.386 12.4938 157.771 17.3077 154.221 23.4557C150.672 29.6037 148.81 36.0073 148.711 41.4201C148.613 46.7932 150.265 51.4403 154.06 53.6313C157.855 55.8222 162.705 54.9296 167.309 52.1578C171.947 49.3656 176.562 44.5516 180.112 38.4036C183.661 32.2557 185.523 25.852 185.622 20.4392C185.721 15.0662 184.068 10.419 180.273 8.22808ZM155.953 24.4557C159.366 18.5442 163.759 14.0016 168.055 11.415C172.386 8.80788 176.397 8.29945 179.273 9.96013C182.15 11.6208 183.715 15.3487 183.622 20.4026C183.531 25.4168 181.793 31.4922 178.38 37.4036C174.967 43.3151 170.574 47.8578 166.278 50.4444C161.947 53.0515 157.936 53.5599 155.06 51.8992C152.184 50.2385 150.618 46.5107 150.711 41.4567C150.803 36.4425 152.54 30.3672 155.953 24.4557Z" fill="#222525"/>
<path d="M205.198 7.04766L164.963 76.7357L166.695 77.7357L206.93 8.04766L205.198 7.04766Z" fill="#222525"/>
<path fill-rule="evenodd" clip-rule="evenodd" d="M219.299 30.7593C215.504 28.5684 210.653 29.461 206.049 32.2328C201.411 35.025 196.796 39.839 193.247 45.987C189.697 52.135 187.836 58.5386 187.736 63.9514C187.638 69.3244 189.29 73.9716 193.085 76.1625C196.88 78.3535 201.731 77.4608 206.335 74.6891C210.973 71.8968 215.588 67.0829 219.137 60.9349C222.687 54.7869 224.548 48.3833 224.647 42.9705C224.746 37.5974 223.094 32.9503 219.299 30.7593ZM194.979 46.987C198.392 41.0755 202.784 36.5328 207.081 33.9462C211.411 31.3391 215.422 30.8307 218.299 32.4914C221.175 34.1521 222.74 37.8799 222.648 42.9339C222.556 47.9481 220.818 54.0234 217.405 59.9349C213.992 65.8464 209.6 70.389 205.303 72.9756C200.973 75.5827 196.962 76.0912 194.085 74.4305C191.209 72.7698 189.644 69.0419 189.736 63.988C189.828 58.9738 191.566 52.8984 194.979 46.987Z" fill="#222525"/>
</svg>
