<svg xmlns="http://www.w3.org/2000/svg" width="54" height="40" viewBox="0 0 54 40" fill="none">
<path d="M30.7969 0.916552C28.696 -0.305257 25.2885 -0.305555 23.187 0.915885L1.57582 13.4766C0.523021 14.0885 -0.00224945 14.8909 7.24037e-06 15.6928L0.00448595 24.2958C-0.00363088 25.1022 0.521613 25.9101 1.58021 26.5253L23.1881 39.0841C25.2892 40.3053 28.6958 40.3053 30.7969 39.0841L52.4048 26.5253C53.4813 25.9185 54.0065 25.1181 53.9999 24.3167L53.9775 15.6928C53.9778 14.8927 53.4528 14.0924 52.4027 13.4817L30.7969 0.916552Z" fill="#DEDEDE"/>
<path d="M30.7955 1.81428C28.7014 0.593621 25.305 0.593323 23.2102 1.81361L4.47161 12.7297C2.3773 13.9497 2.3773 15.9277 4.47162 17.1478L23.2114 28.0645C25.3057 29.2845 28.7012 29.2845 30.7955 28.0645L49.5285 17.1517C51.6224 15.932 51.6229 13.9544 49.5296 12.7343L30.7955 1.81428Z" fill="white"/>
<path d="M34.3575 18.3813C32.4886 19.4675 30.2434 20.0537 27.6219 20.14L27.581 21.898L24.4757 21.8045L24.5166 19.9762C22.6347 19.6795 21.0351 19.1484 19.7179 18.3829C17.7018 17.2111 16.6806 15.797 16.6543 14.1406C16.6548 12.4842 17.6769 11.0621 19.7207 9.87425C21.7644 8.68642 24.2046 8.09625 27.0411 8.10375C29.891 8.10344 32.3307 8.69307 34.3603 9.87264C36.3898 11.0522 37.4043 12.4702 37.4038 14.1266C37.4167 15.7752 36.4012 17.1934 34.3575 18.3813ZM21.9768 17.07C22.7026 17.4918 23.5628 17.8121 24.5576 18.0307L24.6191 14.9953L27.7244 15.0887L27.6629 18.2648C29.3567 18.1552 30.8154 17.7449 32.039 17.0337C33.4777 16.1976 34.1972 15.2169 34.1976 14.0918C34.1979 12.9667 33.4992 11.9979 32.1014 11.1855C30.7036 10.3731 29.0368 9.96699 27.1009 9.9672C25.1651 9.96741 23.4779 10.3856 22.0392 11.2218C20.6005 12.058 19.881 13.0386 19.8806 14.1637C19.8802 15.2888 20.579 16.2576 21.9768 17.07Z" fill="#041220"/>
</svg>
