<svg xmlns="http://www.w3.org/2000/svg" width="81" height="18" viewBox="0 0 81 18" fill="none">
  <path d="M19.0684 8.66578C19.0684 10.878 18.3031 12.8037 16.7726 14.443L18.6192 16.2573L16.5979 18L14.6764 16.1141C13.1958 16.9257 11.6403 17.3316 10.01 17.3316C7.5146 17.3316 5.37686 16.496 3.5968 14.8249C1.83337 13.1379 0.95166 11.0849 0.95166 8.66578C0.95166 6.24668 1.83337 4.20159 3.5968 2.5305C5.36022 0.843501 7.49796 0 10.01 0C12.5221 0 14.6598 0.843501 16.4232 2.5305C18.1866 4.20159 19.0684 6.24668 19.0684 8.66578ZM10.01 14.6578C10.9084 14.6578 11.7818 14.4748 12.6302 14.1088L9.43607 10.9814L11.4574 9.23873L14.8012 12.5093C15.7328 11.3952 16.1986 10.1141 16.1986 8.66578C16.1986 6.96286 15.5997 5.53846 14.4019 4.39257C13.2041 3.24668 11.7402 2.67374 10.01 2.67374C8.27986 2.67374 6.81588 3.24668 5.61808 4.39257C4.42028 5.53846 3.82139 6.96286 3.82139 8.66578C3.82139 10.3687 4.42028 11.7931 5.61808 12.939C6.81588 14.0849 8.27986 14.6578 10.01 14.6578Z" fill="#F8F8F8"/>
  <path d="M28.0645 17.0212H24.7456L19.8047 0.310345H22.8242L26.4924 13.3687L30.4601 0.310345H33.1053L37.048 13.3687L40.7163 0.310345H43.7357L38.7948 17.0212H35.4759L31.7827 4.82228L28.0645 17.0212Z" fill="#F8F8F8"/>
  <path d="M45.9822 17.0212V0.310345H48.8519V17.0212H45.9822Z" fill="#F8F8F8"/>
  <path d="M62.8233 11.6499V0.310345H65.693V17.0212H63.4471L55.2123 5.6817V17.0212H52.3426V0.310345H54.5884L62.8233 11.6499Z" fill="#F8F8F8"/>
  <path d="M74.7523 17.3316C73.0721 17.3316 71.6414 16.9735 70.4602 16.2573C69.2957 15.5252 68.4805 14.5146 68.0147 13.2255L70.4852 11.8408C71.1839 13.7188 72.6312 14.6578 74.8272 14.6578C75.8919 14.6578 76.6988 14.4589 77.2478 14.061C77.7967 13.6631 78.0712 13.13 78.0712 12.4615C78.0712 11.7931 77.7801 11.2759 77.1978 10.9098C76.6156 10.5438 75.5841 10.1459 74.1035 9.71618C72.5897 9.28647 71.3669 8.77719 70.4353 8.18833C69.304 7.4244 68.7384 6.30239 68.7384 4.82228C68.7384 3.34218 69.2874 2.17241 70.3854 1.313C71.4667 0.437666 72.7893 0 74.3531 0C75.7339 0 76.9483 0.32626 77.9964 0.97878C79.0611 1.61538 79.8763 2.51459 80.4419 3.67639L78.0213 5.01326C77.2893 3.45358 76.0666 2.67374 74.3531 2.67374C73.5213 2.67374 72.8558 2.86472 72.3568 3.24668C71.8577 3.61273 71.6081 4.11406 71.6081 4.75066C71.6081 5.37135 71.8577 5.86472 72.3568 6.23077C72.8558 6.5809 73.7791 6.95491 75.1266 7.35278C75.9585 7.62334 76.4409 7.78249 76.574 7.83024C76.7903 7.8939 77.2228 8.05305 77.8716 8.30769C78.404 8.51459 78.8282 8.7374 79.1443 8.97613C80.4419 9.94695 81.0408 11.0928 80.941 12.4138C80.941 13.9257 80.367 15.1273 79.2191 16.0186C78.1045 16.8939 76.6156 17.3316 74.7523 17.3316Z" fill="#F8F8F8"/>
</svg>