<svg xmlns="http://www.w3.org/2000/svg" width="124" height="72" viewBox="0 0 124 72" fill="none">
  <path d="M65.797 16.9331C63.696 15.7195 60.2886 15.7192 58.1871 16.9324L36.5758 29.4089C35.523 30.0167 34.9978 30.8137 35 31.6103L35.0045 40.1556C34.9964 40.9566 35.5216 41.7591 36.5802 42.3702L58.1882 54.8448C60.2893 56.0578 63.6959 56.0578 65.7969 54.8448L87.4049 42.3702C88.4814 41.7674 89.0067 40.9724 89.0001 40.1764L88.9777 31.6103C88.978 30.8155 88.4529 30.0206 87.4028 29.414L65.797 16.9331Z" fill="#D1D1D1"/>
  <path d="M65.6537 17.8054C63.554 16.5925 60.1486 16.5922 58.0482 17.8047L39.26 28.6513C37.1601 29.8636 37.1601 31.8291 39.26 33.0414L58.0494 43.8886C60.1493 45.1009 63.5538 45.1009 65.6537 43.8886L84.4363 33.0453C86.5357 31.8333 86.5362 29.8683 84.4374 28.6559L65.6537 17.8054Z" fill="#F8F8F8"/>
  <path d="M69.3576 34.2808C67.4887 35.3598 65.2435 35.9421 62.622 36.0277L62.5811 37.7739L59.4758 37.6811L59.5167 35.8651C57.6348 35.5704 56.0352 35.0428 54.718 34.2824C52.7019 33.1185 51.6807 31.7139 51.6544 30.0686C51.6549 28.4233 52.677 27.0107 54.7208 25.8308C56.7645 24.651 59.2047 24.0647 62.0412 24.0722C64.8911 24.0719 67.3309 24.6576 69.3604 25.8292C71.39 27.0009 72.4045 28.4094 72.4039 30.0547C72.4168 31.6922 71.4014 33.1009 69.3576 34.2808ZM56.9769 32.9783C57.7027 33.3973 58.563 33.7154 59.5577 33.9326L59.6192 30.9175L62.7245 31.0103L62.663 34.1651C64.3569 34.0563 65.8156 33.6487 67.0391 32.9423C68.4778 32.1117 69.1974 31.1377 69.1977 30.0201C69.1981 28.9025 68.4994 27.9403 67.1015 27.1333C65.7037 26.3263 64.0369 25.9229 62.1011 25.9232C60.1653 25.9234 58.478 26.3388 57.0393 27.1693C55.6006 27.9999 54.8811 28.974 54.8807 30.0915C54.8803 31.2091 55.5791 32.1714 56.9769 32.9783Z" fill="#232323"/>
</svg>