<svg width="49" height="13" viewBox="0 0 49 13" fill="none" xmlns="http://www.w3.org/2000/svg">
<g clip-path="url(#clip0_151_1243)">
<path fill-rule="evenodd" clip-rule="evenodd" d="M43.5788 0H34.2765C34.7743 2.88167 37.7765 5.57556 41.0743 5.57556H48.4788C48.5799 5.29389 48.5799 4.92556 48.5799 4.64389C48.5799 2.04389 46.3787 0 43.5788 0ZM35.0776 6.03778V13H39.5732V9.28778H43.5788C44.6322 9.28019 45.6556 8.96101 46.5004 8.37658C47.3451 7.79215 47.9673 6.9729 48.2765 6.03778H35.0776ZM19.0787 0V13H23.0765C23.0765 13 24.0799 13 24.5776 12.0756L28.0776 5.57556H28.5754V13H33.0787V0H29.0732C29.0732 0 28.0776 0.0938889 27.5799 0.938889L24.0799 7.43889H23.5743V0H19.0787ZM0.0776367 13V0H4.57319C4.57319 0 5.87986 0 6.57986 1.85611C8.37653 6.78167 8.57875 7.43167 8.57875 7.43167C8.57875 7.43167 8.97541 6.22556 10.5776 1.85611C11.2776 0 12.5765 0 12.5765 0H17.0799V13H12.5765V6.03778H12.0787L9.56653 13H7.57541L5.07875 6.03778H4.57319V13H0.0776367Z" fill="#787878"/>
</g>
<defs>
<clipPath id="clip0_151_1243">
<rect width="49" height="13" fill="white"/>
</clipPath>
</defs>
</svg>
