<svg xmlns="http://www.w3.org/2000/svg" width="39" height="39" viewBox="0 0 39 39" fill="none">
  <path d="M26.1653 11.4256C24.8698 10.7017 24.4518 9.06366 25.1745 7.76935C25.6693 6.89307 26.5834 6.43604 27.4974 6.43604C27.9545 6.43604 28.4115 6.5506 28.8307 6.7785C30.1263 7.54022 30.5443 9.17822 29.8216 10.4348C29.3268 11.311 28.4127 11.7681 27.4987 11.7681C27.0416 11.7681 26.5846 11.6535 26.1653 11.4256ZM32.8307 19.005H28.4127C28.2604 16.9478 27.2317 15.1196 25.6705 13.9399C25.4036 13.7498 25.1367 13.5584 24.832 13.3683C23.8412 12.8345 22.6992 12.5298 21.4805 12.5298C20.2239 12.5298 19.0807 12.8345 18.0521 13.4061L15.6146 9.71203C17.3282 8.68341 19.3087 8.11182 21.4805 8.11182C22.319 8.11182 23.1562 8.1886 23.9947 8.37872C23.6901 9.86438 24.3372 11.4256 25.7083 12.2251C26.2421 12.5298 26.8515 12.6821 27.4987 12.6821C28.3749 12.6821 29.2122 12.3774 29.8606 11.8058C31.6132 13.7108 32.7173 16.2238 32.8319 19.0038L32.8307 19.005ZM14.7773 10.2836L17.2148 13.9777C15.6914 15.1586 14.6628 16.949 14.5482 19.005C14.5104 19.1573 14.5104 19.3097 14.5104 19.4998C14.5104 19.6522 14.5104 19.8423 14.5482 19.9946C14.7006 22.1652 15.8437 24.0323 17.5195 25.2121L15.1966 28.9829C12.987 27.535 11.3112 25.3267 10.5495 22.7368C11.6159 22.1274 12.3776 20.9465 12.3776 19.6132C12.3776 18.2798 11.6159 17.0611 10.4727 16.4517C11.1967 13.9374 12.7201 11.7668 14.7761 10.2812L14.7773 10.2836ZM8.76037 16.9478C10.246 16.9478 11.4648 18.1287 11.4648 19.6144C11.4648 21.1 10.246 22.3188 8.76037 22.3188C7.27472 22.3188 6.09375 21.1 6.09375 19.6144C6.09375 18.1287 7.27472 16.9478 8.76037 16.9478ZM16.0729 29.5167L18.3958 25.7081C19.3099 26.1652 20.3763 26.4321 21.4805 26.4321C22.6992 26.4321 23.8424 26.1274 24.8698 25.5558C25.1745 25.4034 25.4414 25.2133 25.7083 24.9842C27.2317 23.841 28.2604 22.0519 28.4127 19.9946H32.8307C32.7161 22.8892 31.4974 25.5168 29.5937 27.4595C29.0221 27.0402 28.2982 26.8123 27.5754 26.8123C26.9283 26.8123 26.3189 26.9647 25.7851 27.2693C24.5663 27.9933 23.9192 29.2876 23.9947 30.5831C23.1562 30.7733 22.319 30.8878 21.4805 30.8878C19.5 30.8878 17.6731 30.393 16.0729 29.5167ZM27.5742 27.7264C28.4883 27.7264 29.4023 28.1834 29.8972 29.0597C30.6211 30.3552 30.1641 32.031 28.9063 32.7537C28.4871 32.9828 28.03 33.0962 27.573 33.0962C26.6212 33.0962 25.7449 32.6392 25.2501 31.7629C24.4883 30.4673 24.9454 28.8306 26.2409 28.0688C26.6602 27.8397 27.1172 27.7264 27.5742 27.7264Z" fill="#F8F8F8"/>
</svg>