<svg width="106" height="121" viewBox="0 0 106 121" fill="none" xmlns="http://www.w3.org/2000/svg">
<path d="M84.6479 37.3934C82.9461 30.3503 80.3376 23.6578 77.1931 18.2673C74.0486 12.8767 70.1446 8.40494 66.0362 5.48761C61.9278 2.57029 57.3227 1 52.8758 1C48.4288 1 43.8238 2.57029 39.7153 5.48762C35.6069 8.40494 31.7029 12.8768 28.5584 18.2673C25.414 23.6578 22.8054 30.3503 21.1036 37.3934C19.4019 44.4364 18.4859 52.3308 18.4859 59.9541C18.4859 52.2122 19.3754 44.546 21.1036 37.3934C22.8319 30.2407 25.365 23.7417 28.5584 18.2673C31.7518 12.7929 35.5429 8.45034 39.7153 5.48762C43.8877 2.52489 48.3596 1 52.8758 1C57.3919 1 61.8638 2.52489 66.0362 5.48761C70.2086 8.45034 73.9997 12.7929 77.1931 18.2673C80.3865 23.7417 82.9196 30.2407 84.6479 37.3934Z" fill="#1A1A1A"/>
<path fill-rule="evenodd" clip-rule="evenodd" d="M58.3344 99.4246C59.357 98.1949 59.972 96.6143 59.972 94.8899C59.972 90.9707 56.7949 87.7936 52.8757 87.7936C48.9565 87.7936 45.7794 90.9707 45.7794 94.8899C45.7794 96.6143 46.3944 98.1949 47.417 99.4246V106.353C47.417 109.368 50.8532 110.981 52.8757 110.981C54.7067 110.981 58.3344 109.368 58.3344 106.353V99.4246ZM52.8757 101.986C54.9999 101.986 57.1874 100.804 58.3344 99.4246V106.353C58.3344 108.909 55.4317 110.981 52.8757 110.981C50.3197 110.981 47.417 108.909 47.417 106.353V99.4246C48.5845 100.828 50.6249 102.062 52.8757 101.986Z" fill="#1A1A1A"/>
<path fill-rule="evenodd" clip-rule="evenodd" d="M1.30273 68.2611C1.30273 64.1321 4.64996 60.7848 8.77897 60.7848H97.5183C101.647 60.7848 104.995 64.1321 104.995 68.2611V111.693C104.995 115.822 101.647 119.169 97.5183 119.169H8.77897C4.64996 119.169 1.30273 115.822 1.30273 111.693V68.2611Z" fill="#1A1A1A"/>
<path d="M77.1931 18.2673C80.3376 23.6578 82.9461 30.3503 84.6479 37.3934C82.9196 30.2407 80.3865 23.7417 77.1931 18.2673ZM77.1931 18.2673C74.0486 12.8767 70.1446 8.40494 66.0362 5.48761M77.1931 18.2673C73.9997 12.7929 70.2086 8.45034 66.0362 5.48761M66.0362 5.48761C61.9278 2.57029 57.3227 1 52.8758 1M66.0362 5.48761C61.8638 2.52489 57.3919 1 52.8758 1M52.8758 1C48.4288 1 43.8238 2.57029 39.7153 5.48762M52.8758 1C48.3596 1 43.8877 2.52489 39.7153 5.48762M39.7153 5.48762C35.6069 8.40494 31.7029 12.8768 28.5584 18.2673M39.7153 5.48762C35.5429 8.45034 31.7518 12.7929 28.5584 18.2673M28.5584 18.2673C25.414 23.6578 22.8054 30.3503 21.1036 37.3934M28.5584 18.2673C25.365 23.7417 22.8319 30.2407 21.1036 37.3934M21.1036 37.3934C19.4019 44.4364 18.4859 52.3308 18.4859 59.9541C18.4859 52.2122 19.3754 44.546 21.1036 37.3934ZM58.3344 99.4246C59.357 98.1949 59.972 96.6143 59.972 94.8899C59.972 90.9708 56.7949 87.7936 52.8757 87.7936C48.9565 87.7936 45.7794 90.9708 45.7794 94.8899C45.7794 96.6143 46.3944 98.1949 47.417 99.4246M58.3344 99.4246V106.353M58.3344 99.4246C57.1874 100.804 54.9999 101.986 52.8757 101.986C50.6249 102.062 48.5845 100.828 47.417 99.4246M47.417 99.4246V106.353M47.417 106.353C47.417 109.368 50.8532 110.981 52.8757 110.981M47.417 106.353C47.417 108.909 50.3197 110.981 52.8757 110.981M52.8757 110.981C54.7067 110.981 58.3344 109.368 58.3344 106.353M52.8757 110.981C55.4317 110.981 58.3344 108.909 58.3344 106.353M8.77897 60.7848C4.64996 60.7848 1.30273 64.1321 1.30273 68.2611V111.693C1.30273 115.822 4.64996 119.169 8.77897 119.169H97.5183C101.647 119.169 104.995 115.822 104.995 111.693V68.2611C104.995 64.1321 101.647 60.7848 97.5183 60.7848H8.77897Z" stroke="#F8F8F8" stroke-width="2"/>
</svg>
