<svg width="124" height="121" viewBox="0 0 124 121" fill="none" xmlns="http://www.w3.org/2000/svg">
<path fill-rule="evenodd" clip-rule="evenodd" d="M61.6406 1L68.8841 5.51456C84.2862 15.1279 101.324 21.8214 119.147 25.2606L122.281 25.8653V33.0995C122.281 67.6218 102.796 99.1811 71.9495 114.62L61.6406 119.78L51.3317 114.62C20.4851 99.1811 1 67.6218 1 33.0995V25.8653L4.13411 25.2606C21.9568 21.8214 38.995 15.1279 54.3971 5.51456L61.6406 1ZM61.6406 1.84254L54.7779 6.12594C39.3009 15.786 22.1798 22.5121 4.27035 25.968L1.71977 26.4602V33.0995C1.71977 67.3489 21.0509 98.6587 51.6536 113.975L61.6406 118.974L71.6276 113.975C102.23 98.6587 121.561 67.3489 121.561 33.0995V26.4602L119.011 25.968C101.101 22.5121 83.9803 15.786 68.5033 6.12594L61.6406 1.84254Z" fill="#F8F8F8" stroke="#F8F8F8" stroke-width="1.7"/>
</svg>
