<svg width="49" height="20" viewBox="0 0 49 20" fill="none" xmlns="http://www.w3.org/2000/svg">
<path d="M20.9654 16.8335H17.4149L19.64 3.20016H23.1986L20.9735 16.8335H20.9654ZM42.429 16.8335H45.6984L42.8468 3.20016H39.979C38.6617 3.20016 38.3404 4.21683 38.3404 4.21683L33.0146 16.8335H36.7258L37.4728 14.8085H42.0033L42.421 16.8335H42.429ZM38.509 12.0085L40.3807 6.9085L41.4249 12.0085H38.509ZM33.3038 6.47516L33.8099 3.55016C33.8099 3.55016 32.2435 2.9585 30.6128 2.9585C28.8456 2.9585 24.6445 3.72516 24.6445 7.46683C24.6445 10.9918 29.5686 11.0335 29.5686 12.8835C29.5686 14.7335 25.1505 14.4002 23.6966 13.2335L23.1664 16.2918C23.1664 16.2918 24.7569 17.0668 27.1828 17.0668C29.6168 17.0668 33.2877 15.8168 33.2877 12.4002C33.2877 8.8585 28.3074 8.52516 28.3074 6.9835C28.3074 5.44183 31.7776 5.64183 33.3038 6.4835V6.47516ZM14.4187 3.20016L11.0208 12.5752L10.6192 10.5585L10.6112 10.5085C10.3863 9.92516 9.47052 7.8335 7.31773 6.09183C6.83577 5.7085 6.32167 5.34183 5.7915 5.02516L8.87609 16.8335H12.5792L18.2504 3.20016H14.4187Z" fill="#787878"/>
<path d="M10.6676 10.6666L9.44664 4.3999C9.44664 4.3999 9.29402 3.1499 7.71959 3.1499H1.98418L1.91992 3.3749C1.91992 3.3749 4.67517 3.94157 7.31795 6.08324C8.81192 7.27028 9.9692 8.85379 10.6676 10.6666Z" fill="#787878"/>
</svg>
