<svg width="25" height="24" viewBox="0 0 25 24" fill="none" xmlns="http://www.w3.org/2000/svg">
<g clip-path="url(#clip0_151_1265)">
<path d="M12.3145 0C5.63713 0 0.217773 5.384 0.217773 12C0.217773 18.616 5.63713 24 12.3145 24C18.9839 24 24.4113 18.616 24.4113 12C24.4113 5.384 18.9839 0 12.3145 0ZM12.3145 22.024C9.72115 21.8981 7.27595 20.7874 5.48539 18.9221C3.69484 17.0568 2.69613 14.5797 2.69613 12.004C2.69613 9.42827 3.69484 6.95122 5.48539 5.08591C7.27595 3.2206 9.72115 2.10995 12.3145 1.984C14.9079 2.10995 17.3531 3.2206 19.1437 5.08591C20.9343 6.95122 21.933 9.42827 21.933 12.004C21.933 14.5797 20.9343 17.0568 19.1437 18.9221C17.3531 20.7874 14.9079 21.8981 12.3145 22.024Z" fill="#787878"/>
<path d="M16.629 8.25602V6.43202H13.3226V4.41602H11.2984V6.43202H7.98389V8.85602H13.1049L7.99195 15.736V17.576H11.2903V19.576H13.3145V17.576H16.621V15.144H11.5L16.621 8.26402L16.629 8.25602Z" fill="#787878"/>
</g>
<defs>
<clipPath id="clip0_151_1265">
<rect width="25" height="24" fill="white"/>
</clipPath>
</defs>
</svg>
